G04 Layer: TopSolderMaskLayer*
G04 EasyEDA v6.5.42, 2024-02-23 22:21:14*
G04 3aace9d48a714ce2aeec92cc817ea311,70a670f4ca684169977cf979d80dc4ec,10*
G04 Gerber Generator version 0.2*
G04 Scale: 100 percent, Rotated: No, Reflected: No *
G04 Dimensions in millimeters *
G04 leading zeros omitted , absolute positions ,4 integer and 5 decimal *
%FSLAX45Y45*%
%MOMM*%

%AMMACRO1*1,1,$1,$2,$3*1,1,$1,$4,$5*1,1,$1,0-$2,0-$3*1,1,$1,0-$4,0-$5*20,1,$1,$2,$3,$4,$5,0*20,1,$1,$4,$5,0-$2,0-$3,0*20,1,$1,0-$2,0-$3,0-$4,0-$5,0*20,1,$1,0-$4,0-$5,$2,$3,0*4,1,4,$2,$3,$4,$5,0-$2,0-$3,0-$4,0-$5,$2,$3,0*%
%AMMACRO2*4,1,5,-0.8368,-1.0508,-0.8368,1.0508,0.8368,1.0508,-0.2142,0,0.8368,-1.0508,-0.8368,-1.0508,0*%
%AMMACRO3*4,1,5,0.2394,-1.0508,-0.8114,0,0.2394,1.0508,0.8114,1.0508,0.8114,-1.0508,0.2394,-1.0508,0*%
%AMMACRO4*4,1,5,-0.8367,-1.0508,-0.8367,1.0508,0.8367,1.0508,-0.2144,0,0.8367,-1.0508,-0.8367,-1.0508,0*%
%AMMACRO5*4,1,5,0.2395,-1.0508,-0.8113,0,0.2395,1.0508,0.8113,1.0508,0.8113,-1.0508,0.2395,-1.0508,0*%
%AMMACRO6*4,1,5,-0.8213,-0.8508,-0.2894,-0.0001,-0.8213,0.8508,0.8213,0.8508,0.8213,-0.8508,-0.8213,-0.8508,0*%
%AMMACRO7*4,1,5,-0.8054,-0.8508,-0.8054,0.8508,0.2736,0.8508,0.8054,-0.0001,0.2736,-0.8508,-0.8054,-0.8508,0*%
%AMMACRO8*4,1,5,-0.8213,-0.8508,-0.2894,0.0001,-0.8213,0.8508,0.8213,0.8508,0.8213,-0.8508,-0.8213,-0.8508,0*%
%AMMACRO9*4,1,5,-0.8054,-0.8508,-0.8054,0.8508,0.2736,0.8508,0.8054,0.0001,0.2736,-0.8508,-0.8054,-0.8508,0*%
%AMMACRO10*4,1,5,-0.8509,-0.8213,-0.8509,0.8213,0.8509,0.8213,0.8509,-0.8213,0,-0.2894,-0.8509,-0.8213,0*%
%AMMACRO11*4,1,5,-0.8509,-0.8053,-0.8509,0.2737,0,0.8053,0.8509,0.2737,0.8509,-0.8053,-0.8509,-0.8053,0*%
%ADD10MACRO1,0.1016X-0.85X-0.85X0.85X-0.85*%
%ADD11C,1.8016*%
%ADD12MACRO1,0.1016X-0.7874X-0.85X0.7874X-0.85*%
%ADD13R,1.8016X1.8016*%
%ADD14MACRO1,0.1016X0.8X0.8X-0.8X0.8*%
%ADD15C,1.7016*%
%ADD16C,1.6256*%
%ADD17MACRO1,0.1016X0.762X-0.762X0.762X0.762*%
%ADD18R,2.1016X2.1016*%
%ADD19C,2.1016*%
%ADD20MACRO1,0.1016X-0.4032X-0.432X-0.4032X0.432*%
%ADD21MACRO1,0.1016X0.4032X-0.432X0.4032X0.432*%
%ADD22C,1.4016*%
%ADD23O,0.6700012X2.051812*%
%ADD24MACRO1,0.1016X-1X1X1X1*%
%ADD25C,1.9016*%
%ADD26R,1.9016X1.6764*%
%ADD27MACRO1,0.1016X1X-1X-1X-1*%
%ADD28MACRO1,0.1016X1X1X1X-1*%
%ADD29R,0.9016X0.9016*%
%ADD30MACRO1,0.1016X0.9X0.7874X0.9X-0.7874*%
%ADD31R,0.7016X1.1716*%
%ADD32MACRO1,0.1016X-0.535X0.3X0.535X0.3*%
%ADD33MACRO1,0.1016X0.3X0.535X0.3X-0.535*%
%ADD34MACRO1,0.1016X0.4032X0.432X0.4032X-0.432*%
%ADD35MACRO1,0.1016X-0.4032X0.432X-0.4032X-0.432*%
%ADD36O,2.051812X0.6700012*%
%ADD37O,2.1395944X0.6755891999999999*%
%ADD38MACRO1,0.1016X0.9X-0.9X-0.9X-0.9*%
%ADD39O,0.5496052X1.7855946000000003*%
%ADD40O,1.7855946000000003X0.5496052*%
%ADD41MACRO1,0.1016X0.395X0.27X0.395X-0.27*%
%ADD42MACRO1,0.1016X-0.395X0.27X-0.395X-0.27*%
%ADD43MACRO1,0.1016X0.375X0.5X0.375X-0.5*%
%ADD44MACRO1,0.1016X0.85X-0.475X-0.85X-0.475*%
%ADD45MACRO1,0.1016X0.7874X-0.85X-0.7874X-0.85*%
%ADD46MACRO1,0.1016X-0.9X0.9X0.9X0.9*%
%ADD47MACRO1,0.1016X-0.7874X0.85X0.7874X0.85*%
%ADD48R,0.9656X0.9081*%
%ADD49MACRO1,0.1016X0.635X-1.143X-0.635X-1.143*%
%ADD50MACRO1,0.1016X0.889X-0.75X-0.889X-0.75*%
%ADD51MACRO1,0.1016X0.635X-0.75X-0.635X-0.75*%
%ADD52MACRO1,0.1016X0.35X-1X-0.35X-1*%
%ADD53MACRO1,0.1016X0.3499X-1X-0.3499X-1*%
%ADD54C,1.7032*%
%ADD55MACRO1,0.1016X-1.25X0.55X1.25X0.55*%
%ADD56MACRO1,0.1016X1.17X1.8X1.17X-1.8*%
%ADD57MACRO1,0.1016X-0.432X0.4032X0.432X0.4032*%
%ADD58MACRO1,0.1016X-0.432X-0.4032X0.432X-0.4032*%
%ADD59MACRO1,0.1016X0.85X-0.85X-0.85X-0.85*%
%ADD60MACRO1,0.1016X0.9X0.9X0.9X-0.9*%
%ADD61R,2.7032X2.4032*%
%ADD62O,2.703195X2.4031956000000005*%
%ADD63MACRO1,0.1016X0.535X-0.3X-0.535X-0.3*%
%ADD64R,1.9016X1.9016*%
%ADD65MACRO1,0.1016X-1.188X0.7531X1.188X0.7531*%
%ADD66MACRO1,0.1016X-1.188X-0.7531X1.188X-0.7531*%
%ADD67MACRO1,0.1016X-1.175X1.75X1.175X1.75*%
%ADD68MACRO2*%
%ADD69MACRO3*%
%ADD70MACRO1,0.1016X-0.4X0.4X0.4X0.4*%
%ADD71MACRO1,0.1X-0.75X0.45X0.75X0.45*%
%ADD72R,1.0000X1.6000*%
%ADD73MACRO1,0.1X0.75X-0.45X-0.75X-0.45*%
%ADD74R,1.0016X1.0016*%
%ADD75MACRO1,0.1016X-0.675X0.705X0.675X0.705*%
%ADD76MACRO1,0.1016X-0.675X-0.705X0.675X-0.705*%
%ADD77MACRO1,0.1016X0.5X-0.375X-0.5X-0.375*%
%ADD78MACRO1,0.1016X-0.3X0.2X0.3X0.2*%
%ADD79MACRO1,0.1016X0.3X-0.2X-0.3X-0.2*%
%ADD80R,1.8016X1.6764*%
%ADD81MACRO1,0.1X-0.9X0.6X0.9X0.6*%
%ADD82MACRO1,0.1016X-0.705X-0.675X-0.705X0.675*%
%ADD83MACRO1,0.1016X0.705X-0.675X0.705X0.675*%
%ADD84MACRO1,0.1016X-0.27X0.395X0.27X0.395*%
%ADD85MACRO1,0.1016X-0.27X-0.395X0.27X-0.395*%
%ADD86MACRO1,0.1016X-0.395X-0.27X-0.395X0.27*%
%ADD87MACRO1,0.1016X0.395X-0.27X0.395X0.27*%
%ADD88R,0.6416X0.8917*%
%ADD89MACRO1,0.1016X0.4X0.4X0.4X-0.4*%
%ADD90MACRO1,0.1016X0.7531X1.188X0.7531X-1.188*%
%ADD91MACRO1,0.1016X-0.7531X1.188X-0.7531X-1.188*%
%ADD92R,1.8296X1.5866*%
%ADD93MACRO1,0.1016X0.7425X0.864X0.7425X-0.864*%
%ADD94MACRO1,0.1016X-0.7425X0.864X-0.7425X-0.864*%
%ADD95MACRO4*%
%ADD96MACRO5*%
%ADD97R,1.4516X1.5116*%
%ADD98MACRO1,0.1016X0.705X0.675X0.705X-0.675*%
%ADD99MACRO1,0.1016X-0.705X0.675X-0.705X-0.675*%
%ADD100MACRO1,0.1016X0.8X-0.8X-0.8X-0.8*%
%ADD101R,1.3516X1.1016*%
%ADD102MACRO1,0.1X0.9X-0.6X-0.9X-0.6*%
%ADD103MACRO1,0.1016X0.245X-0.5785X-0.245X-0.5785*%
%ADD104MACRO1,0.1016X0.245X-0.5875X-0.245X-0.5875*%
%ADD105O,0.4446016X1.8330926000000003*%
%ADD106MACRO1,0.1016X0.19X-0.675X-0.19X-0.675*%
%ADD107O,1.2015978000000003X2.0015962000000003*%
%ADD108O,1.3516102X1.5516098000000003*%
%ADD109O,0.0113X1.5516098000000003*%
%ADD110MACRO1,0.1016X0.6X0.7X0.6X-0.7*%
%ADD111MACRO1,0.1016X1.45X-2.7X-1.45X-2.7*%
%ADD112O,1.8330926000000003X0.4446016*%
%ADD113MACRO6*%
%ADD114MACRO7*%
%ADD115MACRO8*%
%ADD116MACRO9*%
%ADD117MACRO1,0.1016X0.45X0.4X0.45X-0.4*%
%ADD118C,1.7000*%
%ADD119C,2.3000*%
%ADD120MACRO1,0.1016X0.8499X-0.8499X-0.8499X-0.8499*%
%ADD121MACRO1,0.1016X0.85X0.85X0.85X-0.85*%
%ADD122MACRO1,0.1016X-0.75X0.75X0.75X0.75*%
%ADD123C,1.6016*%
%ADD124MACRO1,0.1016X-0.7874X0.9X0.7874X0.9*%
%ADD125MACRO1,0.1016X0.7874X-0.9X-0.7874X-0.9*%
%ADD126MACRO1,0.1016X1.75X1.175X1.75X-1.175*%
%ADD127R,0.9656X0.9016*%
%ADD128O,1.9015964X2.7015948*%
%ADD129MACRO1,0.1016X-0.9X1.3X0.9X1.3*%
%ADD130MACRO1,0.1016X0.9X-1.3X-0.9X-1.3*%
%ADD131R,1.4000X0.3500*%
%ADD132R,2.9000X1.7000*%
%ADD133R,1.1216X3.1844*%
%ADD134R,11.1016X8.6016*%
%ADD135R,2.6416X4.6736*%
%ADD136MACRO1,0.1016X2.286X-1.27X-2.286X-1.27*%
%ADD137O,0.5015992X1.6015970000000002*%
%ADD138O,1.6015970000000002X0.5015992*%
%ADD139MACRO1,0.1016X-0.8X0.8X0.8X0.8*%
%ADD140C,1.6764*%
%ADD141MACRO1,0.1016X-0.7874X0.7874X0.7874X0.7874*%
%ADD142MACRO10*%
%ADD143MACRO11*%

%LPD*%
D10*
G01*
X1216512Y-5168887D03*
D11*
G01*
X1470507Y-5168900D03*
G01*
X1724507Y-5168900D03*
G01*
X1978507Y-5168900D03*
G01*
X2232507Y-5168900D03*
G01*
X-1323492Y-5167299D03*
G01*
X-1577492Y-5167299D03*
G01*
X-1831492Y-5167299D03*
G01*
X-2085492Y-5167299D03*
G01*
X-2339492Y-5167299D03*
G01*
X-2593492Y-5167299D03*
G01*
X-2847492Y-5167299D03*
G01*
X-3101492Y-5167299D03*
G01*
X-3355492Y-5167299D03*
D12*
G01*
X-3609502Y-5167304D03*
D13*
G01*
X8798407Y467055D03*
D11*
G01*
X8798407Y213055D03*
G01*
X8798407Y-40944D03*
G01*
X8798407Y-294944D03*
D14*
G01*
X9280997Y-9345604D03*
D15*
G01*
X9027007Y-9345599D03*
G01*
X8773007Y-9345599D03*
G01*
X8519007Y-9345599D03*
G01*
X8265007Y-9345599D03*
G01*
X8011007Y-9345599D03*
G01*
X7757007Y-9345599D03*
G01*
X7503007Y-9345599D03*
G01*
X7249007Y-9345599D03*
G01*
X6995007Y-9345599D03*
G01*
X6741007Y-9345599D03*
D16*
G01*
X11084407Y467055D03*
G01*
X11084407Y213055D03*
G01*
X11084407Y-40944D03*
G01*
X11084407Y-294944D03*
G01*
X11084407Y-548944D03*
G01*
X11084407Y-802944D03*
G01*
X11084407Y-1056944D03*
G01*
X11084407Y-1310944D03*
G01*
X11084407Y-1564944D03*
G01*
X11084407Y-1818944D03*
G01*
X11084407Y-2072944D03*
D17*
G01*
X11084397Y-2326949D03*
D18*
G01*
X5588000Y2425700D03*
D19*
G01*
X5588000Y2679700D03*
D20*
G01*
X10248024Y2743200D03*
D21*
G01*
X10097375Y2743200D03*
D20*
G01*
X7911224Y2578100D03*
D21*
G01*
X7760575Y2578100D03*
D22*
G01*
X7948295Y-2815335D03*
G01*
X7698105Y-2715513D03*
G01*
X7948295Y-2415539D03*
G01*
X7698105Y-2515361D03*
G01*
X7948295Y-2615437D03*
G01*
X7698105Y-2315463D03*
D23*
G01*
X8013700Y3356610D03*
G01*
X7886700Y3356610D03*
G01*
X7759700Y3356610D03*
G01*
X7632700Y3356610D03*
G01*
X8013700Y2815590D03*
G01*
X7886700Y2815590D03*
G01*
X7759700Y2815590D03*
G01*
X7632700Y2815590D03*
D24*
G01*
X9017000Y3175000D03*
D19*
G01*
X9271000Y3175000D03*
D25*
G01*
X12319000Y2159000D03*
G01*
X12319000Y1905000D03*
D26*
G01*
X12319000Y1651000D03*
D25*
G01*
X12319000Y2921000D03*
G01*
X12319000Y2667000D03*
D26*
G01*
X12319000Y2413000D03*
D24*
G01*
X9017000Y3429000D03*
D19*
G01*
X9271000Y3429000D03*
D25*
G01*
X12319000Y3683000D03*
G01*
X12319000Y3429000D03*
D26*
G01*
X12319000Y3175000D03*
D24*
G01*
X9017000Y3683000D03*
D19*
G01*
X9271000Y3683000D03*
D25*
G01*
X12319000Y4445000D03*
G01*
X12319000Y4191000D03*
D26*
G01*
X12319000Y3937000D03*
D24*
G01*
X9017000Y3937000D03*
D19*
G01*
X9271000Y3937000D03*
D27*
G01*
X9706899Y4241800D03*
G01*
X9266900Y4241800D03*
D28*
G01*
X9982200Y4118899D03*
G01*
X9982200Y3678900D03*
D18*
G01*
X9982200Y2993110D03*
G01*
X9982200Y3433089D03*
D27*
G01*
X9706899Y2857500D03*
G01*
X9266900Y2857500D03*
D13*
G01*
X8813800Y1993900D03*
D11*
G01*
X8813800Y2247900D03*
G01*
X8813800Y2501900D03*
G01*
X8813800Y2755900D03*
D24*
G01*
X9969500Y2476500D03*
D19*
G01*
X10223500Y2476500D03*
D29*
G01*
X11477040Y3805428D03*
G01*
X11636933Y3806113D03*
G01*
X11477040Y3547186D03*
G01*
X11636933Y3547872D03*
G01*
X11477040Y3288944D03*
G01*
X11636933Y3289655D03*
G01*
X11477040Y3030728D03*
G01*
X11636933Y3031413D03*
D25*
G01*
X9842500Y4635500D03*
G01*
X9842500Y4889500D03*
D30*
G01*
X9842500Y5143500D03*
D31*
G01*
X9365996Y4746294D03*
G01*
X9176004Y4746294D03*
G01*
X9271000Y4499305D03*
D32*
G01*
X10588299Y3613404D03*
G01*
X10588299Y3803396D03*
G01*
X10341300Y3708400D03*
G01*
X10588299Y3257803D03*
G01*
X10588299Y3447796D03*
G01*
X10341300Y3352800D03*
D33*
G01*
X9176004Y2314900D03*
G01*
X9365996Y2314900D03*
G01*
X9271000Y2561899D03*
D20*
G01*
X10502027Y4841206D03*
D21*
G01*
X10351377Y4841206D03*
D20*
G01*
X10502024Y5003800D03*
D21*
G01*
X10351375Y5003800D03*
D20*
G01*
X10502024Y4508500D03*
D21*
G01*
X10351375Y4508500D03*
D20*
G01*
X10502024Y4673600D03*
D21*
G01*
X10351375Y4673600D03*
D34*
G01*
X11545175Y4559300D03*
D35*
G01*
X11695824Y4559300D03*
D34*
G01*
X11545175Y4724400D03*
D35*
G01*
X11695824Y4724400D03*
D34*
G01*
X11545175Y4394200D03*
D35*
G01*
X11695824Y4394200D03*
D34*
G01*
X11545175Y4229100D03*
D35*
G01*
X11695824Y4229100D03*
D20*
G01*
X11302124Y3805765D03*
D21*
G01*
X11151475Y3805765D03*
D20*
G01*
X11302124Y3547531D03*
D21*
G01*
X11151475Y3547531D03*
D20*
G01*
X11302124Y3289300D03*
D21*
G01*
X11151475Y3289300D03*
D20*
G01*
X11302124Y3031065D03*
D21*
G01*
X11151475Y3031065D03*
D22*
G01*
X9338564Y1703705D03*
G01*
X9438386Y1953895D03*
G01*
X9738360Y1703705D03*
G01*
X9638538Y1953895D03*
G01*
X9538462Y1703705D03*
G01*
X9838436Y1953895D03*
G01*
X11040364Y1703705D03*
G01*
X11140186Y1953895D03*
G01*
X11440160Y1703705D03*
G01*
X11340338Y1953895D03*
G01*
X11240262Y1703705D03*
G01*
X11540236Y1953895D03*
D36*
G01*
X11179810Y2349500D03*
G01*
X11179810Y2476500D03*
G01*
X11179810Y2603500D03*
G01*
X11179810Y2730500D03*
G01*
X10638790Y2349500D03*
G01*
X10638790Y2476500D03*
G01*
X10638790Y2603500D03*
G01*
X10638790Y2730500D03*
D37*
G01*
X10746689Y5196814D03*
G01*
X10746689Y5069814D03*
G01*
X10746689Y4942814D03*
G01*
X10746689Y4815814D03*
G01*
X10746689Y4688814D03*
G01*
X10746689Y4561814D03*
G01*
X10746689Y4434814D03*
G01*
X11300510Y5196814D03*
G01*
X11300510Y5069814D03*
G01*
X11300510Y4942814D03*
G01*
X11300510Y4815814D03*
G01*
X11300510Y4688814D03*
G01*
X11300510Y4561814D03*
G01*
X11300510Y4434814D03*
D28*
G01*
X10160000Y588299D03*
G01*
X10160000Y148300D03*
G01*
X10706100Y588299D03*
G01*
X10706100Y148300D03*
D25*
G01*
X6296533Y4675276D03*
G01*
X6296533Y4929276D03*
G01*
X6550533Y4675276D03*
G01*
X6550533Y4929276D03*
G01*
X6804533Y4675276D03*
D38*
G01*
X6804533Y4929276D03*
D39*
G01*
X-971372Y-574293D03*
G01*
X-891362Y-574293D03*
G01*
X-811377Y-574293D03*
G01*
X-731367Y-574293D03*
G01*
X-651382Y-574293D03*
G01*
X-571372Y-574293D03*
G01*
X-491362Y-574293D03*
G01*
X-411378Y-574293D03*
G01*
X-331368Y-574293D03*
G01*
X-251383Y-574293D03*
G01*
X-171373Y-574293D03*
D40*
G01*
X2819Y-400100D03*
G01*
X2819Y-320090D03*
G01*
X2819Y-240106D03*
G01*
X2819Y-160096D03*
G01*
X2819Y-80111D03*
G01*
X2819Y-101D03*
G01*
X2819Y79908D03*
G01*
X2819Y159893D03*
G01*
X2819Y239903D03*
G01*
X2819Y319887D03*
G01*
X2819Y399897D03*
D39*
G01*
X-171373Y574090D03*
G01*
X-251383Y574090D03*
G01*
X-331368Y574090D03*
G01*
X-411378Y574090D03*
G01*
X-491362Y574090D03*
G01*
X-571372Y574090D03*
G01*
X-651382Y574090D03*
G01*
X-731367Y574090D03*
G01*
X-811377Y574090D03*
G01*
X-891362Y574090D03*
G01*
X-971372Y574090D03*
D40*
G01*
X-1145565Y399897D03*
G01*
X-1145565Y319887D03*
G01*
X-1145565Y239903D03*
G01*
X-1145565Y159893D03*
G01*
X-1145565Y79908D03*
G01*
X-1145565Y-101D03*
G01*
X-1145565Y-80111D03*
G01*
X-1145565Y-160096D03*
G01*
X-1145565Y-240106D03*
G01*
X-1145565Y-320090D03*
G01*
X-1145565Y-400100D03*
D41*
G01*
X6892394Y3149600D03*
D42*
G01*
X7001405Y3149600D03*
D43*
G01*
X1993900Y2397344D03*
G01*
X1993900Y2631850D03*
D44*
G01*
X10080886Y-1806249D03*
G01*
X10080886Y-1552249D03*
G01*
X9420908Y-1552249D03*
G01*
X9420908Y-1806249D03*
G01*
X10093586Y-2377749D03*
G01*
X10093586Y-2123749D03*
G01*
X9433608Y-2123749D03*
G01*
X9433608Y-2377749D03*
D45*
G01*
X-53512Y2922595D03*
D11*
G01*
X-307492Y2922600D03*
G01*
X-561492Y2922600D03*
G01*
X-815492Y2922600D03*
G01*
X-1069492Y2922600D03*
G01*
X-1323492Y2922600D03*
G01*
X-1577492Y2922600D03*
G01*
X-1831492Y2922600D03*
G01*
X-2085492Y2922600D03*
G01*
X-2339492Y2922600D03*
D46*
G01*
X-3457102Y-2132004D03*
D25*
G01*
X-3203092Y-2131999D03*
G01*
X-2949092Y-2131999D03*
G01*
X-2695092Y-2131999D03*
G01*
X-2441092Y-2131999D03*
G01*
X-2187092Y-2131999D03*
G01*
X-1933092Y-2131999D03*
G01*
X-1679092Y-2131999D03*
G01*
X-1425092Y-2131999D03*
G01*
X-1171092Y-2131999D03*
D11*
G01*
X-1323492Y-5421299D03*
G01*
X-1577492Y-5421299D03*
G01*
X-1831492Y-5421299D03*
G01*
X-2085492Y-5421299D03*
G01*
X-2339492Y-5421299D03*
G01*
X-2593492Y-5421299D03*
G01*
X-2847492Y-5421299D03*
G01*
X-3101492Y-5421299D03*
G01*
X-3355492Y-5421299D03*
D47*
G01*
X-3609502Y-5421304D03*
D48*
G01*
X-1031392Y-5193588D03*
G01*
X-1031392Y-5344236D03*
D20*
G01*
X-2086377Y-1878004D03*
D21*
G01*
X-2237027Y-1878004D03*
D48*
G01*
X-1437792Y3518611D03*
G01*
X-1437792Y3367963D03*
D49*
G01*
X-625002Y4872210D03*
G01*
X-2174402Y4872210D03*
D50*
G01*
X-2098202Y3907010D03*
D51*
G01*
X-625002Y3907010D03*
D52*
G01*
X-748967Y3843180D03*
G01*
X-858956Y3843180D03*
G01*
X-968959Y3843180D03*
G01*
X-1078910Y3843180D03*
G01*
X-1188940Y3843180D03*
D53*
G01*
X-1298910Y3843180D03*
D52*
G01*
X-1408953Y3843180D03*
G01*
X-1518904Y3843357D03*
G01*
X-1628861Y3843180D03*
D54*
G01*
X-472592Y4548200D03*
D55*
G01*
X4716593Y-8510396D03*
G01*
X4716593Y-8280399D03*
G01*
X4716593Y-8050402D03*
D56*
G01*
X4122597Y-8280399D03*
D57*
G01*
X10589097Y-3862774D03*
D58*
G01*
X10589097Y-3712124D03*
D57*
G01*
X10589097Y-4345374D03*
D58*
G01*
X10589097Y-4194724D03*
D59*
G01*
X8214197Y-1560504D03*
D11*
G01*
X7960207Y-1560499D03*
G01*
X7706207Y-1560499D03*
G01*
X7452207Y-1560499D03*
D25*
G01*
X5420207Y-3846499D03*
G01*
X5674207Y-3846499D03*
G01*
X5928207Y-3846499D03*
G01*
X6182207Y-3846499D03*
G01*
X6436207Y-3846499D03*
G01*
X6690207Y-3846499D03*
G01*
X6944207Y-3846499D03*
G01*
X7198207Y-3846499D03*
G01*
X7452207Y-3846499D03*
G01*
X7706207Y-3846499D03*
G01*
X7960207Y-3846499D03*
G01*
X8214207Y-3846499D03*
G01*
X11694007Y-2072944D03*
G01*
X11440007Y-2072944D03*
G01*
X11694007Y-1818944D03*
G01*
X11440007Y-1818944D03*
G01*
X11694007Y-1564944D03*
G01*
X11440007Y-1564944D03*
G01*
X11694007Y-1310944D03*
G01*
X11440007Y-1310944D03*
G01*
X11694007Y-1056944D03*
G01*
X11440007Y-1056944D03*
G01*
X11694007Y-802944D03*
G01*
X11440007Y-802944D03*
G01*
X11694007Y-548944D03*
G01*
X11440007Y-548944D03*
G01*
X11694007Y-294944D03*
G01*
X11440007Y-294944D03*
G01*
X11694007Y-40944D03*
G01*
X11440007Y-40944D03*
G01*
X11694007Y213055D03*
D60*
G01*
X11439997Y213050D03*
D61*
G01*
X11493500Y-4322698D03*
D62*
G01*
X11493500Y-3822700D03*
G01*
X11493500Y-3322701D03*
G01*
X11493500Y-2822701D03*
D25*
G01*
X9496907Y-53644D03*
G01*
X9496907Y200355D03*
D30*
G01*
X9496897Y454350D03*
D34*
G01*
X10450272Y-1569184D03*
D35*
G01*
X10600922Y-1569184D03*
D34*
G01*
X10450272Y-1316593D03*
D35*
G01*
X10600922Y-1316593D03*
D34*
G01*
X10450272Y-1064005D03*
D35*
G01*
X10600922Y-1064005D03*
D34*
G01*
X10450272Y-811415D03*
D35*
G01*
X10600922Y-811415D03*
D34*
G01*
X10450272Y-558827D03*
D35*
G01*
X10600922Y-558827D03*
D34*
G01*
X10450272Y-306237D03*
D35*
G01*
X10600922Y-306237D03*
D63*
G01*
X9817897Y-758753D03*
G01*
X9817897Y-948745D03*
G01*
X10064897Y-853749D03*
D48*
G01*
X9585807Y-791133D03*
G01*
X9585807Y-941781D03*
D34*
G01*
X10450272Y-53649D03*
D35*
G01*
X10600922Y-53649D03*
D48*
G01*
X9573107Y-283133D03*
G01*
X9573107Y-433781D03*
D34*
G01*
X10450272Y-1821771D03*
D35*
G01*
X10600922Y-1821771D03*
D63*
G01*
X9805197Y-250753D03*
G01*
X9805197Y-440745D03*
G01*
X10052197Y-345749D03*
D64*
G01*
X10055707Y-7313599D03*
D25*
G01*
X10055707Y-7059599D03*
G01*
X10055707Y-6805599D03*
G01*
X10055707Y-6551599D03*
G01*
X10055707Y-6297599D03*
G01*
X10055707Y-6043599D03*
G01*
X10055707Y-5789599D03*
G01*
X10055707Y-5535599D03*
D64*
G01*
X7325207Y-150799D03*
D25*
G01*
X7325207Y103200D03*
G01*
X7325207Y357200D03*
G01*
X7325207Y611200D03*
G01*
X7325207Y865200D03*
G01*
X7325207Y1119200D03*
G01*
X7325207Y1373200D03*
G01*
X7325207Y1627200D03*
G01*
X7325207Y1881200D03*
G01*
X7325207Y2135200D03*
G01*
X7325207Y2389200D03*
D65*
G01*
X6004397Y69532D03*
D66*
G01*
X6004397Y441657D03*
D67*
G01*
X4944704Y166693D03*
G01*
X5514705Y166693D03*
D68*
G01*
X5257533Y-720623D03*
D69*
G01*
X5352884Y-720623D03*
D70*
G01*
X5486052Y-5546143D03*
G01*
X5486753Y-5706043D03*
D57*
G01*
X5486400Y-5358524D03*
D58*
G01*
X5486400Y-5207875D03*
D71*
G01*
X3122806Y4574090D03*
G01*
X3122808Y4447090D03*
G01*
X3122808Y4320090D03*
G01*
X3122808Y4193090D03*
G01*
X3122808Y4066090D03*
G01*
X3122808Y3939090D03*
G01*
X3122808Y3812090D03*
G01*
X3122808Y3685090D03*
G01*
X3122808Y3558090D03*
G01*
X3122808Y3431090D03*
G01*
X3122808Y3304090D03*
G01*
X3122808Y3177090D03*
G01*
X3122808Y3050090D03*
G01*
X3122808Y2923090D03*
D72*
G01*
X3299307Y2795092D03*
G01*
X3426307Y2795092D03*
G01*
X3553307Y2795092D03*
G01*
X3680307Y2795092D03*
G01*
X3807307Y2795092D03*
G01*
X3934307Y2795092D03*
G01*
X4061307Y2795092D03*
G01*
X4188307Y2795092D03*
G01*
X4315307Y2795092D03*
G01*
X4442307Y2795092D03*
G01*
X4569307Y2795092D03*
G01*
X4696307Y2798089D03*
D73*
G01*
X4872807Y2923090D03*
G01*
X4872807Y3050090D03*
G01*
X4872807Y3177090D03*
G01*
X4872807Y3304090D03*
G01*
X4872807Y3431090D03*
G01*
X4872807Y3558090D03*
G01*
X4872807Y3685090D03*
G01*
X4872807Y3812090D03*
G01*
X4872807Y3939090D03*
G01*
X4872807Y4066090D03*
G01*
X4872807Y4193090D03*
G01*
X4872807Y4320090D03*
G01*
X4872807Y4447090D03*
G01*
X4872807Y4574090D03*
D74*
G01*
X3987800Y3662070D03*
G01*
X3847795Y3662070D03*
G01*
X3707790Y3662070D03*
G01*
X3707790Y3942080D03*
G01*
X3847795Y3942080D03*
G01*
X3987800Y3942080D03*
G01*
X3987800Y3802075D03*
G01*
X3707790Y3802075D03*
G01*
X3847795Y3802075D03*
D15*
G01*
X8671407Y-8596299D03*
G01*
X8925407Y-8596299D03*
D75*
G01*
X898997Y4168792D03*
D76*
G01*
X898997Y4368797D03*
D77*
G01*
X438842Y4167195D03*
G01*
X673347Y4167195D03*
D78*
G01*
X404903Y4459295D03*
D79*
G01*
X554890Y4459295D03*
D78*
G01*
X341403Y3976695D03*
D79*
G01*
X491390Y3976695D03*
G01*
X250090Y4116395D03*
D78*
G01*
X100103Y4116395D03*
D11*
G01*
X-3444366Y2871876D03*
G01*
X-3444366Y2617876D03*
G01*
X-3444366Y2363876D03*
G01*
X-3444366Y2109876D03*
G01*
X-3444366Y1855876D03*
G01*
X-3444366Y1601876D03*
G01*
X-3444366Y1347876D03*
D80*
G01*
X-3444366Y1093876D03*
D81*
G01*
X7293510Y5000162D03*
G01*
X7293510Y4550176D03*
G01*
X8093509Y4550176D03*
G01*
X8093509Y5000162D03*
D57*
G01*
X3464397Y370770D03*
D58*
G01*
X3464397Y521420D03*
D82*
G01*
X3348499Y-4075104D03*
D83*
G01*
X3148495Y-4075104D03*
D41*
G01*
X5962596Y-1890694D03*
D42*
G01*
X6071608Y-1890694D03*
D84*
G01*
X467212Y-2186500D03*
D85*
G01*
X467212Y-2077488D03*
D41*
G01*
X-869990Y-2690792D03*
D42*
G01*
X-760978Y-2690792D03*
D86*
G01*
X6071608Y-1738294D03*
D87*
G01*
X5962596Y-1738294D03*
D88*
G01*
X314807Y-2077491D03*
G01*
X314807Y-2186508D03*
D86*
G01*
X-760978Y-2551092D03*
D87*
G01*
X-869990Y-2551092D03*
D89*
G01*
X4166661Y-3604841D03*
G01*
X4006761Y-3605542D03*
D20*
G01*
X4911330Y-3909989D03*
D21*
G01*
X4760680Y-3909989D03*
D34*
G01*
X-217709Y-2728892D03*
D35*
G01*
X-67059Y-2728892D03*
D84*
G01*
X-3050679Y-2859598D03*
D85*
G01*
X-3050679Y-2750586D03*
D86*
G01*
X-672096Y-3897304D03*
D87*
G01*
X-781108Y-3897304D03*
D90*
G01*
X5655937Y-7785099D03*
D91*
G01*
X6028062Y-7785099D03*
D92*
G01*
X5359400Y-8146542D03*
G01*
X5359400Y-8465058D03*
D93*
G01*
X4273049Y-9118599D03*
D94*
G01*
X4591550Y-9118599D03*
D92*
G01*
X2499207Y4885232D03*
G01*
X2499207Y4566742D03*
D95*
G01*
X4203395Y1273200D03*
D96*
G01*
X4298746Y1273200D03*
D95*
G01*
X4203395Y1539900D03*
D96*
G01*
X4298746Y1539900D03*
D95*
G01*
X4203395Y1006500D03*
D96*
G01*
X4298746Y1006500D03*
D82*
G01*
X5027602Y-6273799D03*
D83*
G01*
X4827597Y-6273799D03*
D97*
G01*
X4140200Y-7278700D03*
G01*
X4140200Y-7478699D03*
D98*
G01*
X4256097Y-6502399D03*
D99*
G01*
X4456102Y-6502399D03*
D97*
G01*
X5219700Y-7278700D03*
G01*
X5219700Y-7478699D03*
D89*
G01*
X10656354Y-4587201D03*
G01*
X10496453Y-4587902D03*
G01*
X10656354Y-3439756D03*
G01*
X10496453Y-3440457D03*
D100*
G01*
X-675779Y-4406887D03*
D15*
G01*
X-675766Y-4660900D03*
G01*
X-929766Y-4406900D03*
G01*
X-929766Y-4660900D03*
G01*
X-1183766Y-4406900D03*
G01*
X-1183766Y-4660900D03*
G01*
X-1437766Y-4406900D03*
G01*
X-1437766Y-4660900D03*
G01*
X-1691766Y-4406900D03*
G01*
X-1691766Y-4660900D03*
G01*
X-1945766Y-4406900D03*
G01*
X-1945766Y-4660900D03*
G01*
X-2199766Y-4406900D03*
G01*
X-2199766Y-4660900D03*
G01*
X-2453766Y-4406900D03*
G01*
X-2453766Y-4660900D03*
G01*
X-2707766Y-4406900D03*
G01*
X-2707766Y-4660900D03*
G01*
X-2961766Y-4406900D03*
G01*
X-2961766Y-4660900D03*
G01*
X-3215766Y-4406900D03*
G01*
X-3215766Y-4660900D03*
G01*
X-3469766Y-4406900D03*
G01*
X-3469766Y-4660900D03*
D101*
G01*
X3464407Y-108407D03*
G01*
X3464407Y111607D03*
D102*
G01*
X2228786Y4550206D03*
G01*
X2228786Y5000193D03*
G01*
X1428788Y5000193D03*
G01*
X1428788Y4550206D03*
D103*
G01*
X4984496Y-6729933D03*
G01*
X4889500Y-6729933D03*
G01*
X4794504Y-6729933D03*
D104*
G01*
X4794504Y-6960666D03*
G01*
X4984496Y-6960666D03*
D103*
G01*
X4438396Y-6729933D03*
G01*
X4343400Y-6729933D03*
G01*
X4248404Y-6729933D03*
D104*
G01*
X4248404Y-6960666D03*
G01*
X4438396Y-6960666D03*
D105*
G01*
X6195999Y-2469387D03*
G01*
X6260998Y-2469387D03*
G01*
X6325997Y-2469387D03*
G01*
X6391021Y-2469387D03*
G01*
X6456019Y-2469387D03*
G01*
X6521018Y-2469387D03*
G01*
X6586016Y-2469387D03*
G01*
X6651015Y-2469387D03*
G01*
X6195999Y-1896236D03*
G01*
X6260998Y-1896236D03*
G01*
X6325997Y-1896236D03*
G01*
X6391021Y-1896236D03*
G01*
X6456019Y-1896236D03*
G01*
X6521018Y-1896236D03*
G01*
X6586016Y-1896236D03*
G01*
X6651015Y-1896236D03*
D106*
G01*
X134015Y4760079D03*
G01*
X199014Y4760079D03*
G01*
X264012Y4760079D03*
G01*
X329011Y4760079D03*
G01*
X394009Y4760079D03*
D107*
G01*
X-93497Y5027599D03*
G01*
X621512Y5027599D03*
D108*
G01*
X506501Y4754600D03*
G01*
X21513Y4754600D03*
D110*
G01*
X-687075Y-1020295D03*
G01*
X-687075Y-1240294D03*
G01*
X-512069Y-1240294D03*
G01*
X-512074Y-1020295D03*
D111*
G01*
X7966609Y-5700732D03*
G01*
X6876611Y-5700732D03*
D70*
G01*
X6502052Y-5546143D03*
G01*
X6502753Y-5706043D03*
G01*
X6163386Y-5546143D03*
G01*
X6164087Y-5706043D03*
G01*
X5824717Y-5546143D03*
G01*
X5825418Y-5706043D03*
D105*
G01*
X620699Y-2659862D03*
G01*
X685698Y-2659862D03*
G01*
X750697Y-2659862D03*
G01*
X815721Y-2659862D03*
G01*
X880719Y-2659862D03*
G01*
X945718Y-2659862D03*
G01*
X1010716Y-2659862D03*
G01*
X1075715Y-2659862D03*
G01*
X620699Y-2086711D03*
G01*
X685698Y-2086711D03*
G01*
X750697Y-2086711D03*
G01*
X815721Y-2086711D03*
G01*
X880719Y-2086711D03*
G01*
X945718Y-2086711D03*
G01*
X1010716Y-2086711D03*
G01*
X1075715Y-2086711D03*
D112*
G01*
X-1343355Y-2844292D03*
G01*
X-1343355Y-2909290D03*
G01*
X-1343355Y-2974289D03*
G01*
X-1343355Y-3039313D03*
G01*
X-1343355Y-3104311D03*
G01*
X-1343355Y-3169310D03*
G01*
X-1343355Y-3234309D03*
G01*
X-1343355Y-3299307D03*
G01*
X-770204Y-2844292D03*
G01*
X-770204Y-2909290D03*
G01*
X-770204Y-2974289D03*
G01*
X-770204Y-3039313D03*
G01*
X-770204Y-3104311D03*
G01*
X-770204Y-3169310D03*
G01*
X-770204Y-3234309D03*
G01*
X-770204Y-3299307D03*
D113*
G01*
X393865Y-5397487D03*
D114*
G01*
X271373Y-5397487D03*
D115*
G01*
X838365Y-5816587D03*
D116*
G01*
X715873Y-5816587D03*
D113*
G01*
X838365Y-5549887D03*
D114*
G01*
X715873Y-5549887D03*
D113*
G01*
X393865Y-5143487D03*
D114*
G01*
X271373Y-5143487D03*
D20*
G01*
X10385022Y-3711249D03*
D21*
G01*
X10234372Y-3711249D03*
D34*
G01*
X10831272Y-4583104D03*
D35*
G01*
X10981922Y-4583104D03*
D20*
G01*
X10410422Y-4193849D03*
D21*
G01*
X10259772Y-4193849D03*
D34*
G01*
X-3123324Y-5943600D03*
D35*
G01*
X-2972675Y-5943600D03*
D34*
G01*
X-3110624Y-6705600D03*
D35*
G01*
X-2959975Y-6705600D03*
D34*
G01*
X-3123324Y-6451600D03*
D35*
G01*
X-2972675Y-6451600D03*
D34*
G01*
X10450272Y-2074362D03*
D35*
G01*
X10600922Y-2074362D03*
D34*
G01*
X10450272Y-2326949D03*
D35*
G01*
X10600922Y-2326949D03*
D98*
G01*
X4814897Y-6515099D03*
D99*
G01*
X5014902Y-6515099D03*
D97*
G01*
X4991100Y-7278700D03*
G01*
X4991100Y-7478699D03*
D98*
G01*
X4256097Y-6261099D03*
D99*
G01*
X4456102Y-6261099D03*
D97*
G01*
X4394200Y-7278700D03*
G01*
X4394200Y-7478699D03*
D117*
G01*
X3949700Y-6953399D03*
G01*
X3949700Y-6813400D03*
D15*
G01*
X8661501Y-5954699D03*
G01*
X9011513Y-5954699D03*
D118*
G01*
X7087336Y-7000875D03*
G01*
X6587337Y-7000875D03*
D97*
G01*
X5041900Y-8167700D03*
G01*
X5041900Y-8367699D03*
D98*
G01*
X4306897Y-8813799D03*
D99*
G01*
X4506902Y-8813799D03*
D88*
G01*
X-866495Y-1032789D03*
G01*
X-866495Y-1141806D03*
D84*
G01*
X-345790Y-1230711D03*
D85*
G01*
X-345790Y-1121699D03*
D98*
G01*
X3872405Y-3821089D03*
D99*
G01*
X4072409Y-3821089D03*
D119*
G01*
X9321012Y-6830999D03*
G01*
X7971002Y-6830999D03*
D27*
G01*
X4217807Y-4113189D03*
G01*
X3777808Y-4113189D03*
D13*
G01*
X2232507Y3138500D03*
D11*
G01*
X2232507Y3392500D03*
G01*
X2232507Y3646500D03*
G01*
X2232507Y3900500D03*
D13*
G01*
X1711807Y3138500D03*
D11*
G01*
X1711807Y3392500D03*
G01*
X1711807Y3646500D03*
G01*
X1711807Y3900500D03*
D13*
G01*
X5801207Y3151200D03*
D11*
G01*
X5801207Y3405200D03*
G01*
X5801207Y3659200D03*
G01*
X5801207Y3913200D03*
D13*
G01*
X6309207Y3151200D03*
D11*
G01*
X6309207Y3405200D03*
G01*
X6309207Y3659200D03*
G01*
X6309207Y3913200D03*
D120*
G01*
X-2961779Y-1281094D03*
D11*
G01*
X-2961792Y-1535099D03*
G01*
X-3215792Y-1281099D03*
G01*
X-3215792Y-1535099D03*
G01*
X-3469792Y-1281099D03*
G01*
X-3469792Y-1535099D03*
D120*
G01*
X5013805Y2351097D03*
D11*
G01*
X5013807Y2097100D03*
G01*
X4759807Y2351100D03*
G01*
X4759807Y2097100D03*
G01*
X4505807Y2351100D03*
G01*
X4505807Y2097100D03*
D121*
G01*
X949812Y357202D03*
D11*
G01*
X949807Y103200D03*
G01*
X949807Y-150799D03*
G01*
X949807Y-404799D03*
D121*
G01*
X1470512Y357202D03*
D11*
G01*
X1470507Y103200D03*
G01*
X1470507Y-150799D03*
G01*
X1470507Y-404799D03*
D122*
G01*
X73498Y-4621204D03*
D123*
G01*
X327482Y-4621225D03*
G01*
X581482Y-4621225D03*
G01*
X835482Y-4621225D03*
G01*
X1089482Y-4621225D03*
G01*
X1343482Y-4621225D03*
G01*
X1597482Y-4621225D03*
G01*
X1851482Y-4621225D03*
D122*
G01*
X73498Y-4367204D03*
D123*
G01*
X327482Y-4367225D03*
G01*
X581482Y-4367225D03*
G01*
X835482Y-4367225D03*
G01*
X1089482Y-4367225D03*
G01*
X1343482Y-4367225D03*
G01*
X1597482Y-4367225D03*
G01*
X1851482Y-4367225D03*
D24*
G01*
X3883507Y-4595789D03*
D19*
G01*
X4137507Y-4595799D03*
D25*
G01*
X3629507Y-4595799D03*
G01*
X3375507Y-4595799D03*
D124*
G01*
X3121507Y-4595789D03*
D25*
G01*
X2359507Y-4595799D03*
G01*
X2613507Y-4595799D03*
D125*
G01*
X2867510Y-4595789D03*
D13*
G01*
X3756507Y-430199D03*
D11*
G01*
X3756507Y-176199D03*
G01*
X3756507Y77800D03*
G01*
X3756507Y331800D03*
D27*
G01*
X4645505Y-4595789D03*
D19*
G01*
X4391507Y-4595799D03*
D27*
G01*
X5153505Y-4595789D03*
D19*
G01*
X4899507Y-4595799D03*
D13*
G01*
X-3444366Y-6705574D03*
D11*
G01*
X-3698366Y-6705574D03*
G01*
X-3444366Y-6451574D03*
G01*
X-3698366Y-6451574D03*
G01*
X-3444366Y-6197574D03*
G01*
X-3698366Y-6197574D03*
G01*
X-3444366Y-5943574D03*
G01*
X-3698366Y-5943574D03*
D126*
G01*
X5816598Y-6674606D03*
G01*
X5816598Y-7244608D03*
D127*
G01*
X-409066Y1036802D03*
G01*
X-409066Y896797D03*
D128*
G01*
X9535007Y-3469462D03*
G01*
X9789033Y-3470452D03*
D129*
G01*
X9281010Y-3469454D03*
D128*
G01*
X9535007Y-4257852D03*
G01*
X9280982Y-4256862D03*
D130*
G01*
X9789010Y-4257845D03*
D63*
G01*
X10846597Y-3717853D03*
G01*
X10846597Y-3907845D03*
G01*
X11093597Y-3812849D03*
G01*
X10770397Y-4234108D03*
G01*
X10770397Y-4424100D03*
G01*
X11017397Y-4329104D03*
D32*
G01*
X4527704Y-3903385D03*
G01*
X4527704Y-3713393D03*
G01*
X4280705Y-3808389D03*
D63*
G01*
X153212Y-2710096D03*
G01*
X153212Y-2900088D03*
G01*
X400212Y-2805092D03*
D34*
G01*
X2385785Y4344992D03*
D35*
G01*
X2536435Y4344992D03*
D48*
G01*
X-1602892Y3518611D03*
G01*
X-1602892Y3367963D03*
D57*
G01*
X6832600Y3518775D03*
D58*
G01*
X6832600Y3669424D03*
D34*
G01*
X1153887Y3646495D03*
D35*
G01*
X1304537Y3646495D03*
D48*
G01*
X6819900Y4063136D03*
G01*
X6819900Y3912463D03*
D34*
G01*
X1153887Y3887795D03*
D35*
G01*
X1304537Y3887795D03*
D34*
G01*
X4623675Y-7251700D03*
D35*
G01*
X4774324Y-7251700D03*
D20*
G01*
X-1108477Y3519495D03*
D21*
G01*
X-1259127Y3519495D03*
D48*
G01*
X-1767992Y3518611D03*
G01*
X-1767992Y3367963D03*
G01*
X-2326792Y4115511D03*
G01*
X-2326792Y3964863D03*
D57*
G01*
X6502400Y-5358524D03*
D58*
G01*
X6502400Y-5207875D03*
D57*
G01*
X6163734Y-5358524D03*
D58*
G01*
X6163734Y-5207875D03*
D57*
G01*
X5825065Y-5358524D03*
D58*
G01*
X5825065Y-5207875D03*
D20*
G01*
X2231635Y-150797D03*
D21*
G01*
X2080985Y-150797D03*
D20*
G01*
X2231635Y-404797D03*
D21*
G01*
X2080985Y-404797D03*
D34*
G01*
X4163780Y-3401992D03*
D35*
G01*
X4314430Y-3401992D03*
D20*
G01*
X4911330Y-3719489D03*
D21*
G01*
X4760680Y-3719489D03*
D34*
G01*
X-217709Y-2906692D03*
D35*
G01*
X-67059Y-2906692D03*
D20*
G01*
X4682730Y-2995592D03*
D21*
G01*
X4532080Y-2995592D03*
D20*
G01*
X4314430Y-2995592D03*
D21*
G01*
X4163780Y-2995592D03*
D16*
G01*
X-3121964Y4941874D03*
G01*
X-3461969Y4941874D03*
D34*
G01*
X-2694204Y4687892D03*
D35*
G01*
X-2543554Y4687892D03*
D20*
G01*
X-2543554Y4878392D03*
D21*
G01*
X-2694204Y4878392D03*
D34*
G01*
X4532080Y-3186092D03*
D35*
G01*
X4682730Y-3186092D03*
D34*
G01*
X4163780Y-3186092D03*
D35*
G01*
X4314430Y-3186092D03*
D131*
G01*
X1764715Y1139494D03*
G01*
X1764715Y1189507D03*
G01*
X1764715Y1239494D03*
G01*
X1764715Y1289507D03*
G01*
X1764715Y1339494D03*
G01*
X1764715Y1389506D03*
G01*
X1764715Y1439494D03*
G01*
X1764715Y1489506D03*
G01*
X1764715Y1539494D03*
G01*
X1764715Y1589506D03*
G01*
X1764715Y1639493D03*
G01*
X1764715Y1689506D03*
G01*
X1764715Y1739493D03*
G01*
X1764715Y1789506D03*
G01*
X1764715Y1839493D03*
G01*
X1764715Y1889506D03*
G01*
X1764715Y1939493D03*
G01*
X1764715Y1989505D03*
G01*
X1764715Y2039493D03*
G01*
X1764715Y2089505D03*
G01*
X1764715Y2139492D03*
G01*
X1764715Y2189505D03*
D132*
G01*
X1455699Y2389505D03*
D131*
G01*
X1764715Y1039495D03*
G01*
X1764715Y1089507D03*
D132*
G01*
X1455699Y839495D03*
D133*
G01*
X8142503Y-7343673D03*
G01*
X7972501Y-7343673D03*
G01*
X7802499Y-7343673D03*
G01*
X7632522Y-7343673D03*
G01*
X7462520Y-7343673D03*
D134*
G01*
X7802499Y-8375650D03*
D135*
G01*
X9913620Y-8186419D03*
G01*
X9271000Y-8186419D03*
D136*
G01*
X9596120Y-7705089D03*
D137*
G01*
X-2862071Y-3440709D03*
G01*
X-2797073Y-3440709D03*
G01*
X-2732074Y-3440709D03*
G01*
X-2667076Y-3440709D03*
G01*
X-2602077Y-3440709D03*
G01*
X-2537053Y-3440709D03*
G01*
X-2472054Y-3440709D03*
G01*
X-2407056Y-3440709D03*
G01*
X-2342057Y-3440709D03*
G01*
X-2277059Y-3440709D03*
G01*
X-2212060Y-3440709D03*
G01*
X-2147061Y-3440709D03*
G01*
X-2862071Y-2728290D03*
G01*
X-2797073Y-2728290D03*
G01*
X-2732074Y-2728290D03*
G01*
X-2667076Y-2728290D03*
G01*
X-2602077Y-2728290D03*
G01*
X-2537053Y-2728290D03*
G01*
X-2472054Y-2728290D03*
G01*
X-2407056Y-2728290D03*
G01*
X-2342057Y-2728290D03*
G01*
X-2277059Y-2728290D03*
G01*
X-2212060Y-2728290D03*
G01*
X-2147061Y-2728290D03*
D112*
G01*
X-1394129Y-5690565D03*
G01*
X-1394129Y-5755563D03*
G01*
X-1394129Y-5820562D03*
G01*
X-1394129Y-5885586D03*
G01*
X-1394129Y-5950584D03*
G01*
X-1394129Y-6015583D03*
G01*
X-1394129Y-6080582D03*
G01*
X-1394129Y-6145580D03*
G01*
X-820978Y-5690565D03*
G01*
X-820978Y-5755563D03*
G01*
X-820978Y-5820562D03*
G01*
X-820978Y-5885586D03*
G01*
X-820978Y-5950584D03*
G01*
X-820978Y-6015583D03*
G01*
X-820978Y-6080582D03*
G01*
X-820978Y-6145580D03*
D138*
G01*
X-1476476Y-6373596D03*
G01*
X-1476476Y-6438595D03*
G01*
X-1476476Y-6503593D03*
G01*
X-1476476Y-6568592D03*
G01*
X-1476476Y-6633590D03*
G01*
X-1476476Y-6698614D03*
G01*
X-1476476Y-6763613D03*
G01*
X-1476476Y-6828612D03*
G01*
X-1476476Y-6893610D03*
G01*
X-1476476Y-6958609D03*
G01*
X-1476476Y-7023608D03*
G01*
X-1476476Y-7088606D03*
G01*
X-764057Y-6373596D03*
G01*
X-764057Y-6438595D03*
G01*
X-764057Y-6503593D03*
G01*
X-764057Y-6568592D03*
G01*
X-764057Y-6633590D03*
G01*
X-764057Y-6698614D03*
G01*
X-764057Y-6763613D03*
G01*
X-764057Y-6828612D03*
G01*
X-764057Y-6893610D03*
G01*
X-764057Y-6958609D03*
G01*
X-764057Y-7023608D03*
G01*
X-764057Y-7088606D03*
D34*
G01*
X10831272Y-3440104D03*
D35*
G01*
X10981922Y-3440104D03*
D34*
G01*
X-3123324Y-6197600D03*
D35*
G01*
X-2972675Y-6197600D03*
D15*
G01*
X-2593492Y-7454874D03*
G01*
X-2593492Y-7708874D03*
G01*
X-2847492Y-7454874D03*
G01*
X-2847492Y-7708874D03*
G01*
X-3101492Y-7454874D03*
G01*
X-3101492Y-7708874D03*
G01*
X-3355492Y-7454874D03*
G01*
X-3355492Y-7708874D03*
G01*
X-3609492Y-7454874D03*
D139*
G01*
X-3609482Y-7708882D03*
D15*
G01*
X-2339492Y-7708874D03*
G01*
X-2339492Y-7454874D03*
G01*
X-2085492Y-7708874D03*
G01*
X-2085492Y-7454874D03*
G01*
X-1831492Y-7708874D03*
G01*
X-1831492Y-7454874D03*
G01*
X-1577492Y-7708874D03*
G01*
X-1577492Y-7454874D03*
G01*
X-1323492Y-7708874D03*
G01*
X-1323492Y-7454874D03*
G01*
X-1069492Y-7708874D03*
G01*
X-1069492Y-7454874D03*
G01*
X-815492Y-7708874D03*
G01*
X-815492Y-7454874D03*
G01*
X-561492Y-7708874D03*
G01*
X-561492Y-7454874D03*
G01*
X-307492Y-7708874D03*
G01*
X-307492Y-7454874D03*
G01*
X-53492Y-7708874D03*
G01*
X-53492Y-7454874D03*
G01*
X200507Y-7708874D03*
G01*
X200507Y-7454874D03*
G01*
X454507Y-7708874D03*
G01*
X454507Y-7454874D03*
G01*
X708507Y-7708874D03*
G01*
X708507Y-7454874D03*
G01*
X962507Y-7708874D03*
G01*
X962507Y-7454874D03*
G01*
X1216507Y-7708874D03*
G01*
X1216507Y-7454874D03*
G01*
X1470507Y-7708874D03*
G01*
X1470507Y-7454874D03*
G01*
X1724507Y-7708874D03*
G01*
X1724507Y-7454874D03*
G01*
X1978507Y-7708874D03*
G01*
X1978507Y-7454874D03*
G01*
X2232507Y-7708874D03*
G01*
X2232507Y-7454874D03*
D140*
G01*
X2372207Y-2133600D03*
G01*
X2118207Y-2133600D03*
G01*
X1864207Y-2133600D03*
G01*
X1610207Y-2133600D03*
D141*
G01*
X1356210Y-2133592D03*
D142*
G01*
X-3609466Y-5610644D03*
D143*
G01*
X-3609466Y-5733148D03*
D142*
G01*
X-3355466Y-5610644D03*
D143*
G01*
X-3355466Y-5733148D03*
D142*
G01*
X-3101466Y-5610644D03*
D143*
G01*
X-3101466Y-5733148D03*
D142*
G01*
X-2847466Y-5610644D03*
D143*
G01*
X-2847466Y-5733148D03*
D142*
G01*
X-2593466Y-5610644D03*
D143*
G01*
X-2593466Y-5733148D03*
D142*
G01*
X-2339466Y-5610644D03*
D143*
G01*
X-2339466Y-5733148D03*
D142*
G01*
X-2085466Y-5610644D03*
D143*
G01*
X-2085466Y-5733148D03*
D142*
G01*
X-1831466Y-5610644D03*
D143*
G01*
X-1831466Y-5733148D03*
D140*
G01*
X2232533Y-5435701D03*
G01*
X1978533Y-5435701D03*
G01*
X1724533Y-5435701D03*
G01*
X1470533Y-5435701D03*
D141*
G01*
X1216533Y-5435701D03*
D57*
G01*
X5979002Y2351972D03*
D58*
G01*
X5979002Y2502622D03*
D34*
G01*
X6170377Y2503497D03*
D35*
G01*
X6321027Y2503497D03*
D34*
G01*
X2617075Y2108200D03*
D35*
G01*
X2767724Y2108200D03*
D88*
G01*
X2765907Y4678908D03*
G01*
X2765907Y4569891D03*
D86*
G01*
X2007616Y4129095D03*
D87*
G01*
X1898604Y4129095D03*
D88*
G01*
X2550007Y1656308D03*
G01*
X2550007Y1547291D03*
D86*
G01*
X-1002296Y3354395D03*
D87*
G01*
X-1111308Y3354395D03*
D84*
G01*
X-739284Y912294D03*
D85*
G01*
X-739284Y1021306D03*
D88*
G01*
X-574192Y945108D03*
G01*
X-574192Y836091D03*
G01*
X2463800Y2200808D03*
G01*
X2463800Y2091791D03*
G01*
X3273907Y1338808D03*
G01*
X3273907Y1229791D03*
D84*
G01*
X3108807Y1737791D03*
D85*
G01*
X3108807Y1846803D03*
D88*
G01*
X2169007Y2177008D03*
G01*
X2169007Y2067991D03*
D84*
G01*
X-396384Y-6352090D03*
D85*
G01*
X-396384Y-6243078D03*
D84*
G01*
X-586884Y-6352090D03*
D85*
G01*
X-586884Y-6243078D03*
D86*
G01*
X-760978Y-5548287D03*
D87*
G01*
X-869990Y-5548287D03*
M02*
