G04 Layer: BottomSolderMaskLayer*
G04 EasyEDA v6.5.42, 2024-02-23 22:21:14*
G04 3aace9d48a714ce2aeec92cc817ea311,70a670f4ca684169977cf979d80dc4ec,10*
G04 Gerber Generator version 0.2*
G04 Scale: 100 percent, Rotated: No, Reflected: No *
G04 Dimensions in millimeters *
G04 leading zeros omitted , absolute positions ,4 integer and 5 decimal *
%FSLAX45Y45*%
%MOMM*%

%AMMACRO1*1,1,$1,$2,$3*1,1,$1,$4,$5*1,1,$1,0-$2,0-$3*1,1,$1,0-$4,0-$5*20,1,$1,$2,$3,$4,$5,0*20,1,$1,$4,$5,0-$2,0-$3,0*20,1,$1,0-$2,0-$3,0-$4,0-$5,0*20,1,$1,0-$4,0-$5,$2,$3,0*4,1,4,$2,$3,$4,$5,0-$2,0-$3,0-$4,0-$5,$2,$3,0*%
%ADD10MACRO1,0.1016X0.85X0.5X-0.85X0.5*%
%ADD11MACRO1,0.2032X0.6X-0.6X0.6X0.6*%
%ADD12MACRO1,0.1016X-0.85X-0.85X0.85X-0.85*%
%ADD13C,1.8016*%
%ADD14MACRO1,0.1016X-0.7874X-0.85X0.7874X-0.85*%
%ADD15R,1.8016X1.8016*%
%ADD16MACRO1,0.1016X0.8X0.8X-0.8X0.8*%
%ADD17C,1.7016*%
%ADD18C,1.6256*%
%ADD19MACRO1,0.1016X0.762X-0.762X0.762X0.762*%
%ADD20MACRO1,0.1016X0.635X1.4X-0.635X1.4*%
%ADD21R,2.1016X2.1016*%
%ADD22C,2.1016*%
%ADD23C,1.4016*%
%ADD24MACRO1,0.1016X-1X1X1X1*%
%ADD25C,1.9016*%
%ADD26R,1.9016X1.6764*%
%ADD27MACRO1,0.1016X0.9X0.7874X0.9X-0.7874*%
%ADD28MACRO1,0.1016X0.9X-0.9X-0.9X-0.9*%
%ADD29MACRO1,0.1016X0.7874X-0.85X-0.7874X-0.85*%
%ADD30MACRO1,0.1016X-0.9X0.9X0.9X0.9*%
%ADD31MACRO1,0.1016X-0.7874X0.85X0.7874X0.85*%
%ADD32C,1.7032*%
%ADD33MACRO1,0.1016X0.85X-0.85X-0.85X-0.85*%
%ADD34MACRO1,0.1016X0.9X0.9X0.9X-0.9*%
%ADD35R,2.7032X2.4032*%
%ADD36O,2.703195X2.4031956000000005*%
%ADD37R,1.9016X1.9016*%
%ADD38R,1.8016X1.6764*%
%ADD39MACRO1,0.1016X0.8X-0.8X-0.8X-0.8*%
%ADD40O,1.2015978000000003X2.0015962000000003*%
%ADD41O,1.3516102X1.5516098000000003*%
%ADD42C,1.7000*%
%ADD43C,2.3000*%
%ADD44MACRO1,0.1016X0.8499X-0.8499X-0.8499X-0.8499*%
%ADD45MACRO1,0.1016X0.85X0.85X0.85X-0.85*%
%ADD46MACRO1,0.1016X-0.75X0.75X0.75X0.75*%
%ADD47C,1.6016*%
%ADD48MACRO1,0.1016X-0.7874X0.9X0.7874X0.9*%
%ADD49MACRO1,0.1016X0.7874X-0.9X-0.7874X-0.9*%
%ADD50MACRO1,0.1016X1X-1X-1X-1*%
%ADD51O,1.9015964X2.7015948*%
%ADD52MACRO1,0.1016X-0.9X1.3X0.9X1.3*%
%ADD53MACRO1,0.1016X0.9X-1.3X-0.9X-1.3*%
%ADD54R,2.6416X4.6736*%
%ADD55MACRO1,0.1016X2.286X-1.27X-2.286X-1.27*%
%ADD56MACRO1,0.1016X-0.8X0.8X0.8X0.8*%
%ADD57C,1.6764*%
%ADD58MACRO1,0.1016X-0.7874X0.7874X0.7874X0.7874*%
%ADD59C,0.0165*%

%LPD*%
D10*
G01*
X9537499Y4998316D03*
G01*
X8877500Y4998321D03*
G01*
X9537499Y4628278D03*
G01*
X8877500Y4628281D03*
D11*
G01*
X4775327Y1841398D03*
G01*
X4622927Y1841398D03*
G01*
X4470527Y1841398D03*
D12*
G01*
X1216512Y-5168887D03*
D13*
G01*
X1470507Y-5168900D03*
G01*
X1724507Y-5168900D03*
G01*
X1978507Y-5168900D03*
G01*
X2232507Y-5168900D03*
G01*
X-1323492Y-5167299D03*
G01*
X-1577492Y-5167299D03*
G01*
X-1831492Y-5167299D03*
G01*
X-2085492Y-5167299D03*
G01*
X-2339492Y-5167299D03*
G01*
X-2593492Y-5167299D03*
G01*
X-2847492Y-5167299D03*
G01*
X-3101492Y-5167299D03*
G01*
X-3355492Y-5167299D03*
D14*
G01*
X-3609502Y-5167304D03*
D15*
G01*
X8798407Y467055D03*
D13*
G01*
X8798407Y213055D03*
G01*
X8798407Y-40944D03*
G01*
X8798407Y-294944D03*
D16*
G01*
X9280997Y-9345604D03*
D17*
G01*
X9027007Y-9345599D03*
G01*
X8773007Y-9345599D03*
G01*
X8519007Y-9345599D03*
G01*
X8265007Y-9345599D03*
G01*
X8011007Y-9345599D03*
G01*
X7757007Y-9345599D03*
G01*
X7503007Y-9345599D03*
G01*
X7249007Y-9345599D03*
G01*
X6995007Y-9345599D03*
G01*
X6741007Y-9345599D03*
D18*
G01*
X11084407Y467055D03*
G01*
X11084407Y213055D03*
G01*
X11084407Y-40944D03*
G01*
X11084407Y-294944D03*
G01*
X11084407Y-548944D03*
G01*
X11084407Y-802944D03*
G01*
X11084407Y-1056944D03*
G01*
X11084407Y-1310944D03*
G01*
X11084407Y-1564944D03*
G01*
X11084407Y-1818944D03*
G01*
X11084407Y-2072944D03*
D19*
G01*
X11084397Y-2326949D03*
D20*
G01*
X-1473200Y2388184D03*
G01*
X-1473200Y1828190D03*
G01*
X-1219200Y2388184D03*
G01*
X-1219200Y1828190D03*
G01*
X-965200Y2388184D03*
G01*
X-965200Y1828190D03*
G01*
X-711200Y2388184D03*
G01*
X-711200Y1828190D03*
G01*
X-457200Y2388184D03*
G01*
X-457200Y1828190D03*
D21*
G01*
X5588000Y2425700D03*
D22*
G01*
X5588000Y2679700D03*
D23*
G01*
X7948295Y-2815335D03*
G01*
X7698105Y-2715513D03*
G01*
X7948295Y-2415539D03*
G01*
X7698105Y-2515361D03*
G01*
X7948295Y-2615437D03*
G01*
X7698105Y-2315463D03*
D24*
G01*
X9017000Y3175000D03*
D22*
G01*
X9271000Y3175000D03*
D25*
G01*
X12319000Y2159000D03*
G01*
X12319000Y1905000D03*
D26*
G01*
X12319000Y1651000D03*
D25*
G01*
X12319000Y2921000D03*
G01*
X12319000Y2667000D03*
D26*
G01*
X12319000Y2413000D03*
D24*
G01*
X9017000Y3429000D03*
D22*
G01*
X9271000Y3429000D03*
D25*
G01*
X12319000Y3683000D03*
G01*
X12319000Y3429000D03*
D26*
G01*
X12319000Y3175000D03*
D24*
G01*
X9017000Y3683000D03*
D22*
G01*
X9271000Y3683000D03*
D25*
G01*
X12319000Y4445000D03*
G01*
X12319000Y4191000D03*
D26*
G01*
X12319000Y3937000D03*
D24*
G01*
X9017000Y3937000D03*
D22*
G01*
X9271000Y3937000D03*
D15*
G01*
X8813800Y1993900D03*
D13*
G01*
X8813800Y2247900D03*
G01*
X8813800Y2501900D03*
G01*
X8813800Y2755900D03*
D24*
G01*
X9969500Y2476500D03*
D22*
G01*
X10223500Y2476500D03*
D25*
G01*
X9842500Y4635500D03*
G01*
X9842500Y4889500D03*
D27*
G01*
X9842500Y5143500D03*
D23*
G01*
X9338564Y1703705D03*
G01*
X9438386Y1953895D03*
G01*
X9738360Y1703705D03*
G01*
X9638538Y1953895D03*
G01*
X9538462Y1703705D03*
G01*
X9838436Y1953895D03*
G01*
X11040364Y1703705D03*
G01*
X11140186Y1953895D03*
G01*
X11440160Y1703705D03*
G01*
X11340338Y1953895D03*
G01*
X11240262Y1703705D03*
G01*
X11540236Y1953895D03*
D25*
G01*
X6296533Y4675276D03*
G01*
X6296533Y4929276D03*
G01*
X6550533Y4675276D03*
G01*
X6550533Y4929276D03*
G01*
X6804533Y4675276D03*
D28*
G01*
X6804533Y4929276D03*
D29*
G01*
X-53512Y2922595D03*
D13*
G01*
X-307492Y2922600D03*
G01*
X-561492Y2922600D03*
G01*
X-815492Y2922600D03*
G01*
X-1069492Y2922600D03*
G01*
X-1323492Y2922600D03*
G01*
X-1577492Y2922600D03*
G01*
X-1831492Y2922600D03*
G01*
X-2085492Y2922600D03*
G01*
X-2339492Y2922600D03*
D30*
G01*
X-3457102Y-2132004D03*
D25*
G01*
X-3203092Y-2131999D03*
G01*
X-2949092Y-2131999D03*
G01*
X-2695092Y-2131999D03*
G01*
X-2441092Y-2131999D03*
G01*
X-2187092Y-2131999D03*
G01*
X-1933092Y-2131999D03*
G01*
X-1679092Y-2131999D03*
G01*
X-1425092Y-2131999D03*
G01*
X-1171092Y-2131999D03*
D13*
G01*
X-1323492Y-5421299D03*
G01*
X-1577492Y-5421299D03*
G01*
X-1831492Y-5421299D03*
G01*
X-2085492Y-5421299D03*
G01*
X-2339492Y-5421299D03*
G01*
X-2593492Y-5421299D03*
G01*
X-2847492Y-5421299D03*
G01*
X-3101492Y-5421299D03*
G01*
X-3355492Y-5421299D03*
D31*
G01*
X-3609502Y-5421304D03*
D32*
G01*
X-472592Y4548200D03*
D33*
G01*
X8214197Y-1560504D03*
D13*
G01*
X7960207Y-1560499D03*
G01*
X7706207Y-1560499D03*
G01*
X7452207Y-1560499D03*
D25*
G01*
X5420207Y-3846499D03*
G01*
X5674207Y-3846499D03*
G01*
X5928207Y-3846499D03*
G01*
X6182207Y-3846499D03*
G01*
X6436207Y-3846499D03*
G01*
X6690207Y-3846499D03*
G01*
X6944207Y-3846499D03*
G01*
X7198207Y-3846499D03*
G01*
X7452207Y-3846499D03*
G01*
X7706207Y-3846499D03*
G01*
X7960207Y-3846499D03*
G01*
X8214207Y-3846499D03*
G01*
X11694007Y-2072944D03*
G01*
X11440007Y-2072944D03*
G01*
X11694007Y-1818944D03*
G01*
X11440007Y-1818944D03*
G01*
X11694007Y-1564944D03*
G01*
X11440007Y-1564944D03*
G01*
X11694007Y-1310944D03*
G01*
X11440007Y-1310944D03*
G01*
X11694007Y-1056944D03*
G01*
X11440007Y-1056944D03*
G01*
X11694007Y-802944D03*
G01*
X11440007Y-802944D03*
G01*
X11694007Y-548944D03*
G01*
X11440007Y-548944D03*
G01*
X11694007Y-294944D03*
G01*
X11440007Y-294944D03*
G01*
X11694007Y-40944D03*
G01*
X11440007Y-40944D03*
G01*
X11694007Y213055D03*
D34*
G01*
X11439997Y213050D03*
D35*
G01*
X11493500Y-4322698D03*
D36*
G01*
X11493500Y-3822700D03*
G01*
X11493500Y-3322701D03*
G01*
X11493500Y-2822701D03*
D25*
G01*
X9496907Y-53644D03*
G01*
X9496907Y200355D03*
D27*
G01*
X9496897Y454350D03*
D37*
G01*
X10055707Y-7313599D03*
D25*
G01*
X10055707Y-7059599D03*
G01*
X10055707Y-6805599D03*
G01*
X10055707Y-6551599D03*
G01*
X10055707Y-6297599D03*
G01*
X10055707Y-6043599D03*
G01*
X10055707Y-5789599D03*
G01*
X10055707Y-5535599D03*
D37*
G01*
X7325207Y-150799D03*
D25*
G01*
X7325207Y103200D03*
G01*
X7325207Y357200D03*
G01*
X7325207Y611200D03*
G01*
X7325207Y865200D03*
G01*
X7325207Y1119200D03*
G01*
X7325207Y1373200D03*
G01*
X7325207Y1627200D03*
G01*
X7325207Y1881200D03*
G01*
X7325207Y2135200D03*
G01*
X7325207Y2389200D03*
D17*
G01*
X8671407Y-8596299D03*
G01*
X8925407Y-8596299D03*
D13*
G01*
X-3444366Y2871876D03*
G01*
X-3444366Y2617876D03*
G01*
X-3444366Y2363876D03*
G01*
X-3444366Y2109876D03*
G01*
X-3444366Y1855876D03*
G01*
X-3444366Y1601876D03*
G01*
X-3444366Y1347876D03*
D38*
G01*
X-3444366Y1093876D03*
D39*
G01*
X-675779Y-4406887D03*
D17*
G01*
X-675766Y-4660900D03*
G01*
X-929766Y-4406900D03*
G01*
X-929766Y-4660900D03*
G01*
X-1183766Y-4406900D03*
G01*
X-1183766Y-4660900D03*
G01*
X-1437766Y-4406900D03*
G01*
X-1437766Y-4660900D03*
G01*
X-1691766Y-4406900D03*
G01*
X-1691766Y-4660900D03*
G01*
X-1945766Y-4406900D03*
G01*
X-1945766Y-4660900D03*
G01*
X-2199766Y-4406900D03*
G01*
X-2199766Y-4660900D03*
G01*
X-2453766Y-4406900D03*
G01*
X-2453766Y-4660900D03*
G01*
X-2707766Y-4406900D03*
G01*
X-2707766Y-4660900D03*
G01*
X-2961766Y-4406900D03*
G01*
X-2961766Y-4660900D03*
G01*
X-3215766Y-4406900D03*
G01*
X-3215766Y-4660900D03*
G01*
X-3469766Y-4406900D03*
G01*
X-3469766Y-4660900D03*
D40*
G01*
X-93497Y5027599D03*
G01*
X621512Y5027599D03*
D41*
G01*
X506501Y4754600D03*
G01*
X21513Y4754600D03*
D17*
G01*
X8661501Y-5954699D03*
G01*
X9011513Y-5954699D03*
D42*
G01*
X7087336Y-7000875D03*
G01*
X6587337Y-7000875D03*
D43*
G01*
X9321012Y-6830999D03*
G01*
X7971002Y-6830999D03*
D15*
G01*
X2232507Y3138500D03*
D13*
G01*
X2232507Y3392500D03*
G01*
X2232507Y3646500D03*
G01*
X2232507Y3900500D03*
D15*
G01*
X1711807Y3138500D03*
D13*
G01*
X1711807Y3392500D03*
G01*
X1711807Y3646500D03*
G01*
X1711807Y3900500D03*
D15*
G01*
X5801207Y3151200D03*
D13*
G01*
X5801207Y3405200D03*
G01*
X5801207Y3659200D03*
G01*
X5801207Y3913200D03*
D15*
G01*
X6309207Y3151200D03*
D13*
G01*
X6309207Y3405200D03*
G01*
X6309207Y3659200D03*
G01*
X6309207Y3913200D03*
D44*
G01*
X-2961779Y-1281094D03*
D13*
G01*
X-2961792Y-1535099D03*
G01*
X-3215792Y-1281099D03*
G01*
X-3215792Y-1535099D03*
G01*
X-3469792Y-1281099D03*
G01*
X-3469792Y-1535099D03*
D44*
G01*
X5013805Y2351097D03*
D13*
G01*
X5013807Y2097100D03*
G01*
X4759807Y2351100D03*
G01*
X4759807Y2097100D03*
G01*
X4505807Y2351100D03*
G01*
X4505807Y2097100D03*
D45*
G01*
X949812Y357202D03*
D13*
G01*
X949807Y103200D03*
G01*
X949807Y-150799D03*
G01*
X949807Y-404799D03*
D45*
G01*
X1470512Y357202D03*
D13*
G01*
X1470507Y103200D03*
G01*
X1470507Y-150799D03*
G01*
X1470507Y-404799D03*
D46*
G01*
X73498Y-4621204D03*
D47*
G01*
X327482Y-4621225D03*
G01*
X581482Y-4621225D03*
G01*
X835482Y-4621225D03*
G01*
X1089482Y-4621225D03*
G01*
X1343482Y-4621225D03*
G01*
X1597482Y-4621225D03*
G01*
X1851482Y-4621225D03*
D46*
G01*
X73498Y-4367204D03*
D47*
G01*
X327482Y-4367225D03*
G01*
X581482Y-4367225D03*
G01*
X835482Y-4367225D03*
G01*
X1089482Y-4367225D03*
G01*
X1343482Y-4367225D03*
G01*
X1597482Y-4367225D03*
G01*
X1851482Y-4367225D03*
D24*
G01*
X3883507Y-4595789D03*
D22*
G01*
X4137507Y-4595799D03*
D25*
G01*
X3629507Y-4595799D03*
G01*
X3375507Y-4595799D03*
D48*
G01*
X3121507Y-4595789D03*
D25*
G01*
X2359507Y-4595799D03*
G01*
X2613507Y-4595799D03*
D49*
G01*
X2867510Y-4595789D03*
D15*
G01*
X3756507Y-430199D03*
D13*
G01*
X3756507Y-176199D03*
G01*
X3756507Y77800D03*
G01*
X3756507Y331800D03*
D50*
G01*
X4645505Y-4595789D03*
D22*
G01*
X4391507Y-4595799D03*
D50*
G01*
X5153505Y-4595789D03*
D22*
G01*
X4899507Y-4595799D03*
D15*
G01*
X-3444366Y-6705574D03*
D13*
G01*
X-3698366Y-6705574D03*
G01*
X-3444366Y-6451574D03*
G01*
X-3698366Y-6451574D03*
G01*
X-3444366Y-6197574D03*
G01*
X-3698366Y-6197574D03*
G01*
X-3444366Y-5943574D03*
G01*
X-3698366Y-5943574D03*
D51*
G01*
X9535007Y-3469462D03*
G01*
X9789033Y-3470452D03*
D52*
G01*
X9281010Y-3469454D03*
D51*
G01*
X9535007Y-4257852D03*
G01*
X9280982Y-4256862D03*
D53*
G01*
X9789010Y-4257845D03*
D18*
G01*
X-3121964Y4941874D03*
G01*
X-3461969Y4941874D03*
D54*
G01*
X9913620Y-8186419D03*
G01*
X9271000Y-8186419D03*
D55*
G01*
X9596120Y-7705089D03*
D17*
G01*
X-2593492Y-7454874D03*
G01*
X-2593492Y-7708874D03*
G01*
X-2847492Y-7454874D03*
G01*
X-2847492Y-7708874D03*
G01*
X-3101492Y-7454874D03*
G01*
X-3101492Y-7708874D03*
G01*
X-3355492Y-7454874D03*
G01*
X-3355492Y-7708874D03*
G01*
X-3609492Y-7454874D03*
D56*
G01*
X-3609482Y-7708882D03*
D17*
G01*
X-2339492Y-7708874D03*
G01*
X-2339492Y-7454874D03*
G01*
X-2085492Y-7708874D03*
G01*
X-2085492Y-7454874D03*
G01*
X-1831492Y-7708874D03*
G01*
X-1831492Y-7454874D03*
G01*
X-1577492Y-7708874D03*
G01*
X-1577492Y-7454874D03*
G01*
X-1323492Y-7708874D03*
G01*
X-1323492Y-7454874D03*
G01*
X-1069492Y-7708874D03*
G01*
X-1069492Y-7454874D03*
G01*
X-815492Y-7708874D03*
G01*
X-815492Y-7454874D03*
G01*
X-561492Y-7708874D03*
G01*
X-561492Y-7454874D03*
G01*
X-307492Y-7708874D03*
G01*
X-307492Y-7454874D03*
G01*
X-53492Y-7708874D03*
G01*
X-53492Y-7454874D03*
G01*
X200507Y-7708874D03*
G01*
X200507Y-7454874D03*
G01*
X454507Y-7708874D03*
G01*
X454507Y-7454874D03*
G01*
X708507Y-7708874D03*
G01*
X708507Y-7454874D03*
G01*
X962507Y-7708874D03*
G01*
X962507Y-7454874D03*
G01*
X1216507Y-7708874D03*
G01*
X1216507Y-7454874D03*
G01*
X1470507Y-7708874D03*
G01*
X1470507Y-7454874D03*
G01*
X1724507Y-7708874D03*
G01*
X1724507Y-7454874D03*
G01*
X1978507Y-7708874D03*
G01*
X1978507Y-7454874D03*
G01*
X2232507Y-7708874D03*
G01*
X2232507Y-7454874D03*
D57*
G01*
X2372207Y-2133600D03*
G01*
X2118207Y-2133600D03*
G01*
X1864207Y-2133600D03*
G01*
X1610207Y-2133600D03*
D58*
G01*
X1356210Y-2133592D03*
D57*
G01*
X2232533Y-5435701D03*
G01*
X1978533Y-5435701D03*
G01*
X1724533Y-5435701D03*
G01*
X1470533Y-5435701D03*
D58*
G01*
X1216533Y-5435701D03*
M02*
