G04 Layer: BottomLayer*
G04 EasyEDA v6.5.42, 2024-02-23 22:21:14*
G04 3aace9d48a714ce2aeec92cc817ea311,70a670f4ca684169977cf979d80dc4ec,10*
G04 Gerber Generator version 0.2*
G04 Scale: 100 percent, Rotated: No, Reflected: No *
G04 Dimensions in millimeters *
G04 leading zeros omitted , absolute positions ,4 integer and 5 decimal *
%FSLAX45Y45*%
%MOMM*%

%AMMACRO1*21,1,$1,$2,0,0,$3*%
%ADD10C,0.2540*%
%ADD11C,0.3000*%
%ADD12C,0.5000*%
%ADD13C,2.0000*%
%ADD14C,1.0000*%
%ADD15C,1.5000*%
%ADD16MACRO1,1.7X1X0.0000*%
%ADD17MACRO1,1.2X1.2X90.0000*%
%ADD18MACRO1,1.27X2.8X0.0000*%
%ADD19MACRO1,1.7X1.7X0.0000*%
%ADD20C,1.7000*%
%ADD21MACRO1,1.5748X1.7X0.0000*%
%ADD22MACRO1,1.7X1.7X-90.0000*%
%ADD23MACRO1,1.6X1.6X0.0000*%
%ADD24C,1.6000*%
%ADD25C,1.5240*%
%ADD26MACRO1,1.524X1.524X90.0000*%
%ADD27R,2.0000X2.0000*%
%ADD28C,1.3000*%
%ADD29C,1.8000*%
%ADD30R,1.8000X1.5748*%
%ADD31R,1.7000X1.7000*%
%ADD32R,1.8000X1.8000*%
%ADD33R,1.5748X1.7000*%
%ADD34R,2.5000X2.2000*%
%ADD35O,2.4999949999999997X2.1999956000000003*%
%ADD36R,1.7000X1.5748*%
%ADD37R,1.6000X1.6000*%
%ADD38O,1.0999978000000001X1.8999962*%
%ADD39O,1.2500102X1.4500098000000001*%
%ADD40C,2.2000*%
%ADD41R,1.5000X1.5000*%
%ADD42R,1.5748X1.8000*%
%ADD43O,1.7999964X2.5999948*%
%ADD44R,1.8000X2.6000*%
%ADD45R,2.5400X4.5720*%
%ADD46R,4.5720X2.5400*%
%ADD47C,1.5748*%
%ADD48R,1.5748X1.5748*%
%ADD49C,0.5000*%
%ADD50C,0.6096*%
%ADD51C,0.6100*%
%ADD52C,0.6200*%
%ADD53C,0.0179*%

%LPD*%
G36*
X2925876Y4320184D02*
G01*
X2921965Y4320946D01*
X2918663Y4323181D01*
X2913938Y4327855D01*
X2911906Y4330750D01*
X2911043Y4334154D01*
X2910332Y4342079D01*
X2907792Y4351578D01*
X2903626Y4360468D01*
X2897987Y4368546D01*
X2891078Y4375454D01*
X2883001Y4381093D01*
X2874111Y4385259D01*
X2860497Y4388866D01*
X2857500Y4391101D01*
X2855518Y4394301D01*
X2854807Y4397959D01*
X2854807Y4410506D01*
X2855620Y4414418D01*
X2857804Y4417720D01*
X2861106Y4419904D01*
X2864967Y4420666D01*
X4625949Y4420666D01*
X4629861Y4419904D01*
X4633163Y4417720D01*
X4634687Y4416145D01*
X4642764Y4410506D01*
X4651654Y4406341D01*
X4661154Y4403801D01*
X4670958Y4402937D01*
X4680712Y4403801D01*
X4690211Y4406341D01*
X4699101Y4410506D01*
X4707178Y4416145D01*
X4714087Y4423054D01*
X4719726Y4431131D01*
X4723892Y4440021D01*
X4726432Y4449521D01*
X4727295Y4459274D01*
X4726432Y4469079D01*
X4723892Y4478578D01*
X4719726Y4487468D01*
X4714087Y4495546D01*
X4707178Y4502454D01*
X4699101Y4508093D01*
X4690211Y4512259D01*
X4680712Y4514799D01*
X4670958Y4515662D01*
X4661154Y4514799D01*
X4651654Y4512259D01*
X4642764Y4508093D01*
X4634687Y4502454D01*
X4633112Y4500880D01*
X4629810Y4498695D01*
X4625949Y4497882D01*
X2864967Y4497882D01*
X2861106Y4498695D01*
X2857804Y4500880D01*
X2855620Y4504182D01*
X2854807Y4508042D01*
X2854807Y4703114D01*
X2855620Y4707026D01*
X2857804Y4710328D01*
X2861106Y4712512D01*
X2864967Y4713274D01*
X2966516Y4713274D01*
X2970377Y4712512D01*
X2973679Y4710328D01*
X2977743Y4706264D01*
X2980639Y4703775D01*
X2987090Y4700219D01*
X2992475Y4698695D01*
X2996742Y4698390D01*
X5011928Y4698390D01*
X5015839Y4698695D01*
X5020056Y4699812D01*
X5023612Y4700168D01*
X5027015Y4699254D01*
X5029911Y4697222D01*
X5036261Y4690872D01*
X5038445Y4687570D01*
X5039207Y4683709D01*
X5039207Y4403852D01*
X5038445Y4399940D01*
X5036261Y4396689D01*
X4962753Y4323181D01*
X4959451Y4320946D01*
X4955540Y4320184D01*
G37*

%LPD*%
G36*
X4207865Y3380384D02*
G01*
X4203954Y3381146D01*
X4200652Y3383381D01*
X4197146Y3386277D01*
X4194251Y3389376D01*
X4192879Y3393440D01*
X4193286Y3397656D01*
X4195368Y3401364D01*
X4198823Y3403854D01*
X4202938Y3404768D01*
X4606950Y3404768D01*
X4614976Y3405530D01*
X4622190Y3407765D01*
X4628896Y3411321D01*
X4635093Y3416401D01*
X4723282Y3504641D01*
X4728413Y3510838D01*
X4731969Y3517493D01*
X4734153Y3524758D01*
X4734966Y3532784D01*
X4734966Y3906316D01*
X4735728Y3910228D01*
X4737963Y3913530D01*
X4739487Y3915054D01*
X4745126Y3923131D01*
X4749292Y3932021D01*
X4751832Y3941521D01*
X4752695Y3951274D01*
X4751832Y3961079D01*
X4749292Y3970578D01*
X4745126Y3979468D01*
X4739487Y3987546D01*
X4732578Y3994454D01*
X4724501Y4000093D01*
X4715611Y4004259D01*
X4706112Y4006799D01*
X4696358Y4007662D01*
X4686554Y4006799D01*
X4677054Y4004259D01*
X4668164Y4000093D01*
X4660087Y3994454D01*
X4653178Y3987546D01*
X4647539Y3979468D01*
X4643374Y3970578D01*
X4640834Y3961079D01*
X4639970Y3951274D01*
X4640834Y3941521D01*
X4643374Y3932021D01*
X4647539Y3923131D01*
X4653178Y3915054D01*
X4654753Y3913479D01*
X4656988Y3910177D01*
X4657750Y3906265D01*
X4657750Y3552494D01*
X4656988Y3548583D01*
X4654753Y3545281D01*
X4642358Y3532886D01*
X4639208Y3530752D01*
X4635500Y3529939D01*
X4631740Y3530549D01*
X4628438Y3532479D01*
X4626102Y3535527D01*
X4625086Y3539185D01*
X4624832Y3541979D01*
X4622292Y3551478D01*
X4618126Y3560368D01*
X4612487Y3568446D01*
X4605578Y3575354D01*
X4597501Y3580993D01*
X4588611Y3585159D01*
X4579112Y3587699D01*
X4569358Y3588562D01*
X4559554Y3587699D01*
X4550054Y3585159D01*
X4541164Y3580993D01*
X4533087Y3575354D01*
X4531614Y3573881D01*
X4528312Y3571646D01*
X4524400Y3570884D01*
X2864967Y3570884D01*
X2861106Y3571646D01*
X2857804Y3573881D01*
X2855620Y3577132D01*
X2854807Y3581044D01*
X2854807Y3933342D01*
X2855315Y3936542D01*
X2856839Y3939438D01*
X2859176Y3941673D01*
X2865678Y3946245D01*
X2872587Y3953154D01*
X2878226Y3961231D01*
X2882392Y3970121D01*
X2884932Y3979621D01*
X2885795Y3989374D01*
X2884932Y3999179D01*
X2882392Y4008678D01*
X2878226Y4017568D01*
X2872587Y4025646D01*
X2871012Y4027220D01*
X2868828Y4030522D01*
X2868066Y4034383D01*
X2868066Y4179417D01*
X2867253Y4187393D01*
X2865069Y4194657D01*
X2861513Y4201312D01*
X2857144Y4206646D01*
X2855417Y4209643D01*
X2854807Y4213098D01*
X2854807Y4253280D01*
X2855620Y4257192D01*
X2857804Y4260443D01*
X2861106Y4262678D01*
X2864967Y4263440D01*
X2868879Y4262678D01*
X2872181Y4260443D01*
X2878023Y4254652D01*
X2884220Y4249521D01*
X2890926Y4245965D01*
X2898140Y4243781D01*
X2906166Y4242968D01*
X4975250Y4242968D01*
X4983276Y4243781D01*
X4990490Y4245965D01*
X4997196Y4249521D01*
X5003393Y4254652D01*
X5021884Y4273092D01*
X5025186Y4275277D01*
X5029047Y4276090D01*
X5032959Y4275277D01*
X5036261Y4273092D01*
X5038445Y4269790D01*
X5039207Y4265930D01*
X5039207Y4251452D01*
X5038445Y4247540D01*
X5036261Y4244289D01*
X5018328Y4226306D01*
X5015433Y4224324D01*
X5012029Y4223410D01*
X5004054Y4222699D01*
X4994554Y4220159D01*
X4985664Y4215993D01*
X4977587Y4210354D01*
X4970678Y4203446D01*
X4965039Y4195368D01*
X4960874Y4186478D01*
X4958334Y4176979D01*
X4957470Y4167174D01*
X4958334Y4157421D01*
X4960874Y4147921D01*
X4965039Y4139031D01*
X4970678Y4130954D01*
X4977587Y4124045D01*
X4985664Y4118406D01*
X4994554Y4114241D01*
X5004054Y4111701D01*
X5013858Y4110837D01*
X5023612Y4111701D01*
X5026456Y4112463D01*
X5030114Y4112768D01*
X5033670Y4111701D01*
X5036616Y4109465D01*
X5038547Y4106265D01*
X5039207Y4102658D01*
X5039207Y3888841D01*
X5038547Y3885234D01*
X5036616Y3882034D01*
X5033670Y3879799D01*
X5030114Y3878732D01*
X5026456Y3879037D01*
X5023612Y3879799D01*
X5013858Y3880662D01*
X5004054Y3879799D01*
X4994554Y3877259D01*
X4985664Y3873093D01*
X4977587Y3867454D01*
X4970678Y3860546D01*
X4965039Y3852468D01*
X4960874Y3843578D01*
X4958334Y3834079D01*
X4957470Y3824274D01*
X4958334Y3814521D01*
X4960874Y3805021D01*
X4965039Y3796131D01*
X4970678Y3788054D01*
X4977587Y3781145D01*
X4985664Y3775506D01*
X4994554Y3771341D01*
X5004054Y3768801D01*
X5013858Y3767937D01*
X5023612Y3768801D01*
X5026456Y3769563D01*
X5030114Y3769868D01*
X5033670Y3768801D01*
X5036616Y3766565D01*
X5038547Y3763365D01*
X5039207Y3759758D01*
X5039207Y3396234D01*
X5038445Y3392322D01*
X5036261Y3389071D01*
X5030571Y3383381D01*
X5027269Y3381146D01*
X5023358Y3380384D01*
G37*

%LPD*%
G36*
X-853389Y-330200D02*
G01*
X-857300Y-329438D01*
X-860602Y-327202D01*
X-862787Y-323951D01*
X-863549Y-320040D01*
X-863549Y269240D01*
X-862787Y273151D01*
X-860602Y276402D01*
X-857300Y278638D01*
X-853389Y279400D01*
X-302209Y279400D01*
X-298348Y278638D01*
X-295046Y276402D01*
X-292862Y273151D01*
X-292049Y269240D01*
X-292049Y-220573D01*
X-292862Y-224485D01*
X-295046Y-227787D01*
X-357124Y-289864D01*
X-362254Y-296062D01*
X-365810Y-302768D01*
X-367995Y-309981D01*
X-368757Y-318008D01*
X-368757Y-320040D01*
X-369570Y-323951D01*
X-371754Y-327202D01*
X-375056Y-329438D01*
X-378917Y-330200D01*
G37*

%LPD*%
G36*
X4217924Y-6958025D02*
G01*
X4214063Y-6957212D01*
X4210761Y-6955028D01*
X4204004Y-6948271D01*
X4201820Y-6944969D01*
X4201007Y-6941108D01*
X4201007Y-6510985D01*
X4201820Y-6507073D01*
X4204004Y-6503771D01*
X4207306Y-6501587D01*
X4211167Y-6500825D01*
X5016347Y-6500825D01*
X5020259Y-6501587D01*
X5023561Y-6503771D01*
X5025745Y-6507073D01*
X5026507Y-6510985D01*
X5026507Y-6947865D01*
X5025745Y-6951725D01*
X5023561Y-6955028D01*
X5020259Y-6957212D01*
X5016347Y-6958025D01*
G37*

%LPD*%
G36*
X2453284Y-8038592D02*
G01*
X-3789324Y-8037017D01*
X-3793185Y-8036255D01*
X-3796487Y-8034020D01*
X-3798671Y-8030718D01*
X-3799484Y-8026857D01*
X-3799433Y-6785305D01*
X-3798620Y-6781241D01*
X-3796182Y-6777888D01*
X-3792626Y-6775754D01*
X-3788511Y-6775196D01*
X-3784549Y-6776364D01*
X-3770223Y-6790029D01*
X-3758844Y-6798513D01*
X-3747211Y-6805066D01*
X-3747211Y-6754418D01*
X-3789273Y-6754418D01*
X-3793185Y-6753656D01*
X-3796487Y-6751472D01*
X-3798671Y-6748170D01*
X-3799433Y-6744258D01*
X-3799433Y-6666890D01*
X-3798671Y-6663029D01*
X-3796487Y-6659727D01*
X-3793185Y-6657492D01*
X-3789273Y-6656730D01*
X-3747211Y-6656730D01*
X-3747211Y-6606286D01*
X-3752748Y-6608978D01*
X-3764686Y-6616700D01*
X-3775506Y-6625945D01*
X-3781755Y-6632854D01*
X-3785006Y-6635242D01*
X-3788968Y-6636156D01*
X-3792931Y-6635496D01*
X-3796385Y-6633311D01*
X-3798671Y-6629958D01*
X-3799433Y-6625996D01*
X-3799433Y-6531305D01*
X-3798620Y-6527241D01*
X-3796182Y-6523888D01*
X-3792626Y-6521754D01*
X-3788511Y-6521196D01*
X-3784549Y-6522364D01*
X-3770223Y-6536029D01*
X-3758844Y-6544513D01*
X-3747211Y-6551066D01*
X-3747211Y-6500418D01*
X-3789273Y-6500418D01*
X-3793185Y-6499656D01*
X-3796487Y-6497472D01*
X-3798671Y-6494170D01*
X-3799433Y-6490258D01*
X-3799433Y-6412890D01*
X-3798671Y-6409029D01*
X-3796487Y-6405727D01*
X-3793185Y-6403492D01*
X-3789273Y-6402730D01*
X-3747211Y-6402730D01*
X-3747211Y-6352286D01*
X-3752748Y-6354978D01*
X-3764686Y-6362700D01*
X-3775506Y-6371945D01*
X-3781755Y-6378854D01*
X-3785006Y-6381242D01*
X-3788968Y-6382156D01*
X-3792931Y-6381496D01*
X-3796334Y-6379311D01*
X-3798620Y-6375958D01*
X-3799433Y-6371996D01*
X-3799433Y-6277356D01*
X-3798620Y-6273292D01*
X-3796182Y-6269888D01*
X-3792626Y-6267754D01*
X-3788511Y-6267196D01*
X-3784549Y-6268364D01*
X-3770223Y-6282029D01*
X-3758844Y-6290513D01*
X-3747211Y-6297066D01*
X-3747211Y-6246418D01*
X-3789273Y-6246418D01*
X-3793185Y-6245656D01*
X-3796487Y-6243472D01*
X-3798671Y-6240170D01*
X-3799433Y-6236258D01*
X-3799433Y-6158890D01*
X-3798671Y-6155029D01*
X-3796487Y-6151727D01*
X-3793185Y-6149492D01*
X-3789273Y-6148730D01*
X-3747211Y-6148730D01*
X-3747211Y-6098286D01*
X-3752748Y-6100978D01*
X-3764686Y-6108700D01*
X-3775506Y-6117945D01*
X-3781755Y-6124854D01*
X-3785006Y-6127242D01*
X-3788968Y-6128156D01*
X-3792931Y-6127496D01*
X-3796334Y-6125311D01*
X-3798620Y-6121958D01*
X-3799433Y-6117996D01*
X-3799433Y-6023356D01*
X-3798620Y-6019292D01*
X-3796182Y-6015888D01*
X-3792626Y-6013754D01*
X-3788511Y-6013196D01*
X-3784549Y-6014364D01*
X-3770223Y-6028029D01*
X-3758844Y-6036513D01*
X-3747211Y-6043066D01*
X-3747211Y-5992418D01*
X-3789273Y-5992418D01*
X-3793185Y-5991656D01*
X-3796487Y-5989472D01*
X-3798671Y-5986170D01*
X-3799433Y-5982258D01*
X-3799433Y-5904890D01*
X-3798671Y-5901029D01*
X-3796487Y-5897727D01*
X-3793185Y-5895492D01*
X-3789273Y-5894730D01*
X-3747211Y-5894730D01*
X-3747211Y-5844286D01*
X-3752748Y-5846978D01*
X-3764686Y-5854700D01*
X-3775506Y-5863945D01*
X-3781755Y-5870854D01*
X-3785006Y-5873242D01*
X-3788968Y-5874156D01*
X-3792931Y-5873496D01*
X-3796334Y-5871311D01*
X-3798620Y-5867958D01*
X-3799433Y-5863996D01*
X-3799433Y-5025390D01*
X-3798671Y-5021478D01*
X-3796487Y-5018227D01*
X-3793185Y-5015992D01*
X-3789324Y-5015230D01*
X-216408Y-5004308D01*
X-209905Y-5003495D01*
X-204368Y-5001361D01*
X-199288Y-4997805D01*
X-196291Y-4994859D01*
X-193649Y-4991201D01*
X-191160Y-4985664D01*
X-189890Y-4978806D01*
X-188671Y-4975504D01*
X-186385Y-4972812D01*
X-183337Y-4971034D01*
X-179882Y-4970424D01*
X1497482Y-4970424D01*
X1501343Y-4971186D01*
X1504645Y-4973421D01*
X1506880Y-4976672D01*
X1507642Y-4980584D01*
X1507693Y-4990744D01*
X1508353Y-4995164D01*
X1510487Y-5000853D01*
X1513992Y-5005984D01*
X1517091Y-5009083D01*
X1520647Y-5011724D01*
X1526184Y-5014214D01*
X1533652Y-5015433D01*
X2465730Y-5016957D01*
X2469642Y-5017719D01*
X2472893Y-5019954D01*
X2475128Y-5023256D01*
X2475890Y-5027168D01*
X2463444Y-8028482D01*
X2462682Y-8032343D01*
X2460498Y-8035645D01*
X2457196Y-8037830D01*
G37*

%LPC*%
G36*
X-3519982Y-7976209D02*
G01*
X-2936798Y-7976209D01*
X-2928772Y-7975447D01*
X-2921558Y-7973212D01*
X-2914904Y-7969656D01*
X-2908655Y-7964576D01*
X-2854502Y-7910423D01*
X-2851200Y-7908188D01*
X-2847340Y-7907426D01*
X-2843428Y-7908239D01*
X-2840126Y-7910423D01*
X-2786176Y-7964525D01*
X-2779979Y-7969656D01*
X-2773324Y-7973212D01*
X-2766060Y-7975396D01*
X-2757982Y-7976209D01*
X-2175052Y-7976209D01*
X-2167026Y-7975447D01*
X-2159812Y-7973212D01*
X-2153107Y-7969656D01*
X-2146909Y-7964576D01*
X-2092604Y-7910220D01*
X-2089302Y-7908036D01*
X-2085390Y-7907274D01*
X-2081530Y-7908036D01*
X-2078228Y-7910220D01*
X-2024024Y-7964424D01*
X-2017826Y-7969554D01*
X-2011121Y-7973110D01*
X-2003907Y-7975295D01*
X-1995881Y-7976108D01*
X-1412697Y-7976108D01*
X-1404670Y-7975295D01*
X-1397406Y-7973110D01*
X-1390751Y-7969554D01*
X-1384554Y-7964424D01*
X-1330604Y-7910474D01*
X-1327302Y-7908290D01*
X-1323390Y-7907528D01*
X-1319530Y-7908290D01*
X-1316228Y-7910474D01*
X-1262278Y-7964424D01*
X-1256030Y-7969554D01*
X-1249375Y-7973110D01*
X-1242161Y-7975295D01*
X-1234135Y-7976108D01*
X-663549Y-7976108D01*
X-655523Y-7975295D01*
X-648309Y-7973110D01*
X-641654Y-7969554D01*
X-635406Y-7964424D01*
X-575005Y-7904022D01*
X-571754Y-7901838D01*
X-567791Y-7901025D01*
X-563930Y-7901838D01*
X-560628Y-7904022D01*
X-500227Y-7964424D01*
X-493979Y-7969554D01*
X-487324Y-7973110D01*
X-480059Y-7975295D01*
X-472033Y-7976108D01*
X98450Y-7976108D01*
X106476Y-7975295D01*
X113690Y-7973110D01*
X120345Y-7969554D01*
X126593Y-7964424D01*
X193344Y-7897672D01*
X196596Y-7895488D01*
X200558Y-7894675D01*
X204419Y-7895488D01*
X207721Y-7897672D01*
X274472Y-7964424D01*
X280720Y-7969554D01*
X287375Y-7973110D01*
X294640Y-7975295D01*
X302666Y-7976108D01*
X873150Y-7976108D01*
X881176Y-7975295D01*
X888390Y-7973110D01*
X895045Y-7969554D01*
X901293Y-7964424D01*
X961694Y-7904022D01*
X964946Y-7901838D01*
X968908Y-7901025D01*
X972769Y-7901838D01*
X976071Y-7904022D01*
X1036472Y-7964424D01*
X1042720Y-7969554D01*
X1049375Y-7973110D01*
X1056640Y-7975295D01*
X1064666Y-7976108D01*
X1622450Y-7976108D01*
X1630476Y-7975295D01*
X1637690Y-7973110D01*
X1644345Y-7969554D01*
X1650593Y-7964424D01*
X1717293Y-7897723D01*
X1720596Y-7895539D01*
X1724507Y-7894726D01*
X1728368Y-7895539D01*
X1731670Y-7897723D01*
X1798523Y-7964525D01*
X1804720Y-7969656D01*
X1811426Y-7973212D01*
X1818639Y-7975396D01*
X1826666Y-7976209D01*
X2359050Y-7976209D01*
X2367076Y-7975396D01*
X2374290Y-7973212D01*
X2380996Y-7969656D01*
X2386838Y-7964881D01*
X2391613Y-7959039D01*
X2395169Y-7952333D01*
X2397353Y-7945120D01*
X2398166Y-7937093D01*
X2398166Y-7390282D01*
X2397353Y-7382306D01*
X2395169Y-7375042D01*
X2391613Y-7368387D01*
X2386482Y-7362139D01*
X2310993Y-7286650D01*
X2304745Y-7281519D01*
X2298090Y-7277963D01*
X2290876Y-7275779D01*
X2282850Y-7274966D01*
X2074925Y-7274966D01*
X2071065Y-7274204D01*
X2067763Y-7272020D01*
X1905812Y-7110069D01*
X1903628Y-7106767D01*
X1902866Y-7102906D01*
X1902866Y-6317792D01*
X1903628Y-6313881D01*
X1905812Y-6310579D01*
X1923186Y-6293205D01*
X1926082Y-6291173D01*
X1929485Y-6290259D01*
X1937512Y-6289548D01*
X1947011Y-6287008D01*
X1955901Y-6282893D01*
X1963978Y-6277254D01*
X1970887Y-6270294D01*
X1976526Y-6262268D01*
X1980692Y-6253327D01*
X1983232Y-6243878D01*
X1983790Y-6237630D01*
X1984705Y-6234226D01*
X1986686Y-6231331D01*
X2259482Y-5958535D01*
X2264613Y-5952286D01*
X2268169Y-5945632D01*
X2270353Y-5938418D01*
X2271166Y-5930392D01*
X2271166Y-5539384D01*
X2271826Y-5535726D01*
X2273808Y-5532526D01*
X2276805Y-5530291D01*
X2284882Y-5526328D01*
X2296261Y-5518708D01*
X2306523Y-5509666D01*
X2315565Y-5499404D01*
X2323185Y-5488025D01*
X2329230Y-5475732D01*
X2333599Y-5462778D01*
X2336292Y-5449366D01*
X2337206Y-5435701D01*
X2336292Y-5422036D01*
X2333599Y-5408625D01*
X2329230Y-5395671D01*
X2323185Y-5383377D01*
X2315565Y-5371998D01*
X2306523Y-5361736D01*
X2296261Y-5352694D01*
X2284882Y-5345074D01*
X2272588Y-5339029D01*
X2259634Y-5334660D01*
X2246223Y-5331968D01*
X2232558Y-5331053D01*
X2218893Y-5331968D01*
X2205482Y-5334660D01*
X2192528Y-5339029D01*
X2180234Y-5345074D01*
X2168855Y-5352694D01*
X2158593Y-5361736D01*
X2149551Y-5371998D01*
X2141931Y-5383377D01*
X2135886Y-5395671D01*
X2131517Y-5408625D01*
X2128824Y-5422036D01*
X2127910Y-5435701D01*
X2128824Y-5449366D01*
X2131517Y-5462778D01*
X2135886Y-5475732D01*
X2141931Y-5488025D01*
X2149551Y-5499404D01*
X2158593Y-5509666D01*
X2168855Y-5518708D01*
X2180234Y-5526328D01*
X2188260Y-5530240D01*
X2191258Y-5532526D01*
X2193239Y-5535676D01*
X2193950Y-5539384D01*
X2193950Y-5910681D01*
X2193137Y-5914593D01*
X2190953Y-5917895D01*
X1934057Y-6174790D01*
X1931162Y-6176822D01*
X1927758Y-6177737D01*
X1917954Y-6178600D01*
X1908454Y-6181140D01*
X1899564Y-6185255D01*
X1891487Y-6190894D01*
X1884578Y-6197854D01*
X1878939Y-6205880D01*
X1874774Y-6214821D01*
X1872234Y-6224270D01*
X1871522Y-6232296D01*
X1870608Y-6235700D01*
X1868576Y-6238595D01*
X1837283Y-6269939D01*
X1832152Y-6276136D01*
X1828546Y-6282842D01*
X1826412Y-6290056D01*
X1825650Y-6298082D01*
X1825650Y-7122566D01*
X1826412Y-7130592D01*
X1828546Y-7137857D01*
X1832152Y-7144512D01*
X1837283Y-7150760D01*
X2025396Y-7338872D01*
X2027834Y-7342682D01*
X2028342Y-7347153D01*
X2026869Y-7351420D01*
X2023668Y-7354620D01*
X2019452Y-7356144D01*
X2014982Y-7355687D01*
X2005939Y-7352588D01*
X1992375Y-7349896D01*
X1978558Y-7348981D01*
X1964740Y-7349896D01*
X1951126Y-7352588D01*
X1938020Y-7357059D01*
X1925624Y-7363206D01*
X1914093Y-7370876D01*
X1903679Y-7380020D01*
X1894535Y-7390434D01*
X1886864Y-7401915D01*
X1880717Y-7414361D01*
X1876247Y-7427468D01*
X1873554Y-7441082D01*
X1872640Y-7454900D01*
X1873554Y-7468717D01*
X1876247Y-7482281D01*
X1880717Y-7495387D01*
X1886864Y-7507833D01*
X1894535Y-7519365D01*
X1903679Y-7529779D01*
X1914093Y-7538872D01*
X1925624Y-7546594D01*
X1938020Y-7552690D01*
X1951126Y-7557160D01*
X1964740Y-7559852D01*
X1978558Y-7560767D01*
X1992375Y-7559852D01*
X2005939Y-7557160D01*
X2019046Y-7552690D01*
X2031492Y-7546594D01*
X2043023Y-7538872D01*
X2053437Y-7529779D01*
X2062530Y-7519365D01*
X2070252Y-7507833D01*
X2076348Y-7495387D01*
X2080818Y-7482281D01*
X2083511Y-7468717D01*
X2084425Y-7454900D01*
X2083511Y-7441082D01*
X2080818Y-7427468D01*
X2076348Y-7414361D01*
X2070252Y-7401915D01*
X2062530Y-7390434D01*
X2053437Y-7380020D01*
X2043023Y-7370876D01*
X2041804Y-7370064D01*
X2038756Y-7366863D01*
X2037334Y-7362647D01*
X2037892Y-7358227D01*
X2040280Y-7354468D01*
X2044039Y-7352080D01*
X2048459Y-7351522D01*
X2055215Y-7352182D01*
X2162556Y-7352182D01*
X2166772Y-7353096D01*
X2170176Y-7355636D01*
X2172258Y-7359396D01*
X2172614Y-7363663D01*
X2171192Y-7367727D01*
X2168093Y-7370876D01*
X2157679Y-7380020D01*
X2148535Y-7390434D01*
X2140864Y-7401915D01*
X2137613Y-7408519D01*
X2186178Y-7408519D01*
X2186178Y-7362342D01*
X2186990Y-7358481D01*
X2189175Y-7355179D01*
X2192477Y-7352944D01*
X2196338Y-7352182D01*
X2263140Y-7352182D01*
X2267000Y-7352944D01*
X2270302Y-7355179D01*
X2275941Y-7360767D01*
X2278126Y-7364069D01*
X2278888Y-7367930D01*
X2278888Y-7408519D01*
X2310790Y-7408519D01*
X2314702Y-7409281D01*
X2317953Y-7411516D01*
X2320188Y-7414818D01*
X2320950Y-7418679D01*
X2320950Y-7491069D01*
X2320188Y-7494981D01*
X2317953Y-7498232D01*
X2314702Y-7500467D01*
X2310790Y-7501229D01*
X2278888Y-7501229D01*
X2278888Y-7549845D01*
X2285492Y-7546594D01*
X2297023Y-7538872D01*
X2304084Y-7532674D01*
X2307437Y-7530744D01*
X2311247Y-7530134D01*
X2315006Y-7531049D01*
X2318105Y-7533284D01*
X2320239Y-7536535D01*
X2320950Y-7540294D01*
X2320950Y-7623454D01*
X2320239Y-7627264D01*
X2318105Y-7630464D01*
X2315006Y-7632700D01*
X2311247Y-7633614D01*
X2307437Y-7633055D01*
X2304084Y-7631074D01*
X2297023Y-7624876D01*
X2285492Y-7617206D01*
X2278888Y-7613954D01*
X2278888Y-7662519D01*
X2310790Y-7662519D01*
X2314702Y-7663281D01*
X2317953Y-7665516D01*
X2320188Y-7668818D01*
X2320950Y-7672679D01*
X2320950Y-7745069D01*
X2320188Y-7748981D01*
X2317953Y-7752232D01*
X2314702Y-7754467D01*
X2310790Y-7755229D01*
X2278888Y-7755229D01*
X2278888Y-7803845D01*
X2285492Y-7800594D01*
X2297023Y-7792872D01*
X2304084Y-7786674D01*
X2307437Y-7784744D01*
X2311247Y-7784134D01*
X2315006Y-7785049D01*
X2318105Y-7787284D01*
X2320239Y-7790535D01*
X2320950Y-7794294D01*
X2320950Y-7888833D01*
X2320188Y-7892694D01*
X2317953Y-7895996D01*
X2314702Y-7898231D01*
X2310790Y-7898993D01*
X1846376Y-7898993D01*
X1842465Y-7898231D01*
X1839163Y-7895996D01*
X1766163Y-7822996D01*
X1763928Y-7819694D01*
X1763166Y-7815783D01*
X1763877Y-7810296D01*
X1765858Y-7807096D01*
X1768856Y-7804861D01*
X1777492Y-7800594D01*
X1789023Y-7792872D01*
X1799437Y-7783779D01*
X1808530Y-7773365D01*
X1816252Y-7761833D01*
X1822348Y-7749387D01*
X1826818Y-7736281D01*
X1829511Y-7722717D01*
X1830425Y-7708900D01*
X1829511Y-7695082D01*
X1826818Y-7681468D01*
X1822348Y-7668361D01*
X1816252Y-7655915D01*
X1808530Y-7644434D01*
X1799437Y-7634020D01*
X1789023Y-7624876D01*
X1777492Y-7617206D01*
X1765046Y-7611059D01*
X1751939Y-7606588D01*
X1738375Y-7603896D01*
X1724558Y-7602981D01*
X1710740Y-7603896D01*
X1697126Y-7606588D01*
X1684020Y-7611059D01*
X1671624Y-7617206D01*
X1660093Y-7624876D01*
X1649679Y-7634020D01*
X1640535Y-7644434D01*
X1632864Y-7655915D01*
X1626717Y-7668361D01*
X1622247Y-7681468D01*
X1619554Y-7695082D01*
X1618640Y-7708900D01*
X1619554Y-7722717D01*
X1622247Y-7736281D01*
X1626717Y-7749387D01*
X1632864Y-7761833D01*
X1640535Y-7773365D01*
X1649679Y-7783779D01*
X1660093Y-7792872D01*
X1671624Y-7800594D01*
X1680260Y-7804861D01*
X1683257Y-7807096D01*
X1685239Y-7810296D01*
X1685950Y-7815681D01*
X1685137Y-7819593D01*
X1682953Y-7822895D01*
X1609953Y-7895894D01*
X1606651Y-7898079D01*
X1602740Y-7898892D01*
X1084326Y-7898892D01*
X1080465Y-7898079D01*
X1077163Y-7895894D01*
X1004112Y-7822844D01*
X1001928Y-7819593D01*
X1001166Y-7815681D01*
X1001826Y-7810296D01*
X1003808Y-7807096D01*
X1006805Y-7804861D01*
X1015492Y-7800594D01*
X1026972Y-7792872D01*
X1037437Y-7783779D01*
X1046530Y-7773365D01*
X1054252Y-7761833D01*
X1060348Y-7749387D01*
X1064818Y-7736281D01*
X1067511Y-7722717D01*
X1068425Y-7708900D01*
X1067511Y-7695082D01*
X1064818Y-7681468D01*
X1060348Y-7668361D01*
X1054252Y-7655915D01*
X1046530Y-7644434D01*
X1037437Y-7634020D01*
X1026972Y-7624876D01*
X1015492Y-7617206D01*
X1003046Y-7611059D01*
X989939Y-7606588D01*
X976376Y-7603896D01*
X962558Y-7602981D01*
X948740Y-7603896D01*
X935126Y-7606588D01*
X922019Y-7611059D01*
X909624Y-7617206D01*
X898093Y-7624876D01*
X887679Y-7634020D01*
X878535Y-7644434D01*
X870864Y-7655915D01*
X864717Y-7668361D01*
X860247Y-7681468D01*
X857554Y-7695082D01*
X856640Y-7708900D01*
X857554Y-7722717D01*
X860247Y-7736281D01*
X864717Y-7749387D01*
X870864Y-7761833D01*
X878535Y-7773365D01*
X887679Y-7783779D01*
X898093Y-7792872D01*
X909624Y-7800594D01*
X918260Y-7804861D01*
X921258Y-7807096D01*
X923239Y-7810296D01*
X923950Y-7813954D01*
X923950Y-7828381D01*
X923137Y-7832293D01*
X920953Y-7835595D01*
X860653Y-7895894D01*
X857351Y-7898079D01*
X853440Y-7898892D01*
X322326Y-7898892D01*
X318465Y-7898079D01*
X315163Y-7895894D01*
X242112Y-7822844D01*
X239928Y-7819593D01*
X239166Y-7815681D01*
X239826Y-7810296D01*
X241808Y-7807096D01*
X244805Y-7804861D01*
X253492Y-7800594D01*
X264972Y-7792872D01*
X275437Y-7783779D01*
X284530Y-7773365D01*
X292252Y-7761833D01*
X298348Y-7749387D01*
X302818Y-7736281D01*
X305511Y-7722717D01*
X306425Y-7708900D01*
X305511Y-7695082D01*
X302818Y-7681468D01*
X298348Y-7668361D01*
X292252Y-7655915D01*
X284530Y-7644434D01*
X275437Y-7634020D01*
X264972Y-7624876D01*
X253492Y-7617206D01*
X241046Y-7611059D01*
X227939Y-7606588D01*
X214375Y-7603896D01*
X200558Y-7602981D01*
X186740Y-7603896D01*
X173126Y-7606588D01*
X160020Y-7611059D01*
X147624Y-7617206D01*
X136093Y-7624876D01*
X125679Y-7634020D01*
X116535Y-7644434D01*
X108864Y-7655915D01*
X102717Y-7668361D01*
X98247Y-7681468D01*
X95554Y-7695082D01*
X94640Y-7708900D01*
X95554Y-7722717D01*
X98247Y-7736281D01*
X102717Y-7749387D01*
X108864Y-7761833D01*
X116535Y-7773365D01*
X125679Y-7783779D01*
X136093Y-7792872D01*
X147624Y-7800594D01*
X156260Y-7804861D01*
X159258Y-7807096D01*
X161239Y-7810296D01*
X161950Y-7815681D01*
X161137Y-7819593D01*
X158953Y-7822895D01*
X85953Y-7895894D01*
X82651Y-7898079D01*
X78740Y-7898892D01*
X-452374Y-7898892D01*
X-456234Y-7898079D01*
X-459536Y-7895894D01*
X-519887Y-7835544D01*
X-522071Y-7832293D01*
X-522833Y-7828381D01*
X-522833Y-7813954D01*
X-522173Y-7810296D01*
X-520192Y-7807096D01*
X-517194Y-7804861D01*
X-508508Y-7800594D01*
X-497027Y-7792872D01*
X-486562Y-7783779D01*
X-477469Y-7773365D01*
X-469747Y-7761833D01*
X-463651Y-7749387D01*
X-459181Y-7736281D01*
X-456488Y-7722717D01*
X-455574Y-7708900D01*
X-456488Y-7695082D01*
X-459181Y-7681468D01*
X-463651Y-7668361D01*
X-469747Y-7655915D01*
X-477469Y-7644434D01*
X-486562Y-7634020D01*
X-497027Y-7624876D01*
X-508508Y-7617206D01*
X-520954Y-7611059D01*
X-534060Y-7606588D01*
X-547624Y-7603896D01*
X-561441Y-7602981D01*
X-575259Y-7603896D01*
X-588873Y-7606588D01*
X-601980Y-7611059D01*
X-614375Y-7617206D01*
X-625906Y-7624876D01*
X-636320Y-7634020D01*
X-645464Y-7644434D01*
X-653135Y-7655915D01*
X-659282Y-7668361D01*
X-663752Y-7681468D01*
X-666445Y-7695082D01*
X-667359Y-7708900D01*
X-666445Y-7722717D01*
X-663752Y-7736281D01*
X-659282Y-7749387D01*
X-653135Y-7761833D01*
X-645464Y-7773365D01*
X-636320Y-7783779D01*
X-625906Y-7792872D01*
X-614375Y-7800594D01*
X-605739Y-7804861D01*
X-602742Y-7807096D01*
X-600760Y-7810296D01*
X-600049Y-7815681D01*
X-600862Y-7819593D01*
X-603046Y-7822895D01*
X-676046Y-7895894D01*
X-679348Y-7898079D01*
X-683260Y-7898892D01*
X-1214424Y-7898892D01*
X-1218336Y-7898079D01*
X-1221587Y-7895894D01*
X-1281836Y-7835696D01*
X-1284020Y-7832394D01*
X-1284782Y-7828483D01*
X-1284782Y-7813954D01*
X-1284122Y-7810246D01*
X-1282141Y-7807096D01*
X-1279144Y-7804810D01*
X-1270508Y-7800594D01*
X-1259027Y-7792872D01*
X-1248562Y-7783779D01*
X-1239469Y-7773365D01*
X-1231747Y-7761833D01*
X-1225651Y-7749387D01*
X-1221181Y-7736281D01*
X-1218488Y-7722717D01*
X-1217574Y-7708900D01*
X-1218488Y-7695082D01*
X-1221181Y-7681468D01*
X-1225651Y-7668361D01*
X-1231747Y-7655915D01*
X-1239469Y-7644434D01*
X-1248562Y-7634020D01*
X-1259027Y-7624876D01*
X-1270508Y-7617206D01*
X-1282954Y-7611059D01*
X-1296060Y-7606588D01*
X-1309624Y-7603896D01*
X-1323441Y-7602981D01*
X-1337259Y-7603896D01*
X-1350873Y-7606588D01*
X-1363980Y-7611059D01*
X-1376375Y-7617206D01*
X-1387906Y-7624876D01*
X-1398320Y-7634020D01*
X-1407464Y-7644434D01*
X-1415135Y-7655915D01*
X-1421282Y-7668361D01*
X-1425752Y-7681468D01*
X-1428445Y-7695082D01*
X-1429359Y-7708900D01*
X-1428445Y-7722717D01*
X-1425752Y-7736281D01*
X-1421282Y-7749387D01*
X-1415135Y-7761833D01*
X-1407464Y-7773365D01*
X-1398320Y-7783779D01*
X-1387906Y-7792872D01*
X-1376375Y-7800594D01*
X-1367739Y-7804861D01*
X-1364742Y-7807096D01*
X-1362760Y-7810296D01*
X-1362049Y-7813954D01*
X-1362049Y-7828584D01*
X-1362862Y-7832445D01*
X-1365046Y-7835747D01*
X-1425194Y-7895894D01*
X-1428496Y-7898079D01*
X-1432356Y-7898892D01*
X-1976170Y-7898892D01*
X-1980082Y-7898079D01*
X-1983384Y-7895894D01*
X-2043836Y-7835442D01*
X-2046020Y-7832140D01*
X-2046782Y-7828229D01*
X-2046782Y-7813954D01*
X-2046122Y-7810246D01*
X-2044141Y-7807096D01*
X-2041143Y-7804810D01*
X-2032507Y-7800594D01*
X-2020976Y-7792872D01*
X-2010562Y-7783779D01*
X-2001469Y-7773365D01*
X-1993747Y-7761833D01*
X-1987651Y-7749387D01*
X-1983181Y-7736281D01*
X-1980488Y-7722717D01*
X-1979574Y-7708900D01*
X-1980488Y-7695082D01*
X-1983181Y-7681468D01*
X-1987651Y-7668361D01*
X-1993747Y-7655915D01*
X-2001469Y-7644434D01*
X-2010562Y-7634020D01*
X-2020976Y-7624876D01*
X-2032507Y-7617206D01*
X-2044954Y-7611059D01*
X-2058060Y-7606588D01*
X-2071624Y-7603896D01*
X-2085441Y-7602981D01*
X-2099259Y-7603896D01*
X-2112873Y-7606588D01*
X-2125980Y-7611059D01*
X-2138375Y-7617206D01*
X-2149906Y-7624876D01*
X-2160320Y-7634020D01*
X-2169464Y-7644434D01*
X-2177135Y-7655915D01*
X-2183282Y-7668361D01*
X-2187752Y-7681468D01*
X-2190445Y-7695082D01*
X-2191359Y-7708900D01*
X-2190445Y-7722717D01*
X-2187752Y-7736281D01*
X-2183282Y-7749387D01*
X-2177135Y-7761833D01*
X-2169464Y-7773365D01*
X-2160320Y-7783779D01*
X-2149906Y-7792872D01*
X-2138375Y-7800594D01*
X-2129739Y-7804861D01*
X-2126742Y-7807096D01*
X-2124760Y-7810296D01*
X-2124049Y-7813954D01*
X-2124049Y-7828330D01*
X-2124862Y-7832191D01*
X-2127046Y-7835493D01*
X-2187549Y-7896047D01*
X-2190851Y-7898231D01*
X-2194763Y-7898993D01*
X-2738272Y-7898993D01*
X-2742133Y-7898231D01*
X-2745435Y-7895996D01*
X-2805836Y-7835442D01*
X-2808020Y-7832191D01*
X-2808782Y-7828280D01*
X-2808782Y-7813954D01*
X-2808122Y-7810246D01*
X-2806141Y-7807096D01*
X-2803144Y-7804810D01*
X-2794508Y-7800594D01*
X-2782976Y-7792872D01*
X-2772562Y-7783779D01*
X-2763469Y-7773365D01*
X-2755747Y-7761833D01*
X-2749651Y-7749387D01*
X-2745181Y-7736281D01*
X-2742488Y-7722717D01*
X-2741574Y-7708900D01*
X-2742488Y-7695082D01*
X-2745181Y-7681468D01*
X-2749651Y-7668361D01*
X-2755747Y-7655915D01*
X-2763469Y-7644434D01*
X-2772562Y-7634020D01*
X-2782976Y-7624876D01*
X-2794508Y-7617206D01*
X-2806954Y-7611059D01*
X-2820060Y-7606588D01*
X-2833624Y-7603896D01*
X-2847441Y-7602981D01*
X-2861259Y-7603896D01*
X-2874873Y-7606588D01*
X-2887980Y-7611059D01*
X-2900375Y-7617206D01*
X-2911906Y-7624876D01*
X-2922320Y-7634020D01*
X-2931464Y-7644434D01*
X-2939135Y-7655915D01*
X-2945282Y-7668361D01*
X-2949752Y-7681468D01*
X-2952445Y-7695082D01*
X-2953359Y-7708900D01*
X-2952445Y-7722717D01*
X-2949752Y-7736281D01*
X-2945282Y-7749387D01*
X-2939135Y-7761833D01*
X-2931464Y-7773365D01*
X-2922320Y-7783779D01*
X-2911906Y-7792872D01*
X-2900375Y-7800594D01*
X-2891688Y-7804861D01*
X-2888691Y-7807147D01*
X-2886710Y-7810296D01*
X-2885998Y-7814005D01*
X-2885998Y-7828483D01*
X-2886760Y-7832394D01*
X-2888996Y-7835696D01*
X-2949295Y-7896047D01*
X-2952597Y-7898231D01*
X-2956509Y-7898993D01*
X-3500323Y-7898993D01*
X-3504184Y-7898231D01*
X-3507486Y-7896047D01*
X-3567887Y-7835646D01*
X-3570071Y-7832344D01*
X-3570833Y-7828432D01*
X-3570833Y-7824927D01*
X-3570071Y-7821066D01*
X-3567887Y-7817764D01*
X-3564585Y-7815580D01*
X-3560673Y-7814767D01*
X-3530041Y-7814767D01*
X-3523691Y-7814056D01*
X-3518255Y-7812176D01*
X-3513328Y-7809077D01*
X-3509264Y-7805013D01*
X-3506165Y-7800086D01*
X-3504285Y-7794650D01*
X-3503523Y-7788300D01*
X-3503523Y-7629448D01*
X-3504285Y-7623149D01*
X-3506165Y-7617663D01*
X-3509264Y-7612786D01*
X-3513328Y-7608671D01*
X-3518255Y-7605572D01*
X-3523691Y-7603693D01*
X-3530041Y-7602981D01*
X-3688892Y-7602981D01*
X-3695192Y-7603693D01*
X-3700678Y-7605572D01*
X-3705555Y-7608671D01*
X-3709670Y-7612786D01*
X-3712718Y-7617663D01*
X-3714648Y-7623149D01*
X-3715359Y-7629448D01*
X-3715359Y-7788300D01*
X-3714648Y-7794650D01*
X-3712718Y-7800086D01*
X-3709670Y-7805013D01*
X-3705555Y-7809077D01*
X-3700678Y-7812176D01*
X-3695192Y-7814056D01*
X-3688892Y-7814767D01*
X-3658209Y-7814767D01*
X-3654348Y-7815580D01*
X-3651046Y-7817764D01*
X-3648862Y-7821066D01*
X-3648049Y-7824927D01*
X-3648049Y-7848142D01*
X-3647287Y-7856169D01*
X-3645103Y-7863382D01*
X-3641547Y-7870088D01*
X-3636416Y-7876286D01*
X-3548176Y-7964576D01*
X-3541928Y-7969656D01*
X-3535273Y-7973212D01*
X-3528009Y-7975447D01*
G37*
G36*
X-1069441Y-7814767D02*
G01*
X-1055624Y-7813852D01*
X-1042060Y-7811160D01*
X-1028953Y-7806690D01*
X-1016508Y-7800594D01*
X-1005027Y-7792872D01*
X-994562Y-7783779D01*
X-985469Y-7773365D01*
X-977747Y-7761833D01*
X-971651Y-7749387D01*
X-967181Y-7736281D01*
X-964488Y-7722717D01*
X-963574Y-7708900D01*
X-964488Y-7695082D01*
X-967181Y-7681468D01*
X-971651Y-7668361D01*
X-977747Y-7655915D01*
X-985469Y-7644434D01*
X-994562Y-7634020D01*
X-1005027Y-7624876D01*
X-1016508Y-7617206D01*
X-1028953Y-7611059D01*
X-1042060Y-7606588D01*
X-1055624Y-7603896D01*
X-1069441Y-7602981D01*
X-1083259Y-7603896D01*
X-1096873Y-7606588D01*
X-1109980Y-7611059D01*
X-1122375Y-7617206D01*
X-1133906Y-7624876D01*
X-1144320Y-7634020D01*
X-1153464Y-7644434D01*
X-1161135Y-7655915D01*
X-1167282Y-7668361D01*
X-1171752Y-7681468D01*
X-1174445Y-7695082D01*
X-1175359Y-7708900D01*
X-1174445Y-7722717D01*
X-1171752Y-7736281D01*
X-1167282Y-7749387D01*
X-1161135Y-7761833D01*
X-1153464Y-7773365D01*
X-1144320Y-7783779D01*
X-1133906Y-7792872D01*
X-1122375Y-7800594D01*
X-1109980Y-7806690D01*
X-1096873Y-7811160D01*
X-1083259Y-7813852D01*
G37*
G36*
X-307441Y-7814767D02*
G01*
X-293624Y-7813852D01*
X-280060Y-7811160D01*
X-266954Y-7806690D01*
X-254508Y-7800594D01*
X-243027Y-7792872D01*
X-232562Y-7783779D01*
X-223469Y-7773365D01*
X-215747Y-7761833D01*
X-209651Y-7749387D01*
X-205181Y-7736281D01*
X-202488Y-7722717D01*
X-201574Y-7708900D01*
X-202488Y-7695082D01*
X-205181Y-7681468D01*
X-209651Y-7668361D01*
X-215747Y-7655915D01*
X-223469Y-7644434D01*
X-232562Y-7634020D01*
X-243027Y-7624876D01*
X-254508Y-7617206D01*
X-266954Y-7611059D01*
X-280060Y-7606588D01*
X-293624Y-7603896D01*
X-307441Y-7602981D01*
X-321259Y-7603896D01*
X-334873Y-7606588D01*
X-347980Y-7611059D01*
X-360375Y-7617206D01*
X-371906Y-7624876D01*
X-382320Y-7634020D01*
X-391464Y-7644434D01*
X-399135Y-7655915D01*
X-405282Y-7668361D01*
X-409752Y-7681468D01*
X-412445Y-7695082D01*
X-413359Y-7708900D01*
X-412445Y-7722717D01*
X-409752Y-7736281D01*
X-405282Y-7749387D01*
X-399135Y-7761833D01*
X-391464Y-7773365D01*
X-382320Y-7783779D01*
X-371906Y-7792872D01*
X-360375Y-7800594D01*
X-347980Y-7806690D01*
X-334873Y-7811160D01*
X-321259Y-7813852D01*
G37*
G36*
X1216558Y-7814767D02*
G01*
X1230376Y-7813852D01*
X1243939Y-7811160D01*
X1257046Y-7806690D01*
X1269492Y-7800594D01*
X1280972Y-7792872D01*
X1291437Y-7783779D01*
X1300530Y-7773365D01*
X1308252Y-7761833D01*
X1314348Y-7749387D01*
X1318818Y-7736281D01*
X1321511Y-7722717D01*
X1322425Y-7708900D01*
X1321511Y-7695082D01*
X1318818Y-7681468D01*
X1314348Y-7668361D01*
X1308252Y-7655915D01*
X1300530Y-7644434D01*
X1291437Y-7634020D01*
X1280972Y-7624876D01*
X1269492Y-7617206D01*
X1257046Y-7611059D01*
X1243939Y-7606588D01*
X1230376Y-7603896D01*
X1216558Y-7602981D01*
X1202740Y-7603896D01*
X1189126Y-7606588D01*
X1176020Y-7611059D01*
X1163624Y-7617206D01*
X1152093Y-7624876D01*
X1141679Y-7634020D01*
X1132535Y-7644434D01*
X1124864Y-7655915D01*
X1118717Y-7668361D01*
X1114247Y-7681468D01*
X1111554Y-7695082D01*
X1110640Y-7708900D01*
X1111554Y-7722717D01*
X1114247Y-7736281D01*
X1118717Y-7749387D01*
X1124864Y-7761833D01*
X1132535Y-7773365D01*
X1141679Y-7783779D01*
X1152093Y-7792872D01*
X1163624Y-7800594D01*
X1176020Y-7806690D01*
X1189126Y-7811160D01*
X1202740Y-7813852D01*
G37*
G36*
X454558Y-7814767D02*
G01*
X468376Y-7813852D01*
X481939Y-7811160D01*
X495046Y-7806690D01*
X507492Y-7800594D01*
X518972Y-7792872D01*
X529437Y-7783779D01*
X538530Y-7773365D01*
X546252Y-7761833D01*
X552348Y-7749387D01*
X556818Y-7736281D01*
X559511Y-7722717D01*
X560425Y-7708900D01*
X559511Y-7695082D01*
X556818Y-7681468D01*
X552348Y-7668361D01*
X546252Y-7655915D01*
X538530Y-7644434D01*
X529437Y-7634020D01*
X518972Y-7624876D01*
X507492Y-7617206D01*
X495046Y-7611059D01*
X481939Y-7606588D01*
X468376Y-7603896D01*
X454558Y-7602981D01*
X440740Y-7603896D01*
X427126Y-7606588D01*
X414020Y-7611059D01*
X401624Y-7617206D01*
X390093Y-7624876D01*
X379679Y-7634020D01*
X370535Y-7644434D01*
X362864Y-7655915D01*
X356717Y-7668361D01*
X352247Y-7681468D01*
X349554Y-7695082D01*
X348640Y-7708900D01*
X349554Y-7722717D01*
X352247Y-7736281D01*
X356717Y-7749387D01*
X362864Y-7761833D01*
X370535Y-7773365D01*
X379679Y-7783779D01*
X390093Y-7792872D01*
X401624Y-7800594D01*
X414020Y-7806690D01*
X427126Y-7811160D01*
X440740Y-7813852D01*
G37*
G36*
X-1831441Y-7814767D02*
G01*
X-1817624Y-7813852D01*
X-1804060Y-7811160D01*
X-1790954Y-7806690D01*
X-1778507Y-7800594D01*
X-1766976Y-7792872D01*
X-1756562Y-7783779D01*
X-1747469Y-7773365D01*
X-1739747Y-7761833D01*
X-1733651Y-7749387D01*
X-1729181Y-7736281D01*
X-1726488Y-7722717D01*
X-1725574Y-7708900D01*
X-1726488Y-7695082D01*
X-1729181Y-7681468D01*
X-1733651Y-7668361D01*
X-1739747Y-7655915D01*
X-1747469Y-7644434D01*
X-1756562Y-7634020D01*
X-1766976Y-7624876D01*
X-1778507Y-7617206D01*
X-1790954Y-7611059D01*
X-1804060Y-7606588D01*
X-1817624Y-7603896D01*
X-1831441Y-7602981D01*
X-1845259Y-7603896D01*
X-1858873Y-7606588D01*
X-1871980Y-7611059D01*
X-1884375Y-7617206D01*
X-1895906Y-7624876D01*
X-1906320Y-7634020D01*
X-1915464Y-7644434D01*
X-1923135Y-7655915D01*
X-1929282Y-7668361D01*
X-1933752Y-7681468D01*
X-1936445Y-7695082D01*
X-1937359Y-7708900D01*
X-1936445Y-7722717D01*
X-1933752Y-7736281D01*
X-1929282Y-7749387D01*
X-1923135Y-7761833D01*
X-1915464Y-7773365D01*
X-1906320Y-7783779D01*
X-1895906Y-7792872D01*
X-1884375Y-7800594D01*
X-1871980Y-7806690D01*
X-1858873Y-7811160D01*
X-1845259Y-7813852D01*
G37*
G36*
X1978558Y-7814767D02*
G01*
X1992375Y-7813852D01*
X2005939Y-7811160D01*
X2019046Y-7806690D01*
X2031492Y-7800594D01*
X2043023Y-7792872D01*
X2053437Y-7783779D01*
X2062530Y-7773365D01*
X2070252Y-7761833D01*
X2076348Y-7749387D01*
X2080818Y-7736281D01*
X2083511Y-7722717D01*
X2084425Y-7708900D01*
X2083511Y-7695082D01*
X2080818Y-7681468D01*
X2076348Y-7668361D01*
X2070252Y-7655915D01*
X2062530Y-7644434D01*
X2053437Y-7634020D01*
X2043023Y-7624876D01*
X2031492Y-7617206D01*
X2019046Y-7611059D01*
X2005939Y-7606588D01*
X1992375Y-7603896D01*
X1978558Y-7602981D01*
X1964740Y-7603896D01*
X1951126Y-7606588D01*
X1938020Y-7611059D01*
X1925624Y-7617206D01*
X1914093Y-7624876D01*
X1903679Y-7634020D01*
X1894535Y-7644434D01*
X1886864Y-7655915D01*
X1880717Y-7668361D01*
X1876247Y-7681468D01*
X1873554Y-7695082D01*
X1872640Y-7708900D01*
X1873554Y-7722717D01*
X1876247Y-7736281D01*
X1880717Y-7749387D01*
X1886864Y-7761833D01*
X1894535Y-7773365D01*
X1903679Y-7783779D01*
X1914093Y-7792872D01*
X1925624Y-7800594D01*
X1938020Y-7806690D01*
X1951126Y-7811160D01*
X1964740Y-7813852D01*
G37*
G36*
X-3355441Y-7814767D02*
G01*
X-3341624Y-7813852D01*
X-3328060Y-7811160D01*
X-3314954Y-7806690D01*
X-3302508Y-7800594D01*
X-3290976Y-7792872D01*
X-3280562Y-7783779D01*
X-3271469Y-7773365D01*
X-3263747Y-7761833D01*
X-3257651Y-7749387D01*
X-3253181Y-7736281D01*
X-3250488Y-7722717D01*
X-3249574Y-7708900D01*
X-3250488Y-7695082D01*
X-3253181Y-7681468D01*
X-3257651Y-7668361D01*
X-3263747Y-7655915D01*
X-3271469Y-7644434D01*
X-3280562Y-7634020D01*
X-3290976Y-7624876D01*
X-3302508Y-7617206D01*
X-3314954Y-7611059D01*
X-3328060Y-7606588D01*
X-3341624Y-7603896D01*
X-3355441Y-7602981D01*
X-3369259Y-7603896D01*
X-3382873Y-7606588D01*
X-3395979Y-7611059D01*
X-3408375Y-7617206D01*
X-3419906Y-7624876D01*
X-3430320Y-7634020D01*
X-3439464Y-7644434D01*
X-3447135Y-7655915D01*
X-3453282Y-7668361D01*
X-3457752Y-7681468D01*
X-3460445Y-7695082D01*
X-3461359Y-7708900D01*
X-3460445Y-7722717D01*
X-3457752Y-7736281D01*
X-3453282Y-7749387D01*
X-3447135Y-7761833D01*
X-3439464Y-7773365D01*
X-3430320Y-7783779D01*
X-3419906Y-7792872D01*
X-3408375Y-7800594D01*
X-3395979Y-7806690D01*
X-3382873Y-7811160D01*
X-3369259Y-7813852D01*
G37*
G36*
X-2593441Y-7814767D02*
G01*
X-2579624Y-7813852D01*
X-2566060Y-7811160D01*
X-2552954Y-7806690D01*
X-2540508Y-7800594D01*
X-2528976Y-7792872D01*
X-2518562Y-7783779D01*
X-2509469Y-7773365D01*
X-2501747Y-7761833D01*
X-2495651Y-7749387D01*
X-2491181Y-7736281D01*
X-2488488Y-7722717D01*
X-2487574Y-7708900D01*
X-2488488Y-7695082D01*
X-2491181Y-7681468D01*
X-2495651Y-7668361D01*
X-2501747Y-7655915D01*
X-2509469Y-7644434D01*
X-2518562Y-7634020D01*
X-2528976Y-7624876D01*
X-2540508Y-7617206D01*
X-2552954Y-7611059D01*
X-2566060Y-7606588D01*
X-2579624Y-7603896D01*
X-2593441Y-7602981D01*
X-2607259Y-7603896D01*
X-2620873Y-7606588D01*
X-2633980Y-7611059D01*
X-2646375Y-7617206D01*
X-2657906Y-7624876D01*
X-2668320Y-7634020D01*
X-2677464Y-7644434D01*
X-2685135Y-7655915D01*
X-2691282Y-7668361D01*
X-2695752Y-7681468D01*
X-2698445Y-7695082D01*
X-2699359Y-7708900D01*
X-2698445Y-7722717D01*
X-2695752Y-7736281D01*
X-2691282Y-7749387D01*
X-2685135Y-7761833D01*
X-2677464Y-7773365D01*
X-2668320Y-7783779D01*
X-2657906Y-7792872D01*
X-2646375Y-7800594D01*
X-2633980Y-7806690D01*
X-2620873Y-7811160D01*
X-2607259Y-7813852D01*
G37*
G36*
X662178Y-7803845D02*
G01*
X662178Y-7755229D01*
X613613Y-7755229D01*
X616864Y-7761833D01*
X624535Y-7773365D01*
X633679Y-7783779D01*
X644093Y-7792872D01*
X655624Y-7800594D01*
G37*
G36*
X-861821Y-7803845D02*
G01*
X-861821Y-7755229D01*
X-910386Y-7755229D01*
X-907135Y-7761833D01*
X-899464Y-7773365D01*
X-890320Y-7783779D01*
X-879906Y-7792872D01*
X-868375Y-7800594D01*
G37*
G36*
X-2385822Y-7803845D02*
G01*
X-2385822Y-7755229D01*
X-2434386Y-7755229D01*
X-2431135Y-7761833D01*
X-2423464Y-7773365D01*
X-2414320Y-7783779D01*
X-2403906Y-7792872D01*
X-2392375Y-7800594D01*
G37*
G36*
X-99822Y-7803845D02*
G01*
X-99822Y-7755229D01*
X-148386Y-7755229D01*
X-145135Y-7761833D01*
X-137464Y-7773365D01*
X-128320Y-7783779D01*
X-117906Y-7792872D01*
X-106375Y-7800594D01*
G37*
G36*
X1424178Y-7803845D02*
G01*
X1424178Y-7755229D01*
X1375613Y-7755229D01*
X1378864Y-7761833D01*
X1386535Y-7773365D01*
X1395679Y-7783779D01*
X1406093Y-7792872D01*
X1417624Y-7800594D01*
G37*
G36*
X-3147822Y-7803845D02*
G01*
X-3147822Y-7755229D01*
X-3196386Y-7755229D01*
X-3193135Y-7761833D01*
X-3185464Y-7773365D01*
X-3176320Y-7783779D01*
X-3165906Y-7792872D01*
X-3154375Y-7800594D01*
G37*
G36*
X2186178Y-7803845D02*
G01*
X2186178Y-7755229D01*
X2137613Y-7755229D01*
X2140864Y-7761833D01*
X2148535Y-7773365D01*
X2157679Y-7783779D01*
X2168093Y-7792872D01*
X2179624Y-7800594D01*
G37*
G36*
X-1623822Y-7803845D02*
G01*
X-1623822Y-7755229D01*
X-1672386Y-7755229D01*
X-1669135Y-7761833D01*
X-1661464Y-7773365D01*
X-1652320Y-7783779D01*
X-1641906Y-7792872D01*
X-1630375Y-7800594D01*
G37*
G36*
X754888Y-7803845D02*
G01*
X761492Y-7800594D01*
X772972Y-7792872D01*
X783437Y-7783779D01*
X792530Y-7773365D01*
X800252Y-7761833D01*
X803503Y-7755229D01*
X754888Y-7755229D01*
G37*
G36*
X-769112Y-7803845D02*
G01*
X-762508Y-7800594D01*
X-751027Y-7792872D01*
X-740562Y-7783779D01*
X-731469Y-7773365D01*
X-723747Y-7761833D01*
X-720496Y-7755229D01*
X-769112Y-7755229D01*
G37*
G36*
X-3055112Y-7803845D02*
G01*
X-3048508Y-7800594D01*
X-3036976Y-7792872D01*
X-3026562Y-7783779D01*
X-3017469Y-7773365D01*
X-3009747Y-7761833D01*
X-3006496Y-7755229D01*
X-3055112Y-7755229D01*
G37*
G36*
X1516888Y-7803845D02*
G01*
X1523492Y-7800594D01*
X1534972Y-7792872D01*
X1545437Y-7783779D01*
X1554530Y-7773365D01*
X1562252Y-7761833D01*
X1565503Y-7755229D01*
X1516888Y-7755229D01*
G37*
G36*
X-1531112Y-7803845D02*
G01*
X-1524508Y-7800594D01*
X-1513027Y-7792872D01*
X-1502562Y-7783779D01*
X-1493469Y-7773365D01*
X-1485747Y-7761833D01*
X-1482496Y-7755229D01*
X-1531112Y-7755229D01*
G37*
G36*
X-2293112Y-7803845D02*
G01*
X-2286508Y-7800594D01*
X-2274976Y-7792872D01*
X-2264562Y-7783779D01*
X-2255469Y-7773365D01*
X-2247747Y-7761833D01*
X-2244496Y-7755229D01*
X-2293112Y-7755229D01*
G37*
G36*
X-7112Y-7803845D02*
G01*
X-508Y-7800594D01*
X10972Y-7792872D01*
X21437Y-7783779D01*
X30530Y-7773365D01*
X38252Y-7761833D01*
X41503Y-7755229D01*
X-7112Y-7755229D01*
G37*
G36*
X754888Y-7662519D02*
G01*
X803503Y-7662519D01*
X800252Y-7655915D01*
X792530Y-7644434D01*
X783437Y-7634020D01*
X772972Y-7624876D01*
X761492Y-7617206D01*
X754888Y-7613954D01*
G37*
G36*
X-3055112Y-7662519D02*
G01*
X-3006496Y-7662519D01*
X-3009747Y-7655915D01*
X-3017469Y-7644434D01*
X-3026562Y-7634020D01*
X-3036976Y-7624876D01*
X-3048508Y-7617206D01*
X-3055112Y-7613954D01*
G37*
G36*
X-7112Y-7662519D02*
G01*
X41503Y-7662519D01*
X38252Y-7655915D01*
X30530Y-7644434D01*
X21437Y-7634020D01*
X10972Y-7624876D01*
X-508Y-7617206D01*
X-7112Y-7613954D01*
G37*
G36*
X-2293112Y-7662519D02*
G01*
X-2244496Y-7662519D01*
X-2247747Y-7655915D01*
X-2255469Y-7644434D01*
X-2264562Y-7634020D01*
X-2274976Y-7624876D01*
X-2286508Y-7617206D01*
X-2293112Y-7613954D01*
G37*
G36*
X613613Y-7662519D02*
G01*
X662178Y-7662519D01*
X662178Y-7613954D01*
X655624Y-7617206D01*
X644093Y-7624876D01*
X633679Y-7634020D01*
X624535Y-7644434D01*
X616864Y-7655915D01*
G37*
G36*
X-910386Y-7662519D02*
G01*
X-861821Y-7662519D01*
X-861821Y-7613954D01*
X-868375Y-7617206D01*
X-879906Y-7624876D01*
X-890320Y-7634020D01*
X-899464Y-7644434D01*
X-907135Y-7655915D01*
G37*
G36*
X-1672386Y-7662519D02*
G01*
X-1623822Y-7662519D01*
X-1623822Y-7613954D01*
X-1630375Y-7617206D01*
X-1641906Y-7624876D01*
X-1652320Y-7634020D01*
X-1661464Y-7644434D01*
X-1669135Y-7655915D01*
G37*
G36*
X1375613Y-7662519D02*
G01*
X1424178Y-7662519D01*
X1424178Y-7613954D01*
X1417624Y-7617206D01*
X1406093Y-7624876D01*
X1395679Y-7634020D01*
X1386535Y-7644434D01*
X1378864Y-7655915D01*
G37*
G36*
X-3196386Y-7662519D02*
G01*
X-3147822Y-7662519D01*
X-3147822Y-7613954D01*
X-3154375Y-7617206D01*
X-3165906Y-7624876D01*
X-3176320Y-7634020D01*
X-3185464Y-7644434D01*
X-3193135Y-7655915D01*
G37*
G36*
X1516888Y-7662519D02*
G01*
X1565503Y-7662519D01*
X1562252Y-7655915D01*
X1554530Y-7644434D01*
X1545437Y-7634020D01*
X1534972Y-7624876D01*
X1523492Y-7617206D01*
X1516888Y-7613954D01*
G37*
G36*
X-769112Y-7662519D02*
G01*
X-720496Y-7662519D01*
X-723747Y-7655915D01*
X-731469Y-7644434D01*
X-740562Y-7634020D01*
X-751027Y-7624876D01*
X-762508Y-7617206D01*
X-769112Y-7613954D01*
G37*
G36*
X-2434386Y-7662519D02*
G01*
X-2385822Y-7662519D01*
X-2385822Y-7613954D01*
X-2392375Y-7617206D01*
X-2403906Y-7624876D01*
X-2414320Y-7634020D01*
X-2423464Y-7644434D01*
X-2431135Y-7655915D01*
G37*
G36*
X2137613Y-7662519D02*
G01*
X2186178Y-7662519D01*
X2186178Y-7613954D01*
X2179624Y-7617206D01*
X2168093Y-7624876D01*
X2157679Y-7634020D01*
X2148535Y-7644434D01*
X2140864Y-7655915D01*
G37*
G36*
X-148386Y-7662519D02*
G01*
X-99822Y-7662519D01*
X-99822Y-7613954D01*
X-106375Y-7617206D01*
X-117906Y-7624876D01*
X-128320Y-7634020D01*
X-137464Y-7644434D01*
X-145135Y-7655915D01*
G37*
G36*
X-1531112Y-7662519D02*
G01*
X-1482496Y-7662519D01*
X-1485747Y-7655915D01*
X-1493469Y-7644434D01*
X-1502562Y-7634020D01*
X-1513027Y-7624876D01*
X-1524508Y-7617206D01*
X-1531112Y-7613954D01*
G37*
G36*
X-1831441Y-7560767D02*
G01*
X-1817624Y-7559852D01*
X-1804060Y-7557160D01*
X-1790954Y-7552690D01*
X-1778507Y-7546594D01*
X-1766976Y-7538872D01*
X-1756562Y-7529779D01*
X-1747469Y-7519365D01*
X-1739747Y-7507833D01*
X-1733651Y-7495387D01*
X-1729181Y-7482281D01*
X-1726488Y-7468717D01*
X-1725574Y-7454900D01*
X-1726488Y-7441082D01*
X-1729181Y-7427468D01*
X-1733651Y-7414361D01*
X-1739747Y-7401915D01*
X-1747469Y-7390434D01*
X-1756562Y-7380020D01*
X-1766976Y-7370876D01*
X-1778507Y-7363206D01*
X-1790954Y-7357059D01*
X-1804060Y-7352588D01*
X-1817624Y-7349896D01*
X-1831441Y-7348981D01*
X-1845259Y-7349896D01*
X-1858873Y-7352588D01*
X-1871980Y-7357059D01*
X-1884375Y-7363206D01*
X-1895906Y-7370876D01*
X-1906320Y-7380020D01*
X-1915464Y-7390434D01*
X-1923135Y-7401915D01*
X-1929282Y-7414361D01*
X-1933752Y-7427468D01*
X-1936445Y-7441082D01*
X-1937359Y-7454900D01*
X-1936445Y-7468717D01*
X-1933752Y-7482281D01*
X-1929282Y-7495387D01*
X-1923135Y-7507833D01*
X-1915464Y-7519365D01*
X-1906320Y-7529779D01*
X-1895906Y-7538872D01*
X-1884375Y-7546594D01*
X-1871980Y-7552690D01*
X-1858873Y-7557160D01*
X-1845259Y-7559852D01*
G37*
G36*
X-1323441Y-7560767D02*
G01*
X-1309624Y-7559852D01*
X-1296060Y-7557160D01*
X-1282954Y-7552690D01*
X-1270508Y-7546594D01*
X-1259027Y-7538872D01*
X-1248562Y-7529779D01*
X-1239469Y-7519365D01*
X-1231747Y-7507833D01*
X-1225651Y-7495387D01*
X-1221181Y-7482281D01*
X-1218488Y-7468717D01*
X-1217574Y-7454900D01*
X-1218488Y-7441082D01*
X-1221181Y-7427468D01*
X-1225651Y-7414361D01*
X-1231747Y-7401915D01*
X-1239469Y-7390434D01*
X-1248562Y-7380020D01*
X-1259027Y-7370876D01*
X-1270508Y-7363206D01*
X-1282954Y-7357059D01*
X-1296060Y-7352588D01*
X-1309624Y-7349896D01*
X-1323441Y-7348981D01*
X-1337259Y-7349896D01*
X-1350873Y-7352588D01*
X-1363980Y-7357059D01*
X-1376375Y-7363206D01*
X-1387906Y-7370876D01*
X-1398320Y-7380020D01*
X-1407464Y-7390434D01*
X-1415135Y-7401915D01*
X-1421282Y-7414361D01*
X-1425752Y-7427468D01*
X-1428445Y-7441082D01*
X-1429359Y-7454900D01*
X-1428445Y-7468717D01*
X-1425752Y-7482281D01*
X-1421282Y-7495387D01*
X-1415135Y-7507833D01*
X-1407464Y-7519365D01*
X-1398320Y-7529779D01*
X-1387906Y-7538872D01*
X-1376375Y-7546594D01*
X-1363980Y-7552690D01*
X-1350873Y-7557160D01*
X-1337259Y-7559852D01*
G37*
G36*
X200558Y-7560767D02*
G01*
X214375Y-7559852D01*
X227939Y-7557160D01*
X241046Y-7552690D01*
X253492Y-7546594D01*
X264972Y-7538872D01*
X275437Y-7529779D01*
X284530Y-7519365D01*
X292252Y-7507833D01*
X298348Y-7495387D01*
X302818Y-7482281D01*
X305511Y-7468717D01*
X306425Y-7454900D01*
X305511Y-7441082D01*
X302818Y-7427468D01*
X298348Y-7414361D01*
X292252Y-7401915D01*
X284530Y-7390434D01*
X275437Y-7380020D01*
X264972Y-7370876D01*
X253492Y-7363206D01*
X241046Y-7357059D01*
X227939Y-7352588D01*
X214375Y-7349896D01*
X200558Y-7348981D01*
X186740Y-7349896D01*
X173126Y-7352588D01*
X160020Y-7357059D01*
X147624Y-7363206D01*
X136093Y-7370876D01*
X125679Y-7380020D01*
X116535Y-7390434D01*
X108864Y-7401915D01*
X102717Y-7414361D01*
X98247Y-7427468D01*
X95554Y-7441082D01*
X94640Y-7454900D01*
X95554Y-7468717D01*
X98247Y-7482281D01*
X102717Y-7495387D01*
X108864Y-7507833D01*
X116535Y-7519365D01*
X125679Y-7529779D01*
X136093Y-7538872D01*
X147624Y-7546594D01*
X160020Y-7552690D01*
X173126Y-7557160D01*
X186740Y-7559852D01*
G37*
G36*
X-307441Y-7560767D02*
G01*
X-293624Y-7559852D01*
X-280060Y-7557160D01*
X-266954Y-7552690D01*
X-254508Y-7546594D01*
X-243027Y-7538872D01*
X-232562Y-7529779D01*
X-223469Y-7519365D01*
X-215747Y-7507833D01*
X-209651Y-7495387D01*
X-205181Y-7482281D01*
X-202488Y-7468717D01*
X-201574Y-7454900D01*
X-202488Y-7441082D01*
X-205181Y-7427468D01*
X-209651Y-7414361D01*
X-215747Y-7401915D01*
X-223469Y-7390434D01*
X-232562Y-7380020D01*
X-243027Y-7370876D01*
X-254508Y-7363206D01*
X-266954Y-7357059D01*
X-280060Y-7352588D01*
X-293624Y-7349896D01*
X-307441Y-7348981D01*
X-321259Y-7349896D01*
X-334873Y-7352588D01*
X-347980Y-7357059D01*
X-360375Y-7363206D01*
X-371906Y-7370876D01*
X-382320Y-7380020D01*
X-391464Y-7390434D01*
X-399135Y-7401915D01*
X-405282Y-7414361D01*
X-409752Y-7427468D01*
X-412445Y-7441082D01*
X-413359Y-7454900D01*
X-412445Y-7468717D01*
X-409752Y-7482281D01*
X-405282Y-7495387D01*
X-399135Y-7507833D01*
X-391464Y-7519365D01*
X-382320Y-7529779D01*
X-371906Y-7538872D01*
X-360375Y-7546594D01*
X-347980Y-7552690D01*
X-334873Y-7557160D01*
X-321259Y-7559852D01*
G37*
G36*
X-561441Y-7560767D02*
G01*
X-547624Y-7559852D01*
X-534060Y-7557160D01*
X-520954Y-7552690D01*
X-508508Y-7546594D01*
X-497027Y-7538872D01*
X-486562Y-7529779D01*
X-477469Y-7519365D01*
X-469747Y-7507833D01*
X-463651Y-7495387D01*
X-459181Y-7482281D01*
X-456488Y-7468717D01*
X-455574Y-7454900D01*
X-456488Y-7441082D01*
X-459181Y-7427468D01*
X-463651Y-7414361D01*
X-469747Y-7401915D01*
X-477469Y-7390434D01*
X-486562Y-7380020D01*
X-497027Y-7370876D01*
X-508508Y-7363206D01*
X-520954Y-7357059D01*
X-534060Y-7352588D01*
X-547624Y-7349896D01*
X-561441Y-7348981D01*
X-575259Y-7349896D01*
X-588873Y-7352588D01*
X-601980Y-7357059D01*
X-614375Y-7363206D01*
X-625906Y-7370876D01*
X-636320Y-7380020D01*
X-645464Y-7390434D01*
X-653135Y-7401915D01*
X-659282Y-7414361D01*
X-663752Y-7427468D01*
X-666445Y-7441082D01*
X-667359Y-7454900D01*
X-666445Y-7468717D01*
X-663752Y-7482281D01*
X-659282Y-7495387D01*
X-653135Y-7507833D01*
X-645464Y-7519365D01*
X-636320Y-7529779D01*
X-625906Y-7538872D01*
X-614375Y-7546594D01*
X-601980Y-7552690D01*
X-588873Y-7557160D01*
X-575259Y-7559852D01*
G37*
G36*
X1216558Y-7560767D02*
G01*
X1230376Y-7559852D01*
X1243939Y-7557160D01*
X1257046Y-7552690D01*
X1269492Y-7546594D01*
X1280972Y-7538872D01*
X1291437Y-7529779D01*
X1300530Y-7519365D01*
X1308252Y-7507833D01*
X1314348Y-7495387D01*
X1318818Y-7482281D01*
X1321511Y-7468717D01*
X1322425Y-7454900D01*
X1321511Y-7441082D01*
X1318818Y-7427468D01*
X1314348Y-7414361D01*
X1308252Y-7401915D01*
X1300530Y-7390434D01*
X1291437Y-7380020D01*
X1280972Y-7370876D01*
X1269492Y-7363206D01*
X1257046Y-7357059D01*
X1243939Y-7352588D01*
X1230376Y-7349896D01*
X1216558Y-7348981D01*
X1202740Y-7349896D01*
X1189126Y-7352588D01*
X1176020Y-7357059D01*
X1163624Y-7363206D01*
X1152093Y-7370876D01*
X1141679Y-7380020D01*
X1132535Y-7390434D01*
X1124864Y-7401915D01*
X1118717Y-7414361D01*
X1114247Y-7427468D01*
X1111554Y-7441082D01*
X1110640Y-7454900D01*
X1111554Y-7468717D01*
X1114247Y-7482281D01*
X1118717Y-7495387D01*
X1124864Y-7507833D01*
X1132535Y-7519365D01*
X1141679Y-7529779D01*
X1152093Y-7538872D01*
X1163624Y-7546594D01*
X1176020Y-7552690D01*
X1189126Y-7557160D01*
X1202740Y-7559852D01*
G37*
G36*
X-1069441Y-7560767D02*
G01*
X-1055624Y-7559852D01*
X-1042060Y-7557160D01*
X-1028953Y-7552690D01*
X-1016508Y-7546594D01*
X-1005027Y-7538872D01*
X-994562Y-7529779D01*
X-985469Y-7519365D01*
X-977747Y-7507833D01*
X-971651Y-7495387D01*
X-967181Y-7482281D01*
X-964488Y-7468717D01*
X-963574Y-7454900D01*
X-964488Y-7441082D01*
X-967181Y-7427468D01*
X-971651Y-7414361D01*
X-977747Y-7401915D01*
X-985469Y-7390434D01*
X-994562Y-7380020D01*
X-1005027Y-7370876D01*
X-1016508Y-7363206D01*
X-1028953Y-7357059D01*
X-1042060Y-7352588D01*
X-1055624Y-7349896D01*
X-1069441Y-7348981D01*
X-1083259Y-7349896D01*
X-1096873Y-7352588D01*
X-1109980Y-7357059D01*
X-1122375Y-7363206D01*
X-1133906Y-7370876D01*
X-1144320Y-7380020D01*
X-1153464Y-7390434D01*
X-1161135Y-7401915D01*
X-1167282Y-7414361D01*
X-1171752Y-7427468D01*
X-1174445Y-7441082D01*
X-1175359Y-7454900D01*
X-1174445Y-7468717D01*
X-1171752Y-7482281D01*
X-1167282Y-7495387D01*
X-1161135Y-7507833D01*
X-1153464Y-7519365D01*
X-1144320Y-7529779D01*
X-1133906Y-7538872D01*
X-1122375Y-7546594D01*
X-1109980Y-7552690D01*
X-1096873Y-7557160D01*
X-1083259Y-7559852D01*
G37*
G36*
X-3355441Y-7560767D02*
G01*
X-3341624Y-7559852D01*
X-3328060Y-7557160D01*
X-3314954Y-7552690D01*
X-3302508Y-7546594D01*
X-3290976Y-7538872D01*
X-3280562Y-7529779D01*
X-3271469Y-7519365D01*
X-3263747Y-7507833D01*
X-3257651Y-7495387D01*
X-3253181Y-7482281D01*
X-3250488Y-7468717D01*
X-3249574Y-7454900D01*
X-3250488Y-7441082D01*
X-3253181Y-7427468D01*
X-3257651Y-7414361D01*
X-3263747Y-7401915D01*
X-3271469Y-7390434D01*
X-3280562Y-7380020D01*
X-3290976Y-7370876D01*
X-3302508Y-7363206D01*
X-3314954Y-7357059D01*
X-3328060Y-7352588D01*
X-3341624Y-7349896D01*
X-3355441Y-7348981D01*
X-3369259Y-7349896D01*
X-3382873Y-7352588D01*
X-3395979Y-7357059D01*
X-3408375Y-7363206D01*
X-3419906Y-7370876D01*
X-3430320Y-7380020D01*
X-3439464Y-7390434D01*
X-3447135Y-7401915D01*
X-3453282Y-7414361D01*
X-3457752Y-7427468D01*
X-3460445Y-7441082D01*
X-3461359Y-7454900D01*
X-3460445Y-7468717D01*
X-3457752Y-7482281D01*
X-3453282Y-7495387D01*
X-3447135Y-7507833D01*
X-3439464Y-7519365D01*
X-3430320Y-7529779D01*
X-3419906Y-7538872D01*
X-3408375Y-7546594D01*
X-3395979Y-7552690D01*
X-3382873Y-7557160D01*
X-3369259Y-7559852D01*
G37*
G36*
X-2847441Y-7560767D02*
G01*
X-2833624Y-7559852D01*
X-2820060Y-7557160D01*
X-2806954Y-7552690D01*
X-2794508Y-7546594D01*
X-2782976Y-7538872D01*
X-2772562Y-7529779D01*
X-2763469Y-7519365D01*
X-2755747Y-7507833D01*
X-2749651Y-7495387D01*
X-2745181Y-7482281D01*
X-2742488Y-7468717D01*
X-2741574Y-7454900D01*
X-2742488Y-7441082D01*
X-2745181Y-7427468D01*
X-2749651Y-7414361D01*
X-2755747Y-7401915D01*
X-2763469Y-7390434D01*
X-2772562Y-7380020D01*
X-2782976Y-7370876D01*
X-2794508Y-7363206D01*
X-2806954Y-7357059D01*
X-2820060Y-7352588D01*
X-2833624Y-7349896D01*
X-2847441Y-7348981D01*
X-2861259Y-7349896D01*
X-2874873Y-7352588D01*
X-2887980Y-7357059D01*
X-2900375Y-7363206D01*
X-2911906Y-7370876D01*
X-2922320Y-7380020D01*
X-2931464Y-7390434D01*
X-2939135Y-7401915D01*
X-2945282Y-7414361D01*
X-2949752Y-7427468D01*
X-2952445Y-7441082D01*
X-2953359Y-7454900D01*
X-2952445Y-7468717D01*
X-2949752Y-7482281D01*
X-2945282Y-7495387D01*
X-2939135Y-7507833D01*
X-2931464Y-7519365D01*
X-2922320Y-7529779D01*
X-2911906Y-7538872D01*
X-2900375Y-7546594D01*
X-2887980Y-7552690D01*
X-2874873Y-7557160D01*
X-2861259Y-7559852D01*
G37*
G36*
X454558Y-7560767D02*
G01*
X468376Y-7559852D01*
X481939Y-7557160D01*
X495046Y-7552690D01*
X507492Y-7546594D01*
X518972Y-7538872D01*
X529437Y-7529779D01*
X538530Y-7519365D01*
X546252Y-7507833D01*
X552348Y-7495387D01*
X556818Y-7482281D01*
X559511Y-7468717D01*
X560425Y-7454900D01*
X559511Y-7441082D01*
X556818Y-7427468D01*
X552348Y-7414361D01*
X546252Y-7401915D01*
X538530Y-7390434D01*
X529437Y-7380020D01*
X518972Y-7370876D01*
X507492Y-7363206D01*
X495046Y-7357059D01*
X481939Y-7352588D01*
X468376Y-7349896D01*
X454558Y-7348981D01*
X440740Y-7349896D01*
X427126Y-7352588D01*
X414020Y-7357059D01*
X401624Y-7363206D01*
X390093Y-7370876D01*
X379679Y-7380020D01*
X370535Y-7390434D01*
X362864Y-7401915D01*
X356717Y-7414361D01*
X352247Y-7427468D01*
X349554Y-7441082D01*
X348640Y-7454900D01*
X349554Y-7468717D01*
X352247Y-7482281D01*
X356717Y-7495387D01*
X362864Y-7507833D01*
X370535Y-7519365D01*
X379679Y-7529779D01*
X390093Y-7538872D01*
X401624Y-7546594D01*
X414020Y-7552690D01*
X427126Y-7557160D01*
X440740Y-7559852D01*
G37*
G36*
X1724558Y-7560767D02*
G01*
X1738375Y-7559852D01*
X1751939Y-7557160D01*
X1765046Y-7552690D01*
X1777492Y-7546594D01*
X1789023Y-7538872D01*
X1799437Y-7529779D01*
X1808530Y-7519365D01*
X1816252Y-7507833D01*
X1822348Y-7495387D01*
X1826818Y-7482281D01*
X1829511Y-7468717D01*
X1830425Y-7454900D01*
X1829511Y-7441082D01*
X1826818Y-7427468D01*
X1822348Y-7414361D01*
X1816252Y-7401915D01*
X1808530Y-7390434D01*
X1799437Y-7380020D01*
X1789023Y-7370876D01*
X1777492Y-7363206D01*
X1765046Y-7357059D01*
X1751939Y-7352588D01*
X1738375Y-7349896D01*
X1724558Y-7348981D01*
X1710740Y-7349896D01*
X1697126Y-7352588D01*
X1684020Y-7357059D01*
X1671624Y-7363206D01*
X1660093Y-7370876D01*
X1649679Y-7380020D01*
X1640535Y-7390434D01*
X1632864Y-7401915D01*
X1626717Y-7414361D01*
X1622247Y-7427468D01*
X1619554Y-7441082D01*
X1618640Y-7454900D01*
X1619554Y-7468717D01*
X1622247Y-7482281D01*
X1626717Y-7495387D01*
X1632864Y-7507833D01*
X1640535Y-7519365D01*
X1649679Y-7529779D01*
X1660093Y-7538872D01*
X1671624Y-7546594D01*
X1684020Y-7552690D01*
X1697126Y-7557160D01*
X1710740Y-7559852D01*
G37*
G36*
X-2593441Y-7560767D02*
G01*
X-2579624Y-7559852D01*
X-2566060Y-7557160D01*
X-2552954Y-7552690D01*
X-2540508Y-7546594D01*
X-2528976Y-7538872D01*
X-2518562Y-7529779D01*
X-2509469Y-7519365D01*
X-2501747Y-7507833D01*
X-2495651Y-7495387D01*
X-2491181Y-7482281D01*
X-2488488Y-7468717D01*
X-2487574Y-7454900D01*
X-2488488Y-7441082D01*
X-2491181Y-7427468D01*
X-2495651Y-7414361D01*
X-2501747Y-7401915D01*
X-2509469Y-7390434D01*
X-2518562Y-7380020D01*
X-2528976Y-7370876D01*
X-2540508Y-7363206D01*
X-2552954Y-7357059D01*
X-2566060Y-7352588D01*
X-2579624Y-7349896D01*
X-2593441Y-7348981D01*
X-2607259Y-7349896D01*
X-2620873Y-7352588D01*
X-2633980Y-7357059D01*
X-2646375Y-7363206D01*
X-2657906Y-7370876D01*
X-2668320Y-7380020D01*
X-2677464Y-7390434D01*
X-2685135Y-7401915D01*
X-2691282Y-7414361D01*
X-2695752Y-7427468D01*
X-2698445Y-7441082D01*
X-2699359Y-7454900D01*
X-2698445Y-7468717D01*
X-2695752Y-7482281D01*
X-2691282Y-7495387D01*
X-2685135Y-7507833D01*
X-2677464Y-7519365D01*
X-2668320Y-7529779D01*
X-2657906Y-7538872D01*
X-2646375Y-7546594D01*
X-2633980Y-7552690D01*
X-2620873Y-7557160D01*
X-2607259Y-7559852D01*
G37*
G36*
X-2085441Y-7560767D02*
G01*
X-2071624Y-7559852D01*
X-2058060Y-7557160D01*
X-2044954Y-7552690D01*
X-2032507Y-7546594D01*
X-2020976Y-7538872D01*
X-2010562Y-7529779D01*
X-2001469Y-7519365D01*
X-1993747Y-7507833D01*
X-1987651Y-7495387D01*
X-1983181Y-7482281D01*
X-1980488Y-7468717D01*
X-1979574Y-7454900D01*
X-1980488Y-7441082D01*
X-1983181Y-7427468D01*
X-1987651Y-7414361D01*
X-1993747Y-7401915D01*
X-2001469Y-7390434D01*
X-2010562Y-7380020D01*
X-2020976Y-7370876D01*
X-2032507Y-7363206D01*
X-2044954Y-7357059D01*
X-2058060Y-7352588D01*
X-2071624Y-7349896D01*
X-2085441Y-7348981D01*
X-2099259Y-7349896D01*
X-2112873Y-7352588D01*
X-2125980Y-7357059D01*
X-2138375Y-7363206D01*
X-2149906Y-7370876D01*
X-2160320Y-7380020D01*
X-2169464Y-7390434D01*
X-2177135Y-7401915D01*
X-2183282Y-7414361D01*
X-2187752Y-7427468D01*
X-2190445Y-7441082D01*
X-2191359Y-7454900D01*
X-2190445Y-7468717D01*
X-2187752Y-7482281D01*
X-2183282Y-7495387D01*
X-2177135Y-7507833D01*
X-2169464Y-7519365D01*
X-2160320Y-7529779D01*
X-2149906Y-7538872D01*
X-2138375Y-7546594D01*
X-2125980Y-7552690D01*
X-2112873Y-7557160D01*
X-2099259Y-7559852D01*
G37*
G36*
X962558Y-7560767D02*
G01*
X976376Y-7559852D01*
X989939Y-7557160D01*
X1003046Y-7552690D01*
X1015492Y-7546594D01*
X1026972Y-7538872D01*
X1037437Y-7529779D01*
X1046530Y-7519365D01*
X1054252Y-7507833D01*
X1060348Y-7495387D01*
X1064818Y-7482281D01*
X1067511Y-7468717D01*
X1068425Y-7454900D01*
X1067511Y-7441082D01*
X1064818Y-7427468D01*
X1060348Y-7414361D01*
X1054252Y-7401915D01*
X1046530Y-7390434D01*
X1037437Y-7380020D01*
X1026972Y-7370876D01*
X1015492Y-7363206D01*
X1003046Y-7357059D01*
X989939Y-7352588D01*
X976376Y-7349896D01*
X962558Y-7348981D01*
X948740Y-7349896D01*
X935126Y-7352588D01*
X922019Y-7357059D01*
X909624Y-7363206D01*
X898093Y-7370876D01*
X887679Y-7380020D01*
X878535Y-7390434D01*
X870864Y-7401915D01*
X864717Y-7414361D01*
X860247Y-7427468D01*
X857554Y-7441082D01*
X856640Y-7454900D01*
X857554Y-7468717D01*
X860247Y-7482281D01*
X864717Y-7495387D01*
X870864Y-7507833D01*
X878535Y-7519365D01*
X887679Y-7529779D01*
X898093Y-7538872D01*
X909624Y-7546594D01*
X922019Y-7552690D01*
X935126Y-7557160D01*
X948740Y-7559852D01*
G37*
G36*
X-3609441Y-7560767D02*
G01*
X-3595624Y-7559852D01*
X-3582060Y-7557160D01*
X-3568954Y-7552690D01*
X-3556508Y-7546594D01*
X-3544976Y-7538872D01*
X-3534562Y-7529779D01*
X-3525469Y-7519365D01*
X-3517747Y-7507833D01*
X-3511651Y-7495387D01*
X-3507181Y-7482281D01*
X-3504488Y-7468717D01*
X-3503574Y-7454900D01*
X-3504488Y-7441082D01*
X-3507181Y-7427468D01*
X-3511651Y-7414361D01*
X-3517747Y-7401915D01*
X-3525469Y-7390434D01*
X-3534562Y-7380020D01*
X-3544976Y-7370876D01*
X-3556508Y-7363206D01*
X-3568954Y-7357059D01*
X-3582060Y-7352588D01*
X-3595624Y-7349896D01*
X-3609441Y-7348981D01*
X-3623259Y-7349896D01*
X-3636873Y-7352588D01*
X-3649979Y-7357059D01*
X-3662375Y-7363206D01*
X-3673906Y-7370876D01*
X-3684320Y-7380020D01*
X-3693464Y-7390434D01*
X-3701135Y-7401915D01*
X-3707282Y-7414361D01*
X-3711752Y-7427468D01*
X-3714445Y-7441082D01*
X-3715359Y-7454900D01*
X-3714445Y-7468717D01*
X-3711752Y-7482281D01*
X-3707282Y-7495387D01*
X-3701135Y-7507833D01*
X-3693464Y-7519365D01*
X-3684320Y-7529779D01*
X-3673906Y-7538872D01*
X-3662375Y-7546594D01*
X-3649979Y-7552690D01*
X-3636873Y-7557160D01*
X-3623259Y-7559852D01*
G37*
G36*
X-3147822Y-7549845D02*
G01*
X-3147822Y-7501229D01*
X-3196386Y-7501229D01*
X-3193135Y-7507833D01*
X-3185464Y-7519365D01*
X-3176320Y-7529779D01*
X-3165906Y-7538872D01*
X-3154375Y-7546594D01*
G37*
G36*
X-861821Y-7549845D02*
G01*
X-861821Y-7501229D01*
X-910386Y-7501229D01*
X-907135Y-7507833D01*
X-899464Y-7519365D01*
X-890320Y-7529779D01*
X-879906Y-7538872D01*
X-868375Y-7546594D01*
G37*
G36*
X-1623822Y-7549845D02*
G01*
X-1623822Y-7501229D01*
X-1672386Y-7501229D01*
X-1669135Y-7507833D01*
X-1661464Y-7519365D01*
X-1652320Y-7529779D01*
X-1641906Y-7538872D01*
X-1630375Y-7546594D01*
G37*
G36*
X662178Y-7549845D02*
G01*
X662178Y-7501229D01*
X613613Y-7501229D01*
X616864Y-7507833D01*
X624535Y-7519365D01*
X633679Y-7529779D01*
X644093Y-7538872D01*
X655624Y-7546594D01*
G37*
G36*
X2186178Y-7549845D02*
G01*
X2186178Y-7501229D01*
X2137613Y-7501229D01*
X2140864Y-7507833D01*
X2148535Y-7519365D01*
X2157679Y-7529779D01*
X2168093Y-7538872D01*
X2179624Y-7546594D01*
G37*
G36*
X-99822Y-7549845D02*
G01*
X-99822Y-7501229D01*
X-148386Y-7501229D01*
X-145135Y-7507833D01*
X-137464Y-7519365D01*
X-128320Y-7529779D01*
X-117906Y-7538872D01*
X-106375Y-7546594D01*
G37*
G36*
X1424178Y-7549845D02*
G01*
X1424178Y-7501229D01*
X1375613Y-7501229D01*
X1378864Y-7507833D01*
X1386535Y-7519365D01*
X1395679Y-7529779D01*
X1406093Y-7538872D01*
X1417624Y-7546594D01*
G37*
G36*
X-2385822Y-7549845D02*
G01*
X-2385822Y-7501229D01*
X-2434386Y-7501229D01*
X-2431135Y-7507833D01*
X-2423464Y-7519365D01*
X-2414320Y-7529779D01*
X-2403906Y-7538872D01*
X-2392375Y-7546594D01*
G37*
G36*
X-1531112Y-7549845D02*
G01*
X-1524508Y-7546594D01*
X-1513027Y-7538872D01*
X-1502562Y-7529779D01*
X-1493469Y-7519365D01*
X-1485747Y-7507833D01*
X-1482496Y-7501229D01*
X-1531112Y-7501229D01*
G37*
G36*
X-769112Y-7549845D02*
G01*
X-762508Y-7546594D01*
X-751027Y-7538872D01*
X-740562Y-7529779D01*
X-731469Y-7519365D01*
X-723747Y-7507833D01*
X-720496Y-7501229D01*
X-769112Y-7501229D01*
G37*
G36*
X-3055112Y-7549845D02*
G01*
X-3048508Y-7546594D01*
X-3036976Y-7538872D01*
X-3026562Y-7529779D01*
X-3017469Y-7519365D01*
X-3009747Y-7507833D01*
X-3006496Y-7501229D01*
X-3055112Y-7501229D01*
G37*
G36*
X-7112Y-7549845D02*
G01*
X-508Y-7546594D01*
X10972Y-7538872D01*
X21437Y-7529779D01*
X30530Y-7519365D01*
X38252Y-7507833D01*
X41503Y-7501229D01*
X-7112Y-7501229D01*
G37*
G36*
X754888Y-7549845D02*
G01*
X761492Y-7546594D01*
X772972Y-7538872D01*
X783437Y-7529779D01*
X792530Y-7519365D01*
X800252Y-7507833D01*
X803503Y-7501229D01*
X754888Y-7501229D01*
G37*
G36*
X1516888Y-7549845D02*
G01*
X1523492Y-7546594D01*
X1534972Y-7538872D01*
X1545437Y-7529779D01*
X1554530Y-7519365D01*
X1562252Y-7507833D01*
X1565503Y-7501229D01*
X1516888Y-7501229D01*
G37*
G36*
X-2293112Y-7549845D02*
G01*
X-2286508Y-7546594D01*
X-2274976Y-7538872D01*
X-2264562Y-7529779D01*
X-2255469Y-7519365D01*
X-2247747Y-7507833D01*
X-2244496Y-7501229D01*
X-2293112Y-7501229D01*
G37*
G36*
X-2293112Y-7408519D02*
G01*
X-2244496Y-7408519D01*
X-2247747Y-7401915D01*
X-2255469Y-7390434D01*
X-2264562Y-7380020D01*
X-2274976Y-7370876D01*
X-2286508Y-7363206D01*
X-2293112Y-7359954D01*
G37*
G36*
X-148386Y-7408519D02*
G01*
X-99822Y-7408519D01*
X-99822Y-7359954D01*
X-106375Y-7363206D01*
X-117906Y-7370876D01*
X-128320Y-7380020D01*
X-137464Y-7390434D01*
X-145135Y-7401915D01*
G37*
G36*
X-1531112Y-7408519D02*
G01*
X-1482496Y-7408519D01*
X-1485747Y-7401915D01*
X-1493469Y-7390434D01*
X-1502562Y-7380020D01*
X-1513027Y-7370876D01*
X-1524508Y-7363206D01*
X-1531112Y-7359954D01*
G37*
G36*
X1375613Y-7408519D02*
G01*
X1424178Y-7408519D01*
X1424178Y-7359954D01*
X1417624Y-7363206D01*
X1406093Y-7370876D01*
X1395679Y-7380020D01*
X1386535Y-7390434D01*
X1378864Y-7401915D01*
G37*
G36*
X-1672386Y-7408519D02*
G01*
X-1623822Y-7408519D01*
X-1623822Y-7359954D01*
X-1630375Y-7363206D01*
X-1641906Y-7370876D01*
X-1652320Y-7380020D01*
X-1661464Y-7390434D01*
X-1669135Y-7401915D01*
G37*
G36*
X-3055112Y-7408519D02*
G01*
X-3006496Y-7408519D01*
X-3009747Y-7401915D01*
X-3017469Y-7390434D01*
X-3026562Y-7380020D01*
X-3036976Y-7370876D01*
X-3048508Y-7363206D01*
X-3055112Y-7359954D01*
G37*
G36*
X-769112Y-7408519D02*
G01*
X-720496Y-7408519D01*
X-723747Y-7401915D01*
X-731469Y-7390434D01*
X-740562Y-7380020D01*
X-751027Y-7370876D01*
X-762508Y-7363206D01*
X-769112Y-7359954D01*
G37*
G36*
X-910386Y-7408519D02*
G01*
X-861821Y-7408519D01*
X-861821Y-7359954D01*
X-868375Y-7363206D01*
X-879906Y-7370876D01*
X-890320Y-7380020D01*
X-899464Y-7390434D01*
X-907135Y-7401915D01*
G37*
G36*
X-3196386Y-7408519D02*
G01*
X-3147822Y-7408519D01*
X-3147822Y-7359954D01*
X-3154375Y-7363206D01*
X-3165906Y-7370876D01*
X-3176320Y-7380020D01*
X-3185464Y-7390434D01*
X-3193135Y-7401915D01*
G37*
G36*
X-7112Y-7408519D02*
G01*
X41503Y-7408519D01*
X38252Y-7401915D01*
X30530Y-7390434D01*
X21437Y-7380020D01*
X10972Y-7370876D01*
X-508Y-7363206D01*
X-7112Y-7359954D01*
G37*
G36*
X-2434386Y-7408519D02*
G01*
X-2385822Y-7408519D01*
X-2385822Y-7359954D01*
X-2392375Y-7363206D01*
X-2403906Y-7370876D01*
X-2414320Y-7380020D01*
X-2423464Y-7390434D01*
X-2431135Y-7401915D01*
G37*
G36*
X1516888Y-7408519D02*
G01*
X1565503Y-7408519D01*
X1562252Y-7401915D01*
X1554530Y-7390434D01*
X1545437Y-7380020D01*
X1534972Y-7370876D01*
X1523492Y-7363206D01*
X1516888Y-7359954D01*
G37*
G36*
X754888Y-7408519D02*
G01*
X803503Y-7408519D01*
X800252Y-7401915D01*
X792530Y-7390434D01*
X783437Y-7380020D01*
X772972Y-7370876D01*
X761492Y-7363206D01*
X754888Y-7359954D01*
G37*
G36*
X613613Y-7408519D02*
G01*
X662178Y-7408519D01*
X662178Y-7359954D01*
X655624Y-7363206D01*
X644093Y-7370876D01*
X633679Y-7380020D01*
X624535Y-7390434D01*
X616864Y-7401915D01*
G37*
G36*
X-3609441Y-7201357D02*
G01*
X-3594049Y-7200442D01*
X-3578910Y-7197648D01*
X-3564229Y-7193076D01*
X-3550208Y-7186777D01*
X-3537000Y-7178802D01*
X-3524910Y-7169302D01*
X-3514039Y-7158431D01*
X-3504539Y-7146290D01*
X-3496564Y-7133132D01*
X-3490214Y-7119061D01*
X-3485642Y-7104380D01*
X-3482898Y-7089241D01*
X-3481933Y-7073900D01*
X-3482898Y-7058507D01*
X-3485642Y-7043369D01*
X-3490214Y-7028688D01*
X-3496564Y-7014616D01*
X-3504539Y-7001459D01*
X-3514039Y-6989318D01*
X-3524910Y-6978446D01*
X-3537000Y-6968947D01*
X-3550208Y-6960971D01*
X-3564229Y-6954672D01*
X-3578910Y-6950100D01*
X-3594049Y-6947306D01*
X-3609441Y-6946392D01*
X-3624834Y-6947306D01*
X-3639972Y-6950100D01*
X-3654653Y-6954672D01*
X-3668674Y-6960971D01*
X-3681882Y-6968947D01*
X-3693972Y-6978446D01*
X-3704844Y-6989318D01*
X-3714343Y-7001459D01*
X-3722319Y-7014616D01*
X-3728669Y-7028688D01*
X-3733241Y-7043369D01*
X-3735984Y-7058507D01*
X-3736949Y-7073900D01*
X-3735984Y-7089241D01*
X-3733241Y-7104380D01*
X-3728669Y-7119061D01*
X-3722319Y-7133132D01*
X-3714343Y-7146290D01*
X-3704844Y-7158431D01*
X-3693972Y-7169302D01*
X-3681882Y-7178802D01*
X-3668674Y-7186777D01*
X-3654653Y-7193076D01*
X-3639972Y-7197648D01*
X-3624834Y-7200442D01*
G37*
G36*
X2232558Y-7199782D02*
G01*
X2247900Y-7198868D01*
X2263038Y-7196074D01*
X2277719Y-7191502D01*
X2291791Y-7185202D01*
X2304948Y-7177227D01*
X2317089Y-7167727D01*
X2327960Y-7156856D01*
X2337460Y-7144715D01*
X2345436Y-7131558D01*
X2351735Y-7117486D01*
X2356307Y-7102805D01*
X2359101Y-7087666D01*
X2360015Y-7072325D01*
X2359101Y-7056932D01*
X2356307Y-7041794D01*
X2351735Y-7027113D01*
X2345436Y-7013041D01*
X2337460Y-6999884D01*
X2327960Y-6987743D01*
X2317089Y-6976872D01*
X2304948Y-6967372D01*
X2291791Y-6959396D01*
X2277719Y-6953097D01*
X2263038Y-6948525D01*
X2247900Y-6945731D01*
X2232558Y-6944817D01*
X2217166Y-6945731D01*
X2202027Y-6948525D01*
X2187346Y-6953097D01*
X2173274Y-6959396D01*
X2160117Y-6967372D01*
X2147976Y-6976872D01*
X2137105Y-6987743D01*
X2127605Y-6999884D01*
X2119630Y-7013041D01*
X2113330Y-7027113D01*
X2108758Y-7041794D01*
X2105964Y-7056932D01*
X2105050Y-7072325D01*
X2105964Y-7087666D01*
X2108758Y-7102805D01*
X2113330Y-7117486D01*
X2119630Y-7131558D01*
X2127605Y-7144715D01*
X2137105Y-7156856D01*
X2147976Y-7167727D01*
X2160117Y-7177227D01*
X2173274Y-7185202D01*
X2187346Y-7191502D01*
X2202027Y-7196074D01*
X2217166Y-7198868D01*
G37*
G36*
X-3528771Y-6816496D02*
G01*
X-3359912Y-6816496D01*
X-3353612Y-6815785D01*
X-3348126Y-6813854D01*
X-3343249Y-6810806D01*
X-3339134Y-6806692D01*
X-3336086Y-6801815D01*
X-3334156Y-6796328D01*
X-3333445Y-6790029D01*
X-3333445Y-6621170D01*
X-3334156Y-6614820D01*
X-3336086Y-6609384D01*
X-3339134Y-6604457D01*
X-3343249Y-6600393D01*
X-3348126Y-6597294D01*
X-3353612Y-6595364D01*
X-3359912Y-6594652D01*
X-3528771Y-6594652D01*
X-3535121Y-6595364D01*
X-3540556Y-6597294D01*
X-3545484Y-6600393D01*
X-3549548Y-6604457D01*
X-3552647Y-6609384D01*
X-3554526Y-6614820D01*
X-3555237Y-6621170D01*
X-3555237Y-6790029D01*
X-3554526Y-6796328D01*
X-3552647Y-6801815D01*
X-3549548Y-6806692D01*
X-3545484Y-6810806D01*
X-3540556Y-6813854D01*
X-3535121Y-6815785D01*
G37*
G36*
X-3649522Y-6805066D02*
G01*
X-3637838Y-6798513D01*
X-3626459Y-6790029D01*
X-3616248Y-6780123D01*
X-3607409Y-6769049D01*
X-3600043Y-6756857D01*
X-3598976Y-6754418D01*
X-3649522Y-6754418D01*
G37*
G36*
X-2733141Y-6761937D02*
G01*
X-2723337Y-6761073D01*
X-2713888Y-6758533D01*
X-2704947Y-6754368D01*
X-2696921Y-6748729D01*
X-2695346Y-6747154D01*
X-2692044Y-6744970D01*
X-2688132Y-6744208D01*
X-2316124Y-6744208D01*
X-2308098Y-6743395D01*
X-2300884Y-6741210D01*
X-2294229Y-6737654D01*
X-2287981Y-6732524D01*
X-1582013Y-6026556D01*
X-1579118Y-6024524D01*
X-1575714Y-6023610D01*
X-1567688Y-6022898D01*
X-1558188Y-6020358D01*
X-1549298Y-6016193D01*
X-1541221Y-6010554D01*
X-1534312Y-6003645D01*
X-1528673Y-5995568D01*
X-1524508Y-5986678D01*
X-1521968Y-5977178D01*
X-1521104Y-5967425D01*
X-1521968Y-5957620D01*
X-1524508Y-5948121D01*
X-1528673Y-5939231D01*
X-1534312Y-5931154D01*
X-1541221Y-5924245D01*
X-1549298Y-5918606D01*
X-1558188Y-5914440D01*
X-1567688Y-5911900D01*
X-1577441Y-5911037D01*
X-1587246Y-5911900D01*
X-1596745Y-5914440D01*
X-1605635Y-5918606D01*
X-1613712Y-5924245D01*
X-1620621Y-5931154D01*
X-1626260Y-5939231D01*
X-1630426Y-5948121D01*
X-1632966Y-5957620D01*
X-1633677Y-5965647D01*
X-1634591Y-5969050D01*
X-1636623Y-5971946D01*
X-2328672Y-6663994D01*
X-2331974Y-6666179D01*
X-2335834Y-6666992D01*
X-2688132Y-6666992D01*
X-2692044Y-6666179D01*
X-2695346Y-6663994D01*
X-2696921Y-6662420D01*
X-2704947Y-6656781D01*
X-2713888Y-6652615D01*
X-2723337Y-6650075D01*
X-2733141Y-6649212D01*
X-2742946Y-6650075D01*
X-2752394Y-6652615D01*
X-2761335Y-6656781D01*
X-2769362Y-6662420D01*
X-2776321Y-6669328D01*
X-2781960Y-6677406D01*
X-2786075Y-6686296D01*
X-2788615Y-6695795D01*
X-2789478Y-6705600D01*
X-2788615Y-6715353D01*
X-2786075Y-6724853D01*
X-2781960Y-6733743D01*
X-2776321Y-6741820D01*
X-2769362Y-6748729D01*
X-2761335Y-6754368D01*
X-2752394Y-6758533D01*
X-2742946Y-6761073D01*
G37*
G36*
X-3649522Y-6656730D02*
G01*
X-3599027Y-6656730D01*
X-3603548Y-6648094D01*
X-3611676Y-6636461D01*
X-3621227Y-6625945D01*
X-3632047Y-6616700D01*
X-3643934Y-6608978D01*
X-3649522Y-6606286D01*
G37*
G36*
X-3451453Y-6562242D02*
G01*
X-3437229Y-6562242D01*
X-3423158Y-6560413D01*
X-3409391Y-6556806D01*
X-3396234Y-6551472D01*
X-3383838Y-6544513D01*
X-3372459Y-6536029D01*
X-3362248Y-6526123D01*
X-3353409Y-6515049D01*
X-3346043Y-6502857D01*
X-3340303Y-6489903D01*
X-3336239Y-6476238D01*
X-3333953Y-6462217D01*
X-3333546Y-6448044D01*
X-3334867Y-6433870D01*
X-3338068Y-6420053D01*
X-3342944Y-6406692D01*
X-3349548Y-6394094D01*
X-3357676Y-6382461D01*
X-3367227Y-6371945D01*
X-3378047Y-6362700D01*
X-3389934Y-6354978D01*
X-3402736Y-6348780D01*
X-3416249Y-6344310D01*
X-3430168Y-6341618D01*
X-3444341Y-6340703D01*
X-3458514Y-6341618D01*
X-3472484Y-6344310D01*
X-3485946Y-6348780D01*
X-3498748Y-6354978D01*
X-3510686Y-6362700D01*
X-3521506Y-6371945D01*
X-3531057Y-6382461D01*
X-3539185Y-6394094D01*
X-3545738Y-6406692D01*
X-3550665Y-6420053D01*
X-3553815Y-6433870D01*
X-3555187Y-6448044D01*
X-3554729Y-6462217D01*
X-3552444Y-6476238D01*
X-3548430Y-6489903D01*
X-3542639Y-6502857D01*
X-3535273Y-6515049D01*
X-3526434Y-6526123D01*
X-3516223Y-6536029D01*
X-3504844Y-6544513D01*
X-3492449Y-6551472D01*
X-3479292Y-6556806D01*
X-3465525Y-6560413D01*
G37*
G36*
X-3649522Y-6551066D02*
G01*
X-3637838Y-6544513D01*
X-3626459Y-6536029D01*
X-3616248Y-6526123D01*
X-3607409Y-6515049D01*
X-3600043Y-6502857D01*
X-3598976Y-6500418D01*
X-3649522Y-6500418D01*
G37*
G36*
X-2707741Y-6507937D02*
G01*
X-2697937Y-6507073D01*
X-2688488Y-6504533D01*
X-2679547Y-6500368D01*
X-2671521Y-6494729D01*
X-2669946Y-6493154D01*
X-2666644Y-6490970D01*
X-2662732Y-6490208D01*
X-2265324Y-6490208D01*
X-2257298Y-6489395D01*
X-2250084Y-6487210D01*
X-2243429Y-6483654D01*
X-2237181Y-6478524D01*
X-1620113Y-5861456D01*
X-1617218Y-5859424D01*
X-1613814Y-5858510D01*
X-1605788Y-5857798D01*
X-1596288Y-5855258D01*
X-1587398Y-5851093D01*
X-1579321Y-5845454D01*
X-1572412Y-5838545D01*
X-1566773Y-5830468D01*
X-1562608Y-5821578D01*
X-1560068Y-5812078D01*
X-1559204Y-5802325D01*
X-1560068Y-5792520D01*
X-1562608Y-5783021D01*
X-1566773Y-5774131D01*
X-1572412Y-5766054D01*
X-1579321Y-5759145D01*
X-1582216Y-5757113D01*
X-1585112Y-5754014D01*
X-1586484Y-5750052D01*
X-1586128Y-5745835D01*
X-1584045Y-5742127D01*
X-1580692Y-5739587D01*
X-1574698Y-5736793D01*
X-1566621Y-5731154D01*
X-1559712Y-5724245D01*
X-1554073Y-5716168D01*
X-1549908Y-5707278D01*
X-1547368Y-5697778D01*
X-1546504Y-5688025D01*
X-1547368Y-5678220D01*
X-1549908Y-5668721D01*
X-1554073Y-5659831D01*
X-1559712Y-5651754D01*
X-1566621Y-5644845D01*
X-1574698Y-5639206D01*
X-1583588Y-5635040D01*
X-1593088Y-5632500D01*
X-1602841Y-5631637D01*
X-1612646Y-5632500D01*
X-1622145Y-5635040D01*
X-1631035Y-5639206D01*
X-1639112Y-5644845D01*
X-1646021Y-5651754D01*
X-1651660Y-5659831D01*
X-1655825Y-5668721D01*
X-1658366Y-5678220D01*
X-1659077Y-5686247D01*
X-1659991Y-5689650D01*
X-1662023Y-5692546D01*
X-2125472Y-6155994D01*
X-2128774Y-6158179D01*
X-2132634Y-6158992D01*
X-2662732Y-6158992D01*
X-2666644Y-6158179D01*
X-2669946Y-6155994D01*
X-2671521Y-6154420D01*
X-2679547Y-6148781D01*
X-2688488Y-6144615D01*
X-2697937Y-6142075D01*
X-2707741Y-6141212D01*
X-2717546Y-6142075D01*
X-2726994Y-6144615D01*
X-2735935Y-6148781D01*
X-2743962Y-6154420D01*
X-2750921Y-6161328D01*
X-2756560Y-6169406D01*
X-2760675Y-6178296D01*
X-2763215Y-6187795D01*
X-2764078Y-6197600D01*
X-2763215Y-6207353D01*
X-2760675Y-6216853D01*
X-2756560Y-6225743D01*
X-2750921Y-6233820D01*
X-2743962Y-6240729D01*
X-2735935Y-6246368D01*
X-2726994Y-6250533D01*
X-2717546Y-6253073D01*
X-2707741Y-6253937D01*
X-2697937Y-6253073D01*
X-2688488Y-6250533D01*
X-2679547Y-6246368D01*
X-2671521Y-6240729D01*
X-2669946Y-6239154D01*
X-2666644Y-6236970D01*
X-2662732Y-6236208D01*
X-2128570Y-6236208D01*
X-2124710Y-6236970D01*
X-2121408Y-6239154D01*
X-2119172Y-6242456D01*
X-2118410Y-6246368D01*
X-2119172Y-6250228D01*
X-2121408Y-6253530D01*
X-2277872Y-6409994D01*
X-2281174Y-6412179D01*
X-2285034Y-6412992D01*
X-2662732Y-6412992D01*
X-2666644Y-6412179D01*
X-2669946Y-6409994D01*
X-2671521Y-6408420D01*
X-2679547Y-6402781D01*
X-2688488Y-6398615D01*
X-2697937Y-6396075D01*
X-2707741Y-6395212D01*
X-2717546Y-6396075D01*
X-2726994Y-6398615D01*
X-2735935Y-6402781D01*
X-2743962Y-6408420D01*
X-2750921Y-6415328D01*
X-2756560Y-6423406D01*
X-2760675Y-6432296D01*
X-2763215Y-6441795D01*
X-2764078Y-6451600D01*
X-2763215Y-6461353D01*
X-2760675Y-6470853D01*
X-2756560Y-6479743D01*
X-2750921Y-6487820D01*
X-2743962Y-6494729D01*
X-2735935Y-6500368D01*
X-2726994Y-6504533D01*
X-2717546Y-6507073D01*
G37*
G36*
X-3649522Y-6402730D02*
G01*
X-3599027Y-6402730D01*
X-3603548Y-6394094D01*
X-3611676Y-6382461D01*
X-3621227Y-6371945D01*
X-3632047Y-6362700D01*
X-3643934Y-6354978D01*
X-3649522Y-6352286D01*
G37*
G36*
X-3451453Y-6308242D02*
G01*
X-3437229Y-6308242D01*
X-3423158Y-6306413D01*
X-3409391Y-6302806D01*
X-3396234Y-6297472D01*
X-3383838Y-6290513D01*
X-3372459Y-6282029D01*
X-3362248Y-6272123D01*
X-3353409Y-6261049D01*
X-3346043Y-6248857D01*
X-3340303Y-6235903D01*
X-3336239Y-6222238D01*
X-3333953Y-6208217D01*
X-3333546Y-6194044D01*
X-3334867Y-6179870D01*
X-3338068Y-6166053D01*
X-3342944Y-6152692D01*
X-3349548Y-6140094D01*
X-3357676Y-6128461D01*
X-3367227Y-6117945D01*
X-3378047Y-6108700D01*
X-3389934Y-6100978D01*
X-3402736Y-6094780D01*
X-3416249Y-6090310D01*
X-3430168Y-6087618D01*
X-3444341Y-6086703D01*
X-3458514Y-6087618D01*
X-3472484Y-6090310D01*
X-3485946Y-6094780D01*
X-3498748Y-6100978D01*
X-3510686Y-6108700D01*
X-3521506Y-6117945D01*
X-3531057Y-6128461D01*
X-3539185Y-6140094D01*
X-3545738Y-6152692D01*
X-3550665Y-6166053D01*
X-3553815Y-6179870D01*
X-3555187Y-6194044D01*
X-3554729Y-6208217D01*
X-3552444Y-6222238D01*
X-3548430Y-6235903D01*
X-3542639Y-6248857D01*
X-3535273Y-6261049D01*
X-3526434Y-6272123D01*
X-3516223Y-6282029D01*
X-3504844Y-6290513D01*
X-3492449Y-6297472D01*
X-3479292Y-6302806D01*
X-3465525Y-6306413D01*
G37*
G36*
X-3649522Y-6297066D02*
G01*
X-3637838Y-6290513D01*
X-3626459Y-6282029D01*
X-3616248Y-6272123D01*
X-3607409Y-6261049D01*
X-3600043Y-6248857D01*
X-3598976Y-6246418D01*
X-3649522Y-6246418D01*
G37*
G36*
X-3649522Y-6148730D02*
G01*
X-3599027Y-6148730D01*
X-3603548Y-6140094D01*
X-3611676Y-6128461D01*
X-3621227Y-6117945D01*
X-3632047Y-6108700D01*
X-3643934Y-6100978D01*
X-3649522Y-6098286D01*
G37*
G36*
X-650341Y-6076137D02*
G01*
X-640588Y-6075273D01*
X-631088Y-6072733D01*
X-622198Y-6068568D01*
X-614121Y-6062929D01*
X-612698Y-6061506D01*
X-609396Y-6059271D01*
X-605485Y-6058509D01*
X-284327Y-6058509D01*
X-276352Y-6057747D01*
X-269087Y-6055512D01*
X-262432Y-6051956D01*
X-256184Y-6046876D01*
X-105460Y-5896356D01*
X-102158Y-5894171D01*
X-98298Y-5893409D01*
X1508150Y-5893409D01*
X1516176Y-5892596D01*
X1523390Y-5890412D01*
X1530096Y-5886856D01*
X1536293Y-5881725D01*
X1751533Y-5666282D01*
X1756613Y-5660085D01*
X1760169Y-5653379D01*
X1762353Y-5646166D01*
X1763166Y-5638139D01*
X1763166Y-5539384D01*
X1763877Y-5535726D01*
X1765858Y-5532526D01*
X1768856Y-5530291D01*
X1776882Y-5526328D01*
X1788261Y-5518708D01*
X1798523Y-5509666D01*
X1807565Y-5499404D01*
X1815185Y-5488025D01*
X1821230Y-5475732D01*
X1825599Y-5462778D01*
X1828292Y-5449366D01*
X1829206Y-5435701D01*
X1828292Y-5422036D01*
X1825599Y-5408625D01*
X1821230Y-5395671D01*
X1815185Y-5383377D01*
X1807565Y-5371998D01*
X1799183Y-5362448D01*
X1797253Y-5359146D01*
X1796694Y-5355336D01*
X1797557Y-5351576D01*
X1799793Y-5348427D01*
X1803044Y-5346344D01*
X1806803Y-5345582D01*
X1896313Y-5345582D01*
X1900072Y-5346344D01*
X1903323Y-5348427D01*
X1905558Y-5351576D01*
X1906422Y-5355336D01*
X1905863Y-5359146D01*
X1903933Y-5362448D01*
X1895551Y-5371998D01*
X1887931Y-5383377D01*
X1884680Y-5389981D01*
X1932838Y-5389981D01*
X1932838Y-5355742D01*
X1933600Y-5351881D01*
X1935835Y-5348579D01*
X1939086Y-5346344D01*
X1942998Y-5345582D01*
X2014118Y-5345582D01*
X2018030Y-5346344D01*
X2021281Y-5348579D01*
X2023516Y-5351881D01*
X2024278Y-5355742D01*
X2024278Y-5389981D01*
X2072436Y-5389981D01*
X2069185Y-5383377D01*
X2061565Y-5371998D01*
X2053183Y-5362448D01*
X2051253Y-5359146D01*
X2050694Y-5355336D01*
X2051557Y-5351576D01*
X2053793Y-5348427D01*
X2057044Y-5346344D01*
X2060803Y-5345582D01*
X2093925Y-5345582D01*
X2101951Y-5344820D01*
X2109216Y-5342636D01*
X2115870Y-5339029D01*
X2122068Y-5333949D01*
X2181656Y-5274360D01*
X2184857Y-5272227D01*
X2188565Y-5271414D01*
X2192375Y-5272024D01*
X2201011Y-5275173D01*
X2214829Y-5278374D01*
X2229002Y-5279694D01*
X2243175Y-5279237D01*
X2257196Y-5277002D01*
X2270810Y-5272938D01*
X2283815Y-5267198D01*
X2295956Y-5259832D01*
X2307082Y-5250992D01*
X2316988Y-5240782D01*
X2325471Y-5229402D01*
X2332431Y-5217007D01*
X2337765Y-5203850D01*
X2341372Y-5190083D01*
X2343200Y-5176012D01*
X2343200Y-5161788D01*
X2341372Y-5147665D01*
X2337765Y-5133949D01*
X2332431Y-5120792D01*
X2325471Y-5108397D01*
X2316988Y-5097018D01*
X2307082Y-5086807D01*
X2295956Y-5077917D01*
X2283815Y-5070551D01*
X2270810Y-5064810D01*
X2257196Y-5060797D01*
X2243175Y-5058511D01*
X2229002Y-5058054D01*
X2214829Y-5059426D01*
X2201011Y-5062575D01*
X2187651Y-5067503D01*
X2175052Y-5074056D01*
X2163419Y-5082184D01*
X2152904Y-5091734D01*
X2143658Y-5102555D01*
X2135936Y-5114493D01*
X2129739Y-5127294D01*
X2125268Y-5140756D01*
X2122576Y-5154726D01*
X2121662Y-5168900D01*
X2122576Y-5183073D01*
X2125268Y-5196992D01*
X2129434Y-5209489D01*
X2129942Y-5213146D01*
X2129078Y-5216804D01*
X2126945Y-5219852D01*
X2081428Y-5265420D01*
X2078126Y-5267604D01*
X2074214Y-5268366D01*
X2060193Y-5268366D01*
X2056333Y-5267604D01*
X2053082Y-5265420D01*
X2050796Y-5262168D01*
X2050034Y-5258308D01*
X2050796Y-5254447D01*
X2052929Y-5251145D01*
X2062988Y-5240782D01*
X2071471Y-5229402D01*
X2078024Y-5217718D01*
X2027377Y-5217718D01*
X2027377Y-5258206D01*
X2026615Y-5262118D01*
X2024430Y-5265420D01*
X2021128Y-5267604D01*
X2017217Y-5268366D01*
X1939848Y-5268366D01*
X1935937Y-5267604D01*
X1932686Y-5265420D01*
X1930450Y-5262118D01*
X1929688Y-5258206D01*
X1929688Y-5217718D01*
X1879244Y-5217718D01*
X1881936Y-5223306D01*
X1889658Y-5235194D01*
X1898904Y-5246014D01*
X1904034Y-5250688D01*
X1906422Y-5253939D01*
X1907336Y-5257901D01*
X1906676Y-5261864D01*
X1904492Y-5265267D01*
X1901139Y-5267553D01*
X1897176Y-5268366D01*
X1806193Y-5268366D01*
X1802333Y-5267604D01*
X1799082Y-5265420D01*
X1796796Y-5262168D01*
X1796034Y-5258308D01*
X1796796Y-5254447D01*
X1798929Y-5251145D01*
X1808988Y-5240782D01*
X1817471Y-5229402D01*
X1824431Y-5217007D01*
X1829765Y-5203850D01*
X1833372Y-5190083D01*
X1835200Y-5176012D01*
X1835200Y-5161788D01*
X1833372Y-5147665D01*
X1829765Y-5133949D01*
X1824431Y-5120792D01*
X1817471Y-5108397D01*
X1808988Y-5097018D01*
X1799082Y-5086807D01*
X1787956Y-5077917D01*
X1775815Y-5070551D01*
X1762810Y-5064810D01*
X1749196Y-5060797D01*
X1735175Y-5058511D01*
X1721002Y-5058054D01*
X1706829Y-5059426D01*
X1693011Y-5062575D01*
X1679651Y-5067503D01*
X1667052Y-5074056D01*
X1655419Y-5082184D01*
X1644904Y-5091734D01*
X1635658Y-5102555D01*
X1627936Y-5114493D01*
X1621739Y-5127294D01*
X1617268Y-5140756D01*
X1614576Y-5154726D01*
X1613662Y-5168900D01*
X1614576Y-5183073D01*
X1617268Y-5196992D01*
X1621739Y-5210505D01*
X1627936Y-5223306D01*
X1635658Y-5235194D01*
X1644904Y-5246014D01*
X1650034Y-5250688D01*
X1652422Y-5253939D01*
X1653336Y-5257901D01*
X1652676Y-5261864D01*
X1650492Y-5265267D01*
X1647139Y-5267553D01*
X1643176Y-5268366D01*
X1552194Y-5268366D01*
X1548333Y-5267604D01*
X1545082Y-5265420D01*
X1542796Y-5262168D01*
X1542034Y-5258308D01*
X1542796Y-5254447D01*
X1544929Y-5251145D01*
X1554988Y-5240782D01*
X1563471Y-5229402D01*
X1570431Y-5217007D01*
X1575765Y-5203850D01*
X1579372Y-5190083D01*
X1581200Y-5176012D01*
X1581200Y-5161788D01*
X1579372Y-5147665D01*
X1575765Y-5133949D01*
X1570431Y-5120792D01*
X1563471Y-5108397D01*
X1554988Y-5097018D01*
X1545082Y-5086807D01*
X1533956Y-5077917D01*
X1521815Y-5070551D01*
X1508810Y-5064810D01*
X1495196Y-5060797D01*
X1481175Y-5058511D01*
X1467002Y-5058054D01*
X1452829Y-5059426D01*
X1439011Y-5062575D01*
X1425651Y-5067503D01*
X1413052Y-5074056D01*
X1401419Y-5082184D01*
X1390904Y-5091734D01*
X1381658Y-5102555D01*
X1373936Y-5114493D01*
X1367739Y-5127294D01*
X1363268Y-5140756D01*
X1360576Y-5154726D01*
X1359662Y-5168900D01*
X1360576Y-5183073D01*
X1363268Y-5196992D01*
X1367739Y-5210505D01*
X1373936Y-5223306D01*
X1381658Y-5235194D01*
X1390904Y-5246014D01*
X1396034Y-5250688D01*
X1398422Y-5253939D01*
X1399336Y-5257901D01*
X1398676Y-5261864D01*
X1396492Y-5265267D01*
X1393139Y-5267553D01*
X1389176Y-5268366D01*
X1337106Y-5268366D01*
X1332992Y-5267502D01*
X1329537Y-5265013D01*
X1327454Y-5261305D01*
X1326997Y-5257088D01*
X1327454Y-5253329D01*
X1327454Y-5084470D01*
X1326743Y-5078120D01*
X1324813Y-5072684D01*
X1321765Y-5067757D01*
X1317650Y-5063693D01*
X1312722Y-5060594D01*
X1307287Y-5058714D01*
X1300988Y-5058003D01*
X1132128Y-5058003D01*
X1125778Y-5058714D01*
X1120343Y-5060594D01*
X1115415Y-5063693D01*
X1111351Y-5067757D01*
X1108252Y-5072684D01*
X1106322Y-5078120D01*
X1105611Y-5084470D01*
X1105611Y-5253329D01*
X1106068Y-5257088D01*
X1105662Y-5261305D01*
X1103528Y-5265013D01*
X1100124Y-5267502D01*
X1095959Y-5268366D01*
X614426Y-5268366D01*
X610565Y-5267604D01*
X607263Y-5265420D01*
X418693Y-5076850D01*
X412445Y-5071719D01*
X405790Y-5068163D01*
X398576Y-5065979D01*
X390550Y-5065166D01*
X-351383Y-5065166D01*
X-355295Y-5064404D01*
X-358597Y-5062220D01*
X-360121Y-5060645D01*
X-368198Y-5055006D01*
X-377088Y-5050840D01*
X-386588Y-5048300D01*
X-396341Y-5047437D01*
X-406146Y-5048300D01*
X-415645Y-5050840D01*
X-424535Y-5055006D01*
X-432612Y-5060645D01*
X-439521Y-5067554D01*
X-445160Y-5075631D01*
X-449326Y-5084521D01*
X-451866Y-5094020D01*
X-452729Y-5103825D01*
X-451866Y-5113578D01*
X-449326Y-5123078D01*
X-445160Y-5131968D01*
X-439521Y-5140045D01*
X-432612Y-5146954D01*
X-424535Y-5152593D01*
X-415645Y-5156758D01*
X-406146Y-5159298D01*
X-396341Y-5160162D01*
X-386588Y-5159298D01*
X-377088Y-5156758D01*
X-368198Y-5152593D01*
X-360121Y-5146954D01*
X-358546Y-5145379D01*
X-355244Y-5143144D01*
X-351383Y-5142382D01*
X-91287Y-5142382D01*
X-87122Y-5143296D01*
X-83718Y-5145786D01*
X-81584Y-5149494D01*
X-81178Y-5153710D01*
X-82550Y-5157774D01*
X-85445Y-5160873D01*
X-89712Y-5163820D01*
X-96621Y-5170779D01*
X-102260Y-5178806D01*
X-106426Y-5187746D01*
X-108966Y-5197195D01*
X-109829Y-5207000D01*
X-108966Y-5216804D01*
X-106426Y-5226253D01*
X-102260Y-5235194D01*
X-96621Y-5243220D01*
X-95046Y-5244795D01*
X-92811Y-5248097D01*
X-92049Y-5252008D01*
X-92049Y-5478881D01*
X-92811Y-5482742D01*
X-95046Y-5486044D01*
X-366420Y-5757418D01*
X-369316Y-5759450D01*
X-372719Y-5760364D01*
X-380746Y-5761075D01*
X-390245Y-5763615D01*
X-399135Y-5767781D01*
X-407212Y-5773420D01*
X-414121Y-5780328D01*
X-419760Y-5788406D01*
X-423926Y-5797296D01*
X-426466Y-5806795D01*
X-427329Y-5816600D01*
X-426466Y-5826353D01*
X-423926Y-5835853D01*
X-419760Y-5844743D01*
X-414121Y-5852820D01*
X-407212Y-5859729D01*
X-399135Y-5865368D01*
X-390245Y-5869533D01*
X-380746Y-5872073D01*
X-370941Y-5872937D01*
X-367233Y-5872581D01*
X-363169Y-5873089D01*
X-359613Y-5875121D01*
X-357174Y-5878423D01*
X-356209Y-5882436D01*
X-356920Y-5886450D01*
X-359206Y-5889904D01*
X-383997Y-5914694D01*
X-387299Y-5916879D01*
X-391160Y-5917692D01*
X-541883Y-5917692D01*
X-545744Y-5916879D01*
X-549046Y-5914694D01*
X-550621Y-5913120D01*
X-558698Y-5907481D01*
X-567588Y-5903315D01*
X-577088Y-5900775D01*
X-586841Y-5899912D01*
X-596646Y-5900775D01*
X-606145Y-5903315D01*
X-615035Y-5907481D01*
X-623112Y-5913120D01*
X-630021Y-5920028D01*
X-635660Y-5928106D01*
X-639826Y-5936996D01*
X-642366Y-5946495D01*
X-643077Y-5954369D01*
X-643940Y-5957773D01*
X-645972Y-5960668D01*
X-648868Y-5962700D01*
X-652272Y-5963615D01*
X-660146Y-5964275D01*
X-669645Y-5966815D01*
X-678535Y-5970981D01*
X-686612Y-5976620D01*
X-693521Y-5983528D01*
X-699160Y-5991606D01*
X-703326Y-6000496D01*
X-705866Y-6009995D01*
X-706729Y-6019800D01*
X-705866Y-6029553D01*
X-703326Y-6039053D01*
X-699160Y-6047943D01*
X-693521Y-6056020D01*
X-686612Y-6062929D01*
X-678535Y-6068568D01*
X-669645Y-6072733D01*
X-660146Y-6075273D01*
G37*
G36*
X-3451453Y-6054242D02*
G01*
X-3437229Y-6054242D01*
X-3423158Y-6052413D01*
X-3409391Y-6048806D01*
X-3396234Y-6043472D01*
X-3383838Y-6036513D01*
X-3372459Y-6028029D01*
X-3362248Y-6018123D01*
X-3353409Y-6007049D01*
X-3346043Y-5994857D01*
X-3340303Y-5981903D01*
X-3336239Y-5968238D01*
X-3333953Y-5954217D01*
X-3333546Y-5940044D01*
X-3334867Y-5925870D01*
X-3338068Y-5912053D01*
X-3342944Y-5898692D01*
X-3349548Y-5886094D01*
X-3357676Y-5874461D01*
X-3367227Y-5863945D01*
X-3378047Y-5854700D01*
X-3389934Y-5846978D01*
X-3402736Y-5840780D01*
X-3416249Y-5836310D01*
X-3430168Y-5833618D01*
X-3444341Y-5832703D01*
X-3458514Y-5833618D01*
X-3472484Y-5836310D01*
X-3485946Y-5840780D01*
X-3498748Y-5846978D01*
X-3510686Y-5854700D01*
X-3521506Y-5863945D01*
X-3531057Y-5874461D01*
X-3539185Y-5886094D01*
X-3545738Y-5898692D01*
X-3550665Y-5912053D01*
X-3553815Y-5925870D01*
X-3555187Y-5940044D01*
X-3554729Y-5954217D01*
X-3552444Y-5968238D01*
X-3548430Y-5981903D01*
X-3542639Y-5994857D01*
X-3535273Y-6007049D01*
X-3526434Y-6018123D01*
X-3516223Y-6028029D01*
X-3504844Y-6036513D01*
X-3492449Y-6043472D01*
X-3479292Y-6048806D01*
X-3465525Y-6052413D01*
G37*
G36*
X-3649522Y-6043066D02*
G01*
X-3637838Y-6036513D01*
X-3626459Y-6028029D01*
X-3616248Y-6018123D01*
X-3607409Y-6007049D01*
X-3600043Y-5994857D01*
X-3598976Y-5992418D01*
X-3649522Y-5992418D01*
G37*
G36*
X-2707741Y-5999937D02*
G01*
X-2697937Y-5999073D01*
X-2688488Y-5996533D01*
X-2679547Y-5992368D01*
X-2671521Y-5986729D01*
X-2664561Y-5979820D01*
X-2658922Y-5971743D01*
X-2654808Y-5962853D01*
X-2652268Y-5953353D01*
X-2651556Y-5945327D01*
X-2650642Y-5941923D01*
X-2648610Y-5939028D01*
X-2288438Y-5578906D01*
X-2285136Y-5576671D01*
X-2281275Y-5575909D01*
X-645058Y-5575909D01*
X-641146Y-5576671D01*
X-637844Y-5578906D01*
X-603046Y-5613704D01*
X-600811Y-5617006D01*
X-600049Y-5620918D01*
X-600049Y-5669076D01*
X-600811Y-5672937D01*
X-602996Y-5676239D01*
X-620522Y-5693918D01*
X-623417Y-5695950D01*
X-626872Y-5696915D01*
X-634746Y-5697575D01*
X-644245Y-5700115D01*
X-653135Y-5704281D01*
X-661212Y-5709920D01*
X-668121Y-5716828D01*
X-673760Y-5724906D01*
X-677926Y-5733796D01*
X-680466Y-5743295D01*
X-681329Y-5753100D01*
X-680466Y-5762853D01*
X-677926Y-5772353D01*
X-673760Y-5781243D01*
X-668121Y-5789320D01*
X-661212Y-5796229D01*
X-653135Y-5801868D01*
X-644245Y-5806033D01*
X-634746Y-5808573D01*
X-624941Y-5809437D01*
X-615188Y-5808573D01*
X-605688Y-5806033D01*
X-596798Y-5801868D01*
X-588721Y-5796229D01*
X-581812Y-5789320D01*
X-576173Y-5781243D01*
X-572008Y-5772353D01*
X-569468Y-5762853D01*
X-568756Y-5754725D01*
X-567842Y-5751322D01*
X-565861Y-5748426D01*
X-534365Y-5716676D01*
X-529386Y-5710580D01*
X-525830Y-5703925D01*
X-523646Y-5696661D01*
X-522833Y-5688685D01*
X-522833Y-5601208D01*
X-523646Y-5593181D01*
X-525830Y-5585968D01*
X-529386Y-5579262D01*
X-534517Y-5573064D01*
X-597204Y-5510377D01*
X-603402Y-5505246D01*
X-610108Y-5501690D01*
X-617321Y-5499506D01*
X-625348Y-5498693D01*
X-1223060Y-5498693D01*
X-1227328Y-5497779D01*
X-1230782Y-5495188D01*
X-1232814Y-5491378D01*
X-1233119Y-5487060D01*
X-1231595Y-5482996D01*
X-1226870Y-5475732D01*
X-1220673Y-5462930D01*
X-1216202Y-5449417D01*
X-1213510Y-5435498D01*
X-1212596Y-5421325D01*
X-1213510Y-5407101D01*
X-1216202Y-5393182D01*
X-1220673Y-5379669D01*
X-1226870Y-5366867D01*
X-1234592Y-5354980D01*
X-1243838Y-5344160D01*
X-1254353Y-5334609D01*
X-1265986Y-5326481D01*
X-1278585Y-5319928D01*
X-1291945Y-5315000D01*
X-1305763Y-5311851D01*
X-1319936Y-5310479D01*
X-1334109Y-5310936D01*
X-1348130Y-5313222D01*
X-1361795Y-5317236D01*
X-1374749Y-5322976D01*
X-1386941Y-5330342D01*
X-1398016Y-5339232D01*
X-1407922Y-5349443D01*
X-1416405Y-5360822D01*
X-1423365Y-5373217D01*
X-1428699Y-5386374D01*
X-1432306Y-5400090D01*
X-1434134Y-5414213D01*
X-1434134Y-5428386D01*
X-1432306Y-5442508D01*
X-1428699Y-5456224D01*
X-1423365Y-5469432D01*
X-1416405Y-5481777D01*
X-1414119Y-5486501D01*
X-1414221Y-5490972D01*
X-1416202Y-5494985D01*
X-1419707Y-5497728D01*
X-1424127Y-5498693D01*
X-1477060Y-5498693D01*
X-1481328Y-5497779D01*
X-1484782Y-5495188D01*
X-1486814Y-5491378D01*
X-1487119Y-5487060D01*
X-1485595Y-5482996D01*
X-1480870Y-5475732D01*
X-1474673Y-5462930D01*
X-1470202Y-5449417D01*
X-1467510Y-5435498D01*
X-1466596Y-5421325D01*
X-1467510Y-5407101D01*
X-1470202Y-5393182D01*
X-1474673Y-5379669D01*
X-1480870Y-5366867D01*
X-1488592Y-5354980D01*
X-1497838Y-5344160D01*
X-1508353Y-5334609D01*
X-1519986Y-5326481D01*
X-1532585Y-5319928D01*
X-1545945Y-5315000D01*
X-1559763Y-5311851D01*
X-1573936Y-5310479D01*
X-1588109Y-5310936D01*
X-1602130Y-5313222D01*
X-1615795Y-5317236D01*
X-1628749Y-5322976D01*
X-1640941Y-5330342D01*
X-1652016Y-5339232D01*
X-1661922Y-5349443D01*
X-1670405Y-5360822D01*
X-1677365Y-5373217D01*
X-1682699Y-5386374D01*
X-1686306Y-5400090D01*
X-1688134Y-5414213D01*
X-1688134Y-5428386D01*
X-1686306Y-5442508D01*
X-1682699Y-5456224D01*
X-1677365Y-5469432D01*
X-1670405Y-5481777D01*
X-1668119Y-5486501D01*
X-1668221Y-5490972D01*
X-1670202Y-5494985D01*
X-1673707Y-5497728D01*
X-1678076Y-5498693D01*
X-1731060Y-5498693D01*
X-1735328Y-5497779D01*
X-1738782Y-5495188D01*
X-1740814Y-5491378D01*
X-1741119Y-5487060D01*
X-1739595Y-5482996D01*
X-1734870Y-5475732D01*
X-1728673Y-5462930D01*
X-1724202Y-5449417D01*
X-1721510Y-5435498D01*
X-1720596Y-5421325D01*
X-1721510Y-5407101D01*
X-1724202Y-5393182D01*
X-1728673Y-5379669D01*
X-1734870Y-5366867D01*
X-1742592Y-5354980D01*
X-1751838Y-5344160D01*
X-1762353Y-5334609D01*
X-1773986Y-5326481D01*
X-1786585Y-5319928D01*
X-1799945Y-5315000D01*
X-1813763Y-5311851D01*
X-1827936Y-5310479D01*
X-1842109Y-5310936D01*
X-1856130Y-5313222D01*
X-1869795Y-5317236D01*
X-1882749Y-5322976D01*
X-1894941Y-5330342D01*
X-1906016Y-5339232D01*
X-1915922Y-5349443D01*
X-1924405Y-5360822D01*
X-1931365Y-5373217D01*
X-1936699Y-5386374D01*
X-1940306Y-5400090D01*
X-1942134Y-5414213D01*
X-1942134Y-5428386D01*
X-1940306Y-5442508D01*
X-1936699Y-5456224D01*
X-1931365Y-5469432D01*
X-1924405Y-5481777D01*
X-1922119Y-5486501D01*
X-1922221Y-5490972D01*
X-1924202Y-5494985D01*
X-1927707Y-5497728D01*
X-1932076Y-5498693D01*
X-1985060Y-5498693D01*
X-1989328Y-5497779D01*
X-1992782Y-5495188D01*
X-1994814Y-5491378D01*
X-1995119Y-5487060D01*
X-1993595Y-5482996D01*
X-1988870Y-5475732D01*
X-1982673Y-5462930D01*
X-1978202Y-5449417D01*
X-1975510Y-5435498D01*
X-1974596Y-5421325D01*
X-1975510Y-5407101D01*
X-1978202Y-5393182D01*
X-1982673Y-5379669D01*
X-1988870Y-5366867D01*
X-1996592Y-5354980D01*
X-2005838Y-5344160D01*
X-2016353Y-5334609D01*
X-2027986Y-5326481D01*
X-2040585Y-5319928D01*
X-2053945Y-5315000D01*
X-2067763Y-5311851D01*
X-2081936Y-5310479D01*
X-2096109Y-5310936D01*
X-2110130Y-5313222D01*
X-2123795Y-5317236D01*
X-2136749Y-5322976D01*
X-2148941Y-5330342D01*
X-2160016Y-5339232D01*
X-2169922Y-5349443D01*
X-2178405Y-5360822D01*
X-2185365Y-5373217D01*
X-2190699Y-5386374D01*
X-2194306Y-5400090D01*
X-2196134Y-5414213D01*
X-2196134Y-5428386D01*
X-2194306Y-5442508D01*
X-2190699Y-5456224D01*
X-2185365Y-5469432D01*
X-2178405Y-5481777D01*
X-2176119Y-5486501D01*
X-2176221Y-5490972D01*
X-2178202Y-5494985D01*
X-2181707Y-5497728D01*
X-2186076Y-5498693D01*
X-2239060Y-5498693D01*
X-2243328Y-5497779D01*
X-2246782Y-5495188D01*
X-2248814Y-5491378D01*
X-2249119Y-5487060D01*
X-2247595Y-5482996D01*
X-2242870Y-5475732D01*
X-2236673Y-5462930D01*
X-2232202Y-5449417D01*
X-2229510Y-5435498D01*
X-2228596Y-5421325D01*
X-2229510Y-5407101D01*
X-2232202Y-5393182D01*
X-2236673Y-5379669D01*
X-2242870Y-5366867D01*
X-2250592Y-5354980D01*
X-2259838Y-5344160D01*
X-2270353Y-5334609D01*
X-2281986Y-5326481D01*
X-2294585Y-5319928D01*
X-2307945Y-5315000D01*
X-2321763Y-5311851D01*
X-2335936Y-5310479D01*
X-2350109Y-5310936D01*
X-2364130Y-5313222D01*
X-2377795Y-5317236D01*
X-2390749Y-5322976D01*
X-2402941Y-5330342D01*
X-2414016Y-5339232D01*
X-2423922Y-5349443D01*
X-2432405Y-5360822D01*
X-2439365Y-5373217D01*
X-2444699Y-5386374D01*
X-2448306Y-5400090D01*
X-2450134Y-5414213D01*
X-2450134Y-5428386D01*
X-2448306Y-5442508D01*
X-2444699Y-5456224D01*
X-2439365Y-5469432D01*
X-2432405Y-5481777D01*
X-2423922Y-5493207D01*
X-2414016Y-5503367D01*
X-2402941Y-5512257D01*
X-2390749Y-5519623D01*
X-2377795Y-5525363D01*
X-2368194Y-5528208D01*
X-2364536Y-5530189D01*
X-2361946Y-5533491D01*
X-2360930Y-5537504D01*
X-2361641Y-5541619D01*
X-2363927Y-5545124D01*
X-2703220Y-5884418D01*
X-2706116Y-5886450D01*
X-2709519Y-5887364D01*
X-2717546Y-5888075D01*
X-2726994Y-5890615D01*
X-2735935Y-5894781D01*
X-2743962Y-5900420D01*
X-2750921Y-5907328D01*
X-2756560Y-5915406D01*
X-2760675Y-5924296D01*
X-2763215Y-5933795D01*
X-2764078Y-5943600D01*
X-2763215Y-5953353D01*
X-2760675Y-5962853D01*
X-2756560Y-5971743D01*
X-2750921Y-5979820D01*
X-2743962Y-5986729D01*
X-2735935Y-5992368D01*
X-2726994Y-5996533D01*
X-2717546Y-5999073D01*
G37*
G36*
X-3649522Y-5894730D02*
G01*
X-3599027Y-5894730D01*
X-3603548Y-5886094D01*
X-3611676Y-5874461D01*
X-3621227Y-5863945D01*
X-3632047Y-5854700D01*
X-3643934Y-5846978D01*
X-3649522Y-5844286D01*
G37*
G36*
X-3687622Y-5532221D02*
G01*
X-3531311Y-5532221D01*
X-3524961Y-5531510D01*
X-3519525Y-5529580D01*
X-3514648Y-5526532D01*
X-3510534Y-5522417D01*
X-3507435Y-5517540D01*
X-3505555Y-5512054D01*
X-3504844Y-5505754D01*
X-3504844Y-5336895D01*
X-3505555Y-5330545D01*
X-3507435Y-5325110D01*
X-3510534Y-5320182D01*
X-3514648Y-5316118D01*
X-3519525Y-5313019D01*
X-3524961Y-5311089D01*
X-3531311Y-5310378D01*
X-3687622Y-5310378D01*
X-3693972Y-5311089D01*
X-3699408Y-5313019D01*
X-3704336Y-5316118D01*
X-3708400Y-5320182D01*
X-3711498Y-5325110D01*
X-3713429Y-5330545D01*
X-3714140Y-5336895D01*
X-3714140Y-5505754D01*
X-3713429Y-5512054D01*
X-3711498Y-5517540D01*
X-3708400Y-5522417D01*
X-3704336Y-5526532D01*
X-3699408Y-5529580D01*
X-3693972Y-5531510D01*
G37*
G36*
X-3097936Y-5532120D02*
G01*
X-3083763Y-5530748D01*
X-3069945Y-5527598D01*
X-3056585Y-5522722D01*
X-3043986Y-5516118D01*
X-3032353Y-5507990D01*
X-3021838Y-5498439D01*
X-3012592Y-5487619D01*
X-3004870Y-5475732D01*
X-2998673Y-5462930D01*
X-2994202Y-5449417D01*
X-2991510Y-5435498D01*
X-2990596Y-5421325D01*
X-2991510Y-5407101D01*
X-2994202Y-5393182D01*
X-2998673Y-5379669D01*
X-3004870Y-5366867D01*
X-3012592Y-5354980D01*
X-3021838Y-5344160D01*
X-3032353Y-5334609D01*
X-3043986Y-5326481D01*
X-3056585Y-5319928D01*
X-3069945Y-5315000D01*
X-3083763Y-5311851D01*
X-3097936Y-5310479D01*
X-3112109Y-5310936D01*
X-3126130Y-5313222D01*
X-3139795Y-5317236D01*
X-3152749Y-5322976D01*
X-3164941Y-5330342D01*
X-3176016Y-5339232D01*
X-3185922Y-5349443D01*
X-3194405Y-5360822D01*
X-3201365Y-5373217D01*
X-3206699Y-5386374D01*
X-3210306Y-5400090D01*
X-3212134Y-5414213D01*
X-3212134Y-5428386D01*
X-3210306Y-5442508D01*
X-3206699Y-5456224D01*
X-3201365Y-5469432D01*
X-3194405Y-5481777D01*
X-3185922Y-5493207D01*
X-3176016Y-5503367D01*
X-3164941Y-5512257D01*
X-3152749Y-5519623D01*
X-3139795Y-5525363D01*
X-3126130Y-5529427D01*
X-3112109Y-5531662D01*
G37*
G36*
X-2843936Y-5532120D02*
G01*
X-2829763Y-5530748D01*
X-2815945Y-5527598D01*
X-2802585Y-5522722D01*
X-2789986Y-5516118D01*
X-2778353Y-5507990D01*
X-2767838Y-5498439D01*
X-2758592Y-5487619D01*
X-2750870Y-5475732D01*
X-2744673Y-5462930D01*
X-2740202Y-5449417D01*
X-2737510Y-5435498D01*
X-2736596Y-5421325D01*
X-2737510Y-5407101D01*
X-2740202Y-5393182D01*
X-2744673Y-5379669D01*
X-2750870Y-5366867D01*
X-2758592Y-5354980D01*
X-2767838Y-5344160D01*
X-2778353Y-5334609D01*
X-2789986Y-5326481D01*
X-2802585Y-5319928D01*
X-2815945Y-5315000D01*
X-2829763Y-5311851D01*
X-2843936Y-5310479D01*
X-2858109Y-5310936D01*
X-2872130Y-5313222D01*
X-2885795Y-5317236D01*
X-2898749Y-5322976D01*
X-2910941Y-5330342D01*
X-2922016Y-5339232D01*
X-2931922Y-5349443D01*
X-2940405Y-5360822D01*
X-2947365Y-5373217D01*
X-2952699Y-5386374D01*
X-2956306Y-5400090D01*
X-2958134Y-5414213D01*
X-2958134Y-5428386D01*
X-2956306Y-5442508D01*
X-2952699Y-5456224D01*
X-2947365Y-5469432D01*
X-2940405Y-5481777D01*
X-2931922Y-5493207D01*
X-2922016Y-5503367D01*
X-2910941Y-5512257D01*
X-2898749Y-5519623D01*
X-2885795Y-5525363D01*
X-2872130Y-5529427D01*
X-2858109Y-5531662D01*
G37*
G36*
X-2589936Y-5532120D02*
G01*
X-2575763Y-5530748D01*
X-2561945Y-5527598D01*
X-2548585Y-5522722D01*
X-2535986Y-5516118D01*
X-2524353Y-5507990D01*
X-2513838Y-5498439D01*
X-2504592Y-5487619D01*
X-2496870Y-5475732D01*
X-2490673Y-5462930D01*
X-2486202Y-5449417D01*
X-2483510Y-5435498D01*
X-2482596Y-5421325D01*
X-2483510Y-5407101D01*
X-2486202Y-5393182D01*
X-2490673Y-5379669D01*
X-2496870Y-5366867D01*
X-2504592Y-5354980D01*
X-2513838Y-5344160D01*
X-2524353Y-5334609D01*
X-2535986Y-5326481D01*
X-2548585Y-5319928D01*
X-2561945Y-5315000D01*
X-2575763Y-5311851D01*
X-2589936Y-5310479D01*
X-2604109Y-5310936D01*
X-2618130Y-5313222D01*
X-2631795Y-5317236D01*
X-2644749Y-5322976D01*
X-2656941Y-5330342D01*
X-2668016Y-5339232D01*
X-2677922Y-5349443D01*
X-2686405Y-5360822D01*
X-2693365Y-5373217D01*
X-2698699Y-5386374D01*
X-2702306Y-5400090D01*
X-2704134Y-5414213D01*
X-2704134Y-5428386D01*
X-2702306Y-5442508D01*
X-2698699Y-5456224D01*
X-2693365Y-5469432D01*
X-2686405Y-5481777D01*
X-2677922Y-5493207D01*
X-2668016Y-5503367D01*
X-2656941Y-5512257D01*
X-2644749Y-5519623D01*
X-2631795Y-5525363D01*
X-2618130Y-5529427D01*
X-2604109Y-5531662D01*
G37*
G36*
X-3351936Y-5532120D02*
G01*
X-3337763Y-5530748D01*
X-3323945Y-5527598D01*
X-3310585Y-5522722D01*
X-3297986Y-5516118D01*
X-3286353Y-5507990D01*
X-3275838Y-5498439D01*
X-3266592Y-5487619D01*
X-3258870Y-5475732D01*
X-3252673Y-5462930D01*
X-3248202Y-5449417D01*
X-3245510Y-5435498D01*
X-3244596Y-5421325D01*
X-3245510Y-5407101D01*
X-3248202Y-5393182D01*
X-3252673Y-5379669D01*
X-3258870Y-5366867D01*
X-3266592Y-5354980D01*
X-3275838Y-5344160D01*
X-3286353Y-5334609D01*
X-3297986Y-5326481D01*
X-3310585Y-5319928D01*
X-3323945Y-5315000D01*
X-3337763Y-5311851D01*
X-3351936Y-5310479D01*
X-3366109Y-5310936D01*
X-3380130Y-5313222D01*
X-3393795Y-5317236D01*
X-3406749Y-5322976D01*
X-3418941Y-5330342D01*
X-3430015Y-5339232D01*
X-3439922Y-5349443D01*
X-3448405Y-5360822D01*
X-3455365Y-5373217D01*
X-3460699Y-5386374D01*
X-3464306Y-5400090D01*
X-3466134Y-5414213D01*
X-3466134Y-5428386D01*
X-3464306Y-5442508D01*
X-3460699Y-5456224D01*
X-3455365Y-5469432D01*
X-3448405Y-5481777D01*
X-3439922Y-5493207D01*
X-3430015Y-5503367D01*
X-3418941Y-5512257D01*
X-3406749Y-5519623D01*
X-3393795Y-5525363D01*
X-3380130Y-5529427D01*
X-3366109Y-5531662D01*
G37*
G36*
X2024278Y-5529580D02*
G01*
X2030882Y-5526328D01*
X2042261Y-5518708D01*
X2052523Y-5509666D01*
X2061565Y-5499404D01*
X2069185Y-5488025D01*
X2072436Y-5481421D01*
X2024278Y-5481421D01*
G37*
G36*
X1932838Y-5529580D02*
G01*
X1932838Y-5481421D01*
X1884680Y-5481421D01*
X1887931Y-5488025D01*
X1895551Y-5499404D01*
X1904593Y-5509666D01*
X1914855Y-5518708D01*
X1926234Y-5526328D01*
G37*
G36*
X-3687622Y-5278221D02*
G01*
X-3531311Y-5278221D01*
X-3524961Y-5277510D01*
X-3519525Y-5275580D01*
X-3514648Y-5272532D01*
X-3510534Y-5268417D01*
X-3507435Y-5263540D01*
X-3505555Y-5258054D01*
X-3504844Y-5251754D01*
X-3504844Y-5082895D01*
X-3505555Y-5076545D01*
X-3507435Y-5071110D01*
X-3510534Y-5066182D01*
X-3514648Y-5062118D01*
X-3519525Y-5059019D01*
X-3524961Y-5057089D01*
X-3531311Y-5056378D01*
X-3687622Y-5056378D01*
X-3693972Y-5057089D01*
X-3699408Y-5059019D01*
X-3704336Y-5062118D01*
X-3708400Y-5066182D01*
X-3711498Y-5071110D01*
X-3713429Y-5076545D01*
X-3714140Y-5082895D01*
X-3714140Y-5251754D01*
X-3713429Y-5258054D01*
X-3711498Y-5263540D01*
X-3708400Y-5268417D01*
X-3704336Y-5272532D01*
X-3699408Y-5275580D01*
X-3693972Y-5277510D01*
G37*
G36*
X-3105048Y-5278120D02*
G01*
X-3090824Y-5277662D01*
X-3076803Y-5275427D01*
X-3063189Y-5271363D01*
X-3050184Y-5265623D01*
X-3038043Y-5258257D01*
X-3026918Y-5249367D01*
X-3017062Y-5239207D01*
X-3008528Y-5227777D01*
X-3001568Y-5215432D01*
X-2996234Y-5202224D01*
X-2992628Y-5188508D01*
X-2990799Y-5174386D01*
X-2990799Y-5160213D01*
X-2992628Y-5146090D01*
X-2996234Y-5132374D01*
X-3001568Y-5119217D01*
X-3008528Y-5106822D01*
X-3017062Y-5095443D01*
X-3026918Y-5085232D01*
X-3038043Y-5076342D01*
X-3050184Y-5068976D01*
X-3063189Y-5063236D01*
X-3076803Y-5059222D01*
X-3090824Y-5056936D01*
X-3105048Y-5056479D01*
X-3119170Y-5057851D01*
X-3133039Y-5061000D01*
X-3146348Y-5065928D01*
X-3158947Y-5072481D01*
X-3170631Y-5080609D01*
X-3181146Y-5090160D01*
X-3190341Y-5100980D01*
X-3198114Y-5112867D01*
X-3204260Y-5125669D01*
X-3208731Y-5139182D01*
X-3211474Y-5153101D01*
X-3212388Y-5167325D01*
X-3211474Y-5181498D01*
X-3208731Y-5195417D01*
X-3204260Y-5208930D01*
X-3198114Y-5221732D01*
X-3190341Y-5233619D01*
X-3181146Y-5244439D01*
X-3170631Y-5253990D01*
X-3158947Y-5262118D01*
X-3146348Y-5268722D01*
X-3133039Y-5273598D01*
X-3119170Y-5276748D01*
G37*
G36*
X-1327048Y-5278120D02*
G01*
X-1312824Y-5277662D01*
X-1298803Y-5275427D01*
X-1285189Y-5271363D01*
X-1272184Y-5265623D01*
X-1260043Y-5258257D01*
X-1248918Y-5249367D01*
X-1239062Y-5239207D01*
X-1230528Y-5227777D01*
X-1223568Y-5215432D01*
X-1218234Y-5202224D01*
X-1214628Y-5188508D01*
X-1212799Y-5174386D01*
X-1212799Y-5160213D01*
X-1214628Y-5146090D01*
X-1218234Y-5132374D01*
X-1223568Y-5119217D01*
X-1230528Y-5106822D01*
X-1239062Y-5095443D01*
X-1248918Y-5085232D01*
X-1260043Y-5076342D01*
X-1272184Y-5068976D01*
X-1285189Y-5063236D01*
X-1298803Y-5059222D01*
X-1312824Y-5056936D01*
X-1327048Y-5056479D01*
X-1341170Y-5057851D01*
X-1355039Y-5061000D01*
X-1368348Y-5065928D01*
X-1380947Y-5072481D01*
X-1392631Y-5080609D01*
X-1403146Y-5090160D01*
X-1412341Y-5100980D01*
X-1420114Y-5112867D01*
X-1426260Y-5125669D01*
X-1430731Y-5139182D01*
X-1433474Y-5153101D01*
X-1434388Y-5167325D01*
X-1433474Y-5181498D01*
X-1430731Y-5195417D01*
X-1426260Y-5208930D01*
X-1420114Y-5221732D01*
X-1412341Y-5233619D01*
X-1403146Y-5244439D01*
X-1392631Y-5253990D01*
X-1380947Y-5262118D01*
X-1368348Y-5268722D01*
X-1355039Y-5273598D01*
X-1341170Y-5276748D01*
G37*
G36*
X-2089048Y-5278120D02*
G01*
X-2074824Y-5277662D01*
X-2060803Y-5275427D01*
X-2047189Y-5271363D01*
X-2034184Y-5265623D01*
X-2022043Y-5258257D01*
X-2010918Y-5249367D01*
X-2001062Y-5239207D01*
X-1992528Y-5227777D01*
X-1985568Y-5215432D01*
X-1980234Y-5202224D01*
X-1976628Y-5188508D01*
X-1974799Y-5174386D01*
X-1974799Y-5160213D01*
X-1976628Y-5146090D01*
X-1980234Y-5132374D01*
X-1985568Y-5119217D01*
X-1992528Y-5106822D01*
X-2001062Y-5095443D01*
X-2010918Y-5085232D01*
X-2022043Y-5076342D01*
X-2034184Y-5068976D01*
X-2047189Y-5063236D01*
X-2060803Y-5059222D01*
X-2074824Y-5056936D01*
X-2089048Y-5056479D01*
X-2103170Y-5057851D01*
X-2117039Y-5061000D01*
X-2130348Y-5065928D01*
X-2142947Y-5072481D01*
X-2154631Y-5080609D01*
X-2165146Y-5090160D01*
X-2174341Y-5100980D01*
X-2182114Y-5112867D01*
X-2188260Y-5125669D01*
X-2192731Y-5139182D01*
X-2195474Y-5153101D01*
X-2196388Y-5167325D01*
X-2195474Y-5181498D01*
X-2192731Y-5195417D01*
X-2188260Y-5208930D01*
X-2182114Y-5221732D01*
X-2174341Y-5233619D01*
X-2165146Y-5244439D01*
X-2154631Y-5253990D01*
X-2142947Y-5262118D01*
X-2130348Y-5268722D01*
X-2117039Y-5273598D01*
X-2103170Y-5276748D01*
G37*
G36*
X-1581048Y-5278120D02*
G01*
X-1566824Y-5277662D01*
X-1552803Y-5275427D01*
X-1539189Y-5271363D01*
X-1526184Y-5265623D01*
X-1514043Y-5258257D01*
X-1502918Y-5249367D01*
X-1493062Y-5239207D01*
X-1484528Y-5227777D01*
X-1477568Y-5215432D01*
X-1472234Y-5202224D01*
X-1468628Y-5188508D01*
X-1466799Y-5174386D01*
X-1466799Y-5160213D01*
X-1468628Y-5146090D01*
X-1472234Y-5132374D01*
X-1477568Y-5119217D01*
X-1484528Y-5106822D01*
X-1493062Y-5095443D01*
X-1502918Y-5085232D01*
X-1514043Y-5076342D01*
X-1526184Y-5068976D01*
X-1539189Y-5063236D01*
X-1552803Y-5059222D01*
X-1566824Y-5056936D01*
X-1581048Y-5056479D01*
X-1595170Y-5057851D01*
X-1609039Y-5061000D01*
X-1622348Y-5065928D01*
X-1634947Y-5072481D01*
X-1646631Y-5080609D01*
X-1657146Y-5090160D01*
X-1666341Y-5100980D01*
X-1674114Y-5112867D01*
X-1680260Y-5125669D01*
X-1684731Y-5139182D01*
X-1687474Y-5153101D01*
X-1688388Y-5167325D01*
X-1687474Y-5181498D01*
X-1684731Y-5195417D01*
X-1680260Y-5208930D01*
X-1674114Y-5221732D01*
X-1666341Y-5233619D01*
X-1657146Y-5244439D01*
X-1646631Y-5253990D01*
X-1634947Y-5262118D01*
X-1622348Y-5268722D01*
X-1609039Y-5273598D01*
X-1595170Y-5276748D01*
G37*
G36*
X-2597048Y-5278120D02*
G01*
X-2582824Y-5277662D01*
X-2568803Y-5275427D01*
X-2555189Y-5271363D01*
X-2542184Y-5265623D01*
X-2530043Y-5258257D01*
X-2518918Y-5249367D01*
X-2509062Y-5239207D01*
X-2500528Y-5227777D01*
X-2493568Y-5215432D01*
X-2488234Y-5202224D01*
X-2484628Y-5188508D01*
X-2482799Y-5174386D01*
X-2482799Y-5160213D01*
X-2484628Y-5146090D01*
X-2488234Y-5132374D01*
X-2493568Y-5119217D01*
X-2500528Y-5106822D01*
X-2509062Y-5095443D01*
X-2518918Y-5085232D01*
X-2530043Y-5076342D01*
X-2542184Y-5068976D01*
X-2555189Y-5063236D01*
X-2568803Y-5059222D01*
X-2582824Y-5056936D01*
X-2597048Y-5056479D01*
X-2611170Y-5057851D01*
X-2625039Y-5061000D01*
X-2638348Y-5065928D01*
X-2650947Y-5072481D01*
X-2662631Y-5080609D01*
X-2673146Y-5090160D01*
X-2682341Y-5100980D01*
X-2690114Y-5112867D01*
X-2696260Y-5125669D01*
X-2700731Y-5139182D01*
X-2703474Y-5153101D01*
X-2704388Y-5167325D01*
X-2703474Y-5181498D01*
X-2700731Y-5195417D01*
X-2696260Y-5208930D01*
X-2690114Y-5221732D01*
X-2682341Y-5233619D01*
X-2673146Y-5244439D01*
X-2662631Y-5253990D01*
X-2650947Y-5262118D01*
X-2638348Y-5268722D01*
X-2625039Y-5273598D01*
X-2611170Y-5276748D01*
G37*
G36*
X-1835048Y-5278120D02*
G01*
X-1820824Y-5277662D01*
X-1806803Y-5275427D01*
X-1793189Y-5271363D01*
X-1780184Y-5265623D01*
X-1768043Y-5258257D01*
X-1756918Y-5249367D01*
X-1747062Y-5239207D01*
X-1738528Y-5227777D01*
X-1731568Y-5215432D01*
X-1726234Y-5202224D01*
X-1722628Y-5188508D01*
X-1720799Y-5174386D01*
X-1720799Y-5160213D01*
X-1722628Y-5146090D01*
X-1726234Y-5132374D01*
X-1731568Y-5119217D01*
X-1738528Y-5106822D01*
X-1747062Y-5095443D01*
X-1756918Y-5085232D01*
X-1768043Y-5076342D01*
X-1780184Y-5068976D01*
X-1793189Y-5063236D01*
X-1806803Y-5059222D01*
X-1820824Y-5056936D01*
X-1835048Y-5056479D01*
X-1849170Y-5057851D01*
X-1863039Y-5061000D01*
X-1876348Y-5065928D01*
X-1888947Y-5072481D01*
X-1900631Y-5080609D01*
X-1911146Y-5090160D01*
X-1920341Y-5100980D01*
X-1928114Y-5112867D01*
X-1934260Y-5125669D01*
X-1938731Y-5139182D01*
X-1941474Y-5153101D01*
X-1942388Y-5167325D01*
X-1941474Y-5181498D01*
X-1938731Y-5195417D01*
X-1934260Y-5208930D01*
X-1928114Y-5221732D01*
X-1920341Y-5233619D01*
X-1911146Y-5244439D01*
X-1900631Y-5253990D01*
X-1888947Y-5262118D01*
X-1876348Y-5268722D01*
X-1863039Y-5273598D01*
X-1849170Y-5276748D01*
G37*
G36*
X-2343048Y-5278120D02*
G01*
X-2328824Y-5277662D01*
X-2314803Y-5275427D01*
X-2301189Y-5271363D01*
X-2288184Y-5265623D01*
X-2276043Y-5258257D01*
X-2264918Y-5249367D01*
X-2255062Y-5239207D01*
X-2246528Y-5227777D01*
X-2239568Y-5215432D01*
X-2234234Y-5202224D01*
X-2230628Y-5188508D01*
X-2228799Y-5174386D01*
X-2228799Y-5160213D01*
X-2230628Y-5146090D01*
X-2234234Y-5132374D01*
X-2239568Y-5119217D01*
X-2246528Y-5106822D01*
X-2255062Y-5095443D01*
X-2264918Y-5085232D01*
X-2276043Y-5076342D01*
X-2288184Y-5068976D01*
X-2301189Y-5063236D01*
X-2314803Y-5059222D01*
X-2328824Y-5056936D01*
X-2343048Y-5056479D01*
X-2357170Y-5057851D01*
X-2371039Y-5061000D01*
X-2384348Y-5065928D01*
X-2396947Y-5072481D01*
X-2408631Y-5080609D01*
X-2419146Y-5090160D01*
X-2428341Y-5100980D01*
X-2436114Y-5112867D01*
X-2442260Y-5125669D01*
X-2446731Y-5139182D01*
X-2449474Y-5153101D01*
X-2450388Y-5167325D01*
X-2449474Y-5181498D01*
X-2446731Y-5195417D01*
X-2442260Y-5208930D01*
X-2436114Y-5221732D01*
X-2428341Y-5233619D01*
X-2419146Y-5244439D01*
X-2408631Y-5253990D01*
X-2396947Y-5262118D01*
X-2384348Y-5268722D01*
X-2371039Y-5273598D01*
X-2357170Y-5276748D01*
G37*
G36*
X-3359048Y-5278120D02*
G01*
X-3344824Y-5277662D01*
X-3330803Y-5275427D01*
X-3317189Y-5271363D01*
X-3304184Y-5265623D01*
X-3292043Y-5258257D01*
X-3280918Y-5249367D01*
X-3271062Y-5239207D01*
X-3262528Y-5227777D01*
X-3255568Y-5215432D01*
X-3250234Y-5202224D01*
X-3246628Y-5188508D01*
X-3244799Y-5174386D01*
X-3244799Y-5160213D01*
X-3246628Y-5146090D01*
X-3250234Y-5132374D01*
X-3255568Y-5119217D01*
X-3262528Y-5106822D01*
X-3271062Y-5095443D01*
X-3280918Y-5085232D01*
X-3292043Y-5076342D01*
X-3304184Y-5068976D01*
X-3317189Y-5063236D01*
X-3330803Y-5059222D01*
X-3344824Y-5056936D01*
X-3359048Y-5056479D01*
X-3373170Y-5057851D01*
X-3387039Y-5061000D01*
X-3400348Y-5065928D01*
X-3412947Y-5072481D01*
X-3424631Y-5080609D01*
X-3435146Y-5090160D01*
X-3444341Y-5100980D01*
X-3452114Y-5112867D01*
X-3458260Y-5125669D01*
X-3462731Y-5139182D01*
X-3465474Y-5153101D01*
X-3466388Y-5167325D01*
X-3465474Y-5181498D01*
X-3462731Y-5195417D01*
X-3458260Y-5208930D01*
X-3452114Y-5221732D01*
X-3444341Y-5233619D01*
X-3435146Y-5244439D01*
X-3424631Y-5253990D01*
X-3412947Y-5262118D01*
X-3400348Y-5268722D01*
X-3387039Y-5273598D01*
X-3373170Y-5276748D01*
G37*
G36*
X-2851048Y-5278120D02*
G01*
X-2836824Y-5277662D01*
X-2822803Y-5275427D01*
X-2809189Y-5271363D01*
X-2796184Y-5265623D01*
X-2784043Y-5258257D01*
X-2772918Y-5249367D01*
X-2763062Y-5239207D01*
X-2754528Y-5227777D01*
X-2747568Y-5215432D01*
X-2742234Y-5202224D01*
X-2738628Y-5188508D01*
X-2736799Y-5174386D01*
X-2736799Y-5160213D01*
X-2738628Y-5146090D01*
X-2742234Y-5132374D01*
X-2747568Y-5119217D01*
X-2754528Y-5106822D01*
X-2763062Y-5095443D01*
X-2772918Y-5085232D01*
X-2784043Y-5076342D01*
X-2796184Y-5068976D01*
X-2809189Y-5063236D01*
X-2822803Y-5059222D01*
X-2836824Y-5056936D01*
X-2851048Y-5056479D01*
X-2865170Y-5057851D01*
X-2879039Y-5061000D01*
X-2892348Y-5065928D01*
X-2904947Y-5072481D01*
X-2916631Y-5080609D01*
X-2927146Y-5090160D01*
X-2936341Y-5100980D01*
X-2944114Y-5112867D01*
X-2950260Y-5125669D01*
X-2954731Y-5139182D01*
X-2957474Y-5153101D01*
X-2958388Y-5167325D01*
X-2957474Y-5181498D01*
X-2954731Y-5195417D01*
X-2950260Y-5208930D01*
X-2944114Y-5221732D01*
X-2936341Y-5233619D01*
X-2927146Y-5244439D01*
X-2916631Y-5253990D01*
X-2904947Y-5262118D01*
X-2892348Y-5268722D01*
X-2879039Y-5273598D01*
X-2865170Y-5276748D01*
G37*
G36*
X1879244Y-5120030D02*
G01*
X1929688Y-5120030D01*
X1929688Y-5069535D01*
X1921052Y-5074056D01*
X1909419Y-5082184D01*
X1898904Y-5091734D01*
X1889658Y-5102555D01*
X1881936Y-5114493D01*
G37*
G36*
X2027377Y-5120030D02*
G01*
X2078024Y-5120030D01*
X2071471Y-5108397D01*
X2062988Y-5097018D01*
X2053082Y-5086807D01*
X2041956Y-5077917D01*
X2029815Y-5070551D01*
X2027377Y-5069484D01*
G37*

%LPD*%
G36*
X-305104Y-5831332D02*
G01*
X-309118Y-5830366D01*
X-312420Y-5827928D01*
X-314452Y-5824372D01*
X-314960Y-5820308D01*
X-313842Y-5814923D01*
X-311810Y-5812028D01*
X-26517Y-5526735D01*
X-21386Y-5520486D01*
X-17830Y-5513832D01*
X-15646Y-5506567D01*
X-14833Y-5498541D01*
X-14833Y-5251958D01*
X-14071Y-5248097D01*
X-11887Y-5244795D01*
X-10312Y-5243220D01*
X-4673Y-5235194D01*
X-508Y-5226253D01*
X2032Y-5216804D01*
X2895Y-5207000D01*
X2032Y-5197195D01*
X-508Y-5187746D01*
X-4673Y-5178806D01*
X-10312Y-5170779D01*
X-17221Y-5163820D01*
X-21488Y-5160873D01*
X-24384Y-5157774D01*
X-25755Y-5153710D01*
X-25349Y-5149494D01*
X-23215Y-5145786D01*
X-19812Y-5143296D01*
X-15646Y-5142382D01*
X370840Y-5142382D01*
X374700Y-5143144D01*
X378002Y-5145379D01*
X566572Y-5333949D01*
X572820Y-5339029D01*
X579475Y-5342636D01*
X586740Y-5344820D01*
X594715Y-5345582D01*
X1101902Y-5345582D01*
X1106017Y-5346496D01*
X1109472Y-5348986D01*
X1111554Y-5352694D01*
X1111910Y-5357520D01*
X1111910Y-5513882D01*
X1112621Y-5520182D01*
X1114552Y-5525668D01*
X1117600Y-5530545D01*
X1121714Y-5534660D01*
X1126591Y-5537708D01*
X1132078Y-5539638D01*
X1138377Y-5540349D01*
X1294739Y-5540349D01*
X1301038Y-5539638D01*
X1306525Y-5537708D01*
X1311402Y-5534660D01*
X1315516Y-5530545D01*
X1318564Y-5525668D01*
X1320495Y-5520182D01*
X1321206Y-5513882D01*
X1321206Y-5357520D01*
X1321562Y-5352694D01*
X1323644Y-5348986D01*
X1327099Y-5346496D01*
X1331214Y-5345582D01*
X1388313Y-5345582D01*
X1392072Y-5346344D01*
X1395272Y-5348427D01*
X1397558Y-5351576D01*
X1398422Y-5355336D01*
X1397863Y-5359146D01*
X1395933Y-5362448D01*
X1387551Y-5371998D01*
X1379931Y-5383377D01*
X1373886Y-5395671D01*
X1369517Y-5408625D01*
X1366824Y-5422036D01*
X1365910Y-5435701D01*
X1366824Y-5449366D01*
X1369517Y-5462778D01*
X1373886Y-5475732D01*
X1379931Y-5488025D01*
X1387551Y-5499404D01*
X1396593Y-5509666D01*
X1406855Y-5518708D01*
X1418234Y-5526328D01*
X1426260Y-5530291D01*
X1429258Y-5532526D01*
X1431239Y-5535726D01*
X1431950Y-5539384D01*
X1431950Y-5593181D01*
X1431188Y-5597042D01*
X1428953Y-5600344D01*
X1317701Y-5711596D01*
X1314399Y-5713831D01*
X1310538Y-5714593D01*
X-167386Y-5714593D01*
X-175412Y-5715406D01*
X-182626Y-5717590D01*
X-189280Y-5721146D01*
X-195529Y-5726226D01*
X-297637Y-5828334D01*
X-301091Y-5830620D01*
G37*

%LPD*%
G36*
X4521758Y-8623604D02*
G01*
X4520234Y-8623300D01*
X3909110Y-8623300D01*
X3905199Y-8622538D01*
X3901897Y-8620302D01*
X3899712Y-8617051D01*
X3898950Y-8613140D01*
X3898950Y-7934959D01*
X3899712Y-7931048D01*
X3901897Y-7927797D01*
X3905199Y-7925562D01*
X3909110Y-7924800D01*
X4524248Y-7924800D01*
X4528616Y-7925765D01*
X4532122Y-7928508D01*
X4534103Y-7932470D01*
X4534255Y-7936941D01*
X4533950Y-7938516D01*
X4533950Y-8613648D01*
X4532934Y-8617966D01*
X4530191Y-8621522D01*
X4526229Y-8623503D01*
G37*

%LPD*%
G36*
X7261859Y-8901125D02*
G01*
X7257948Y-8900312D01*
X7254646Y-8898128D01*
X7175804Y-8819286D01*
X7173620Y-8815984D01*
X7172807Y-8812072D01*
X7172807Y-7679385D01*
X7173620Y-7675473D01*
X7175804Y-7672171D01*
X7179106Y-7669987D01*
X7182967Y-7669225D01*
X8454542Y-7669225D01*
X8456066Y-7668869D01*
X8460536Y-7669022D01*
X8464499Y-7671003D01*
X8467242Y-7674508D01*
X8468207Y-7678877D01*
X8468207Y-8858808D01*
X8467445Y-8862669D01*
X8465261Y-8865971D01*
X8433104Y-8898128D01*
X8429802Y-8900312D01*
X8425891Y-8901125D01*
G37*

%LPD*%
D10*
X-2644266Y230276D02*
G01*
X-2695066Y179476D01*
X-2695066Y-988923D01*
X-2148966Y-1535023D01*
D11*
X11694033Y-294873D02*
G01*
X11567033Y-167873D01*
X11567033Y663067D01*
X11531600Y698500D01*
D12*
X11531600Y698500D02*
G01*
X9398106Y698500D01*
X9309100Y609493D01*
X9309100Y-382117D01*
X9344533Y-417550D01*
D13*
X8811133Y467004D02*
G01*
X8823833Y454304D01*
X9105773Y454304D01*
X9105773Y-2431135D01*
X9487535Y-2812897D01*
X11516233Y-2812897D01*
D12*
X4762373Y-6121501D02*
G01*
X4127373Y-6121501D01*
X3720973Y-6527901D01*
D10*
X5283073Y-5207101D02*
G01*
X5194173Y-5207101D01*
X4762373Y-5638901D01*
X4762373Y-6121501D01*
X6324600Y-5956300D02*
G01*
X6324600Y-5956300D01*
X6324600Y-7226300D01*
X8212297Y-7226300D01*
X8661524Y-6777075D01*
X8661524Y-5954626D01*
D12*
X3720973Y-6526123D02*
G01*
X3720973Y-8826601D01*
X4265549Y-9370923D01*
X4522851Y-9370923D01*
X4584573Y-9309201D01*
X3898900Y-7175500D02*
G01*
X3898900Y-7086600D01*
X3938673Y-7046826D01*
X5115433Y-7046826D01*
X5890133Y-8913723D02*
G01*
X5788533Y-8799423D01*
X5788533Y-7591907D01*
X5370449Y-7173823D01*
X4065651Y-7173823D01*
X3949573Y-7289901D01*
X3949573Y-7480401D01*
D10*
X6741007Y-9345599D02*
G01*
X5713387Y-9345599D01*
X4988394Y-8621118D01*
X4988394Y-7833197D01*
X4876800Y-7721600D01*
X4698987Y-7721600D01*
X4622800Y-7645412D01*
X4622800Y-7467600D01*
D12*
X5115433Y-7046823D02*
G01*
X5459349Y-7046823D01*
X5915533Y-7503007D01*
X5915533Y-8710523D01*
X6029833Y-8812123D01*
X7096633Y-8812123D01*
X7414133Y-9129623D01*
X7693533Y-9129623D01*
X7757033Y-9193123D01*
X7757033Y-9345523D01*
D14*
X10055733Y-6297523D02*
G01*
X9789033Y-6297523D01*
X9623933Y-6462623D01*
X9623933Y-6869023D01*
X9382633Y-7110323D01*
X8684133Y-7110323D01*
X8455533Y-7338923D01*
X6221349Y-7338923D01*
X6108573Y-7226401D01*
X6108573Y-6513423D01*
X5195951Y-6513423D01*
X5016500Y-9436100D02*
G01*
X5016500Y-8915402D01*
X5003800Y-8902700D01*
X5003800Y-8801100D01*
D10*
X6032373Y2064156D02*
G01*
X6032373Y1790598D01*
X6006973Y1765198D01*
X5029073Y1765198D01*
X-3444366Y2109876D02*
G01*
X-3114166Y2109876D01*
X-1945766Y941476D01*
X-1450466Y941476D01*
X-828166Y319176D01*
X137033Y319176D01*
X1470533Y-5435699D02*
G01*
X1470533Y-5613364D01*
X1330695Y-5753199D01*
X-167904Y-5753199D01*
X-370992Y-5956282D01*
X-586892Y-5956282D01*
X-586892Y-5956274D01*
D12*
X-647826Y-762101D02*
G01*
X-647826Y-787501D01*
X596773Y-787501D01*
X-647700Y-762000D02*
G01*
X-647700Y-800199D01*
X-1613024Y-800199D01*
D10*
X7239000Y5003800D02*
G01*
X7239000Y4792240D01*
X6845175Y4398416D01*
X6845175Y3238624D01*
X6845300Y3238500D01*
D14*
X5801233Y3151276D02*
G01*
X3922649Y3151276D01*
X3746373Y3327298D01*
X2717673Y3327298D01*
X2666873Y3276498D01*
X2526411Y3276498D01*
X2410333Y3392576D01*
X2232533Y3392576D01*
X2232533Y3392576D02*
G01*
X2118233Y3392576D01*
X1864233Y3138576D01*
X1711833Y3138576D01*
D10*
X-711324Y2419250D02*
G01*
X-711324Y2565300D01*
X-558825Y2717800D01*
X1003274Y2717800D01*
X1053975Y2768500D01*
X1053975Y3251075D01*
X1270000Y3467100D01*
X1663700Y2565400D02*
G01*
X4622800Y2565400D01*
X4648200Y2590800D01*
X6550533Y4929276D02*
G01*
X6550533Y4941976D01*
X6385433Y5107076D01*
X5801233Y5107076D01*
X4975733Y4281576D01*
X2905633Y4281576D01*
X2854833Y4332376D01*
X-840866Y928776D02*
G01*
X-840866Y979576D01*
X-1247266Y1385976D01*
X-1944750Y1385976D01*
X-3122040Y2563266D01*
X-3122040Y4941976D01*
X5801233Y3913276D02*
G01*
X5953633Y3913276D01*
X6017133Y3849776D01*
X6017133Y3583076D01*
X5953633Y3519576D01*
X5221351Y3519576D01*
X5043551Y3341776D01*
X4162933Y3341776D01*
X5801233Y3659276D02*
G01*
X5700649Y3659276D01*
X5600573Y3759098D01*
X5600573Y4000398D01*
X5510149Y4091076D01*
X5191633Y4091076D01*
X1777873Y2666898D02*
G01*
X4762373Y2666898D01*
X4813173Y2717698D01*
X4813173Y2755798D01*
X4711573Y2958998D02*
G01*
X4711573Y2920898D01*
X4813173Y2819298D01*
X4813173Y2755798D01*
X4569333Y3532276D02*
G01*
X2842133Y3532276D01*
X2638933Y3735476D01*
X2638933Y4205376D01*
X2448433Y4395876D01*
X162433Y4395876D01*
X-637666Y3595776D01*
X-1082166Y3595776D01*
X-1183766Y3697376D01*
X4597400Y2984500D02*
G01*
X4635500Y3022600D01*
X5626100Y3022600D01*
X5664200Y2984500D01*
X4698873Y1727098D02*
G01*
X4902073Y1727098D01*
X4940173Y1765198D01*
X5029073Y1765198D01*
D12*
X7325207Y1373200D02*
G01*
X7047407Y1651000D01*
X4330700Y1651000D01*
X4025900Y1955797D01*
X4025900Y1968500D01*
D10*
X4505807Y2351100D02*
G01*
X4669307Y2514600D01*
X5156200Y2514600D01*
X5606694Y2064105D01*
X5778500Y2064105D01*
X-1473326Y1828190D02*
G01*
X-1473326Y1727098D01*
X-1079626Y1333398D01*
X1625473Y1333398D01*
X1968373Y1676298D01*
X2323973Y1676298D01*
X2323973Y1676298D02*
G01*
X2603373Y1955698D01*
X3210433Y1855876D02*
G01*
X2843149Y1855876D01*
X2679573Y2019198D01*
X2146173Y2019198D01*
X2082673Y2082952D01*
X2082673Y2196998D01*
X2689733Y1563776D02*
G01*
X2565273Y1687982D01*
X2565273Y1790598D01*
X2630551Y1855876D01*
X2830449Y1855876D01*
D12*
X4025900Y1968500D02*
G01*
X2857497Y1968500D01*
X2743200Y2082800D01*
X2260600Y2082800D01*
D10*
X1536573Y1473098D02*
G01*
X1600073Y1536598D01*
X1600073Y1587398D01*
X1711833Y3900576D02*
G01*
X1838833Y3900576D01*
X1915033Y3824376D01*
X1915033Y3367176D01*
X1813433Y3265576D01*
X1309751Y3265576D01*
X1155573Y3111398D01*
X1155573Y2260498D01*
X1219073Y2196998D01*
X1968373Y2196998D01*
X2006473Y2158898D01*
X2006473Y2120798D01*
X-1219326Y1828190D02*
G01*
X-1219326Y1612798D01*
X-1079626Y1473098D01*
X1536573Y1473098D01*
X-711326Y1828190D02*
G01*
X-711326Y1904898D01*
X-482726Y2133498D01*
X520573Y2133498D01*
X838073Y2450998D01*
X1028573Y2450998D01*
X190373Y1854098D02*
G01*
X12573Y2031898D01*
X-393826Y2031898D01*
X-457326Y1968398D01*
X-457326Y1828190D01*
X1623949Y2846476D02*
G01*
X1623949Y2830474D01*
X1447673Y2654198D01*
X1409573Y2654198D01*
X4470273Y1841398D02*
G01*
X4317873Y1993798D01*
X4317873Y2121052D01*
X4241673Y2196998D01*
X3395599Y2196998D01*
X3166999Y2425598D01*
X2108073Y2425598D01*
X1930273Y2247798D01*
X1307973Y2247798D01*
X1219073Y2336698D01*
X1219073Y2958998D01*
X1381633Y3121558D01*
X1488567Y3121558D01*
X1674749Y2935376D01*
X1902333Y2935376D01*
X2260600Y2755900D02*
G01*
X1714500Y2755900D01*
X1549400Y2590800D01*
X1549400Y2578100D01*
X3429000Y2489200D02*
G01*
X3429000Y2463800D01*
X3390900Y2425700D01*
X3289300Y2425700D01*
X3225797Y2489200D01*
X1752600Y2489200D01*
X1455798Y2056790D02*
G01*
X1455699Y1594022D01*
X-965326Y1828190D02*
G01*
X-965326Y2019198D01*
X-1092326Y2146198D01*
X-1092326Y2654198D01*
X-1193926Y2755798D01*
X-2641726Y2755798D01*
X-2743326Y2857398D01*
X-2743326Y3238398D01*
X-2616326Y3365398D01*
X-1613026Y3365398D01*
X-1511426Y3466998D01*
X-1511426Y3822598D01*
X-1384426Y3949598D01*
X-1295526Y3949598D01*
X-1295526Y3949598D02*
G01*
X-1244472Y3949598D01*
X-1183766Y3888892D01*
X-1183766Y3697376D01*
X-2100452Y4069486D02*
G01*
X-2037460Y4069486D01*
X-1917826Y3949598D01*
X-1917826Y3581298D01*
X-2006726Y3492398D01*
X-2768726Y3492398D01*
X-2895726Y3365398D01*
X-2895726Y2781198D01*
X-2756026Y2641498D01*
X-1295526Y2641498D01*
X-1219326Y2565298D01*
X-1219326Y2419248D01*
X-457200Y2388184D02*
G01*
X-305384Y2540000D01*
X292100Y2540000D01*
X1155573Y2692044D02*
G01*
X1079627Y2616098D01*
X-533526Y2616098D01*
X-597026Y2552598D01*
X-597026Y2235098D01*
X-635126Y2196998D01*
X-863472Y2196998D01*
X-965200Y2419299D02*
G01*
X-965200Y2260600D01*
X-901598Y2196998D01*
X-863472Y2196998D01*
X-2326766Y3849776D02*
G01*
X-2601848Y3849776D01*
X-3010026Y3441598D01*
X-3010026Y2717698D01*
X-2832226Y2539898D01*
X-1473326Y2539898D01*
X-1473326Y2419248D01*
D12*
X6908800Y2641600D02*
G01*
X6591274Y2641600D01*
X6591175Y2641500D01*
X7325233Y1627276D02*
G01*
X7262749Y1627276D01*
X7149973Y1739798D01*
X6641973Y1739798D01*
X6565773Y1815998D01*
X6565773Y2044598D01*
X6654673Y2133498D01*
X7325233Y2135276D01*
D10*
X3312033Y3075073D02*
G01*
X3426333Y3075073D01*
X3464433Y3036973D01*
X3464433Y2935373D01*
X3375533Y2846473D01*
X1623926Y2846473D01*
X1447800Y3022600D01*
X4775200Y1841500D02*
G01*
X4775200Y1943100D01*
X4699000Y1943100D01*
X4635500Y2006600D01*
X4635500Y2209800D01*
X4635500Y2209800D01*
X733907Y-696899D02*
G01*
X-734999Y-696899D01*
X-762000Y-723900D01*
X-2222500Y-723900D02*
G01*
X-762002Y-723900D01*
X-762000Y-723900D01*
X3985133Y1868573D02*
G01*
X4304306Y1549400D01*
X6311874Y1549400D01*
X6985000Y1549400D01*
X6985000Y1549400D01*
D12*
X5651373Y1460398D02*
G01*
X4291711Y1460398D01*
X3947033Y1805076D01*
X3426333Y1805076D01*
X3362833Y1741576D01*
X3210433Y1741576D01*
D10*
X2260600Y2755900D02*
G01*
X4224759Y2755900D01*
X4457700Y2988840D01*
X4457700Y3022600D01*
X-825500Y1206500D02*
G01*
X-88902Y1206500D01*
X-88900Y1206500D01*
D12*
X-2095380Y4899893D02*
G01*
X-2095380Y4074558D01*
X-2100452Y4069486D01*
D10*
X-3444366Y1093876D02*
G01*
X-3711066Y827176D01*
X-3711066Y-1750923D01*
X-3622166Y-1839823D01*
X-3568064Y-1839823D01*
D12*
X899007Y3290900D02*
G01*
X899007Y3176648D01*
X644959Y2922600D01*
X-53492Y2922600D01*
X-3037966Y77876D02*
G01*
X-3037966Y1220876D01*
X-3164966Y1347876D01*
X-3444366Y1347876D01*
D10*
X3566007Y2998800D02*
G01*
X3629507Y2998800D01*
X3680294Y3049592D01*
X3680294Y3113092D01*
X3629494Y3163892D01*
X2638894Y3163892D01*
X2410302Y2935300D01*
X1902307Y2935300D01*
D12*
X2461107Y4205300D02*
G01*
X2461107Y3494097D01*
X2359583Y3392573D01*
X2232533Y3392573D01*
D10*
X6550507Y-1255699D02*
G01*
X6652107Y-1357299D01*
X6652107Y-1700199D01*
X1368907Y-2449499D02*
G01*
X2461094Y-2449499D01*
X2562707Y-2347889D01*
X2562707Y-1344599D01*
X2562707Y-1344599D01*
X2384907Y-2385999D02*
G01*
X1749920Y-2385999D01*
X1610207Y-2246289D01*
X1610207Y-2133600D01*
X2461107Y-1928799D02*
G01*
X1927659Y-1928799D01*
X1864233Y-1992226D01*
X1864233Y-2133699D01*
X505307Y-3694099D02*
G01*
X505307Y-1966902D01*
X543407Y-1928799D01*
X594207Y-1928799D01*
X520700Y-1435100D02*
G01*
X886307Y-1800707D01*
X886307Y-1941499D01*
X835482Y-4621225D02*
G01*
X822845Y-4621225D01*
X708507Y-4506882D01*
X708507Y-4214789D01*
X200507Y-3706787D01*
X200507Y-1535099D01*
X1724507Y-7708874D02*
G01*
X1724507Y-7835894D01*
X1622920Y-7937482D01*
X1064120Y-7937482D01*
X962520Y-7835882D01*
X962520Y-7772382D01*
X962507Y-7708874D02*
G01*
X962507Y-7848594D01*
X873620Y-7937482D01*
X302120Y-7937482D01*
X200520Y-7835882D01*
X200520Y-7772382D01*
X200507Y-7708874D02*
G01*
X200507Y-7835894D01*
X98920Y-7937482D01*
X-472579Y-7937482D01*
X-561479Y-7848582D01*
X-561479Y-7772382D01*
X-561492Y-7708874D02*
G01*
X-561492Y-7835894D01*
X-663079Y-7937482D01*
X-1234653Y-7937482D01*
X-1323428Y-7848706D01*
X-1323428Y-7772506D01*
X-1323492Y-7708874D02*
G01*
X-1323492Y-7848770D01*
X-1412206Y-7937482D01*
X-1996406Y-7937482D01*
X-2085428Y-7848452D01*
X-2085428Y-7772506D01*
X-2085492Y-7708874D02*
G01*
X-2085492Y-7848521D01*
X-2174577Y-7937606D01*
X-2758528Y-7937606D01*
X-2847428Y-7848452D01*
X-2847428Y-7772506D01*
X-2847428Y-7772506D02*
G01*
X-2847428Y-7848706D01*
X-2936328Y-7937606D01*
X-3520528Y-7937606D01*
X-3609492Y-7848643D01*
X-3609492Y-7708874D01*
X-1615592Y-5802299D02*
G01*
X-2264869Y-6451577D01*
X-2707766Y-6451577D01*
X-1602892Y-5687999D02*
G01*
X-2112469Y-6197577D01*
X-2707766Y-6197577D01*
X-1577492Y-5967399D02*
G01*
X-2315669Y-6705577D01*
X-2733166Y-6705577D01*
X-3698379Y-6705582D02*
G01*
X-3533279Y-6870682D01*
X-3406279Y-6870682D01*
X-3101492Y-7175469D01*
X-3101492Y-7454874D01*
X2232507Y-5435600D02*
G01*
X2232507Y-5930887D01*
X1929323Y-6234074D01*
X1927707Y-6234074D01*
X1724533Y-5435701D02*
G01*
X1724533Y-5638647D01*
X1508633Y-5854801D01*
X-118490Y-5854801D01*
X-283844Y-6019901D01*
X-650366Y-6019901D01*
X1724533Y-7708999D02*
G01*
X1724533Y-7835999D01*
X1826133Y-7937599D01*
X2359533Y-7937599D01*
X2359533Y-7389807D01*
X2283307Y-7313582D01*
X2054707Y-7313582D01*
X1864207Y-7123082D01*
X1864207Y-6297574D01*
X1927707Y-6234074D01*
X-53479Y-5206987D02*
G01*
X-53479Y-5499061D01*
X-370992Y-5816574D01*
X-828184Y-6246784D02*
G01*
X-1044066Y-6462623D01*
X-1044066Y-6896201D01*
X-1310766Y-7162901D01*
X-1425066Y-7162901D01*
X2232512Y-5168887D02*
G01*
X2094412Y-5306987D01*
X594212Y-5306987D01*
X391012Y-5103787D01*
X-396384Y-5103787D01*
X-675779Y-4406887D02*
G01*
X-675779Y-4660887D01*
X-1437779Y-4406887D02*
G01*
X-1437779Y-4660887D01*
X-2961779Y-4406887D02*
G01*
X-2961779Y-4660887D01*
X-2199779Y-4406887D02*
G01*
X-2199779Y-4660887D01*
X-1437766Y-4407001D02*
G01*
X-1312290Y-4532223D01*
X-801242Y-4532223D01*
X-675766Y-4407001D01*
X-2199766Y-4407001D02*
G01*
X-2074290Y-4532223D01*
X-1563242Y-4532223D01*
X-1437766Y-4407001D01*
X-2961766Y-4407001D02*
G01*
X-2836290Y-4532223D01*
X-2377566Y-4532223D01*
X-2199766Y-4354423D01*
X-2199766Y-4407001D01*
X-1945766Y-4407001D02*
G01*
X-1945766Y-4379823D01*
X-2085466Y-4240123D01*
X-2568066Y-4240123D01*
X-2707766Y-4379823D01*
X-2707766Y-4407001D01*
X-1183766Y-4407001D02*
G01*
X-1183766Y-4379823D01*
X-1323466Y-4240123D01*
X-1806066Y-4240123D01*
X-1945766Y-4379823D01*
X-1945766Y-4407001D01*
X-2707766Y-4407001D02*
G01*
X-2707766Y-4379823D01*
X-2847466Y-4240123D01*
X-3317366Y-4240123D01*
X-3469766Y-4392523D01*
X-3469766Y-4407001D01*
X-1183779Y-4406887D02*
G01*
X-991682Y-4214789D01*
X-802784Y-4214789D01*
X-2047382Y-3401992D02*
G01*
X-2364882Y-3084492D01*
X-2961779Y-3084492D01*
X-3050679Y-2995592D01*
X-3050679Y-2970192D01*
X-536066Y-3236826D02*
G01*
X-536066Y-3528926D01*
X-675792Y-3668651D01*
X-675792Y-3782999D01*
X3134233Y-2832127D02*
G01*
X3134233Y-3922623D01*
X1343482Y-4367225D02*
G01*
X1343482Y-4100456D01*
X873607Y-3630582D01*
X873607Y-2855899D01*
X1089482Y-4367225D02*
G01*
X1089482Y-4087756D01*
X810107Y-3808382D01*
X810107Y-2957499D01*
X1597482Y-4367225D02*
G01*
X1597482Y-4100461D01*
X949807Y-3452789D01*
X949807Y-2957499D01*
X1851482Y-4367225D02*
G01*
X1851482Y-4100461D01*
X1013307Y-3262289D01*
X1013307Y-2855899D01*
X619607Y-3694099D02*
G01*
X619607Y-3020994D01*
X619607Y-3020994D01*
X619607Y-2855899D01*
X683107Y-2957499D02*
G01*
X683107Y-3097194D01*
X683107Y-3808399D01*
X683107Y-3808399D01*
X-1082166Y-3224123D02*
G01*
X-1082166Y-3224123D01*
X-1082166Y-2690723D01*
X-986909Y-2690723D01*
X-2480772Y-1839823D02*
G01*
X-3567973Y-1839823D01*
X-866284Y-2402027D02*
G01*
X-866284Y-2004994D01*
X-1031455Y-1839823D01*
X-2480772Y-1839823D01*
X1216507Y-2830499D02*
G01*
X1216507Y-1230299D01*
X1216507Y-1230299D01*
X5153533Y-4595726D02*
G01*
X5153533Y-4506826D01*
X4683607Y-4036900D01*
X4683607Y-3414699D01*
X-2199782Y3595695D02*
G01*
X-2326782Y3722695D01*
X-2326782Y3849695D01*
X949833Y-150726D02*
G01*
X683181Y-150726D01*
X683107Y-150799D01*
X5511800Y3962400D02*
G01*
X5373700Y3824300D01*
X5013807Y3824300D01*
X-1348879Y-442894D02*
G01*
X-2110879Y-442894D01*
X-2517292Y-36482D01*
X-2517292Y458800D01*
X6550533Y4675276D02*
G01*
X6525133Y4675276D01*
X6398133Y4802276D01*
X5648833Y4802276D01*
X5013833Y4167276D01*
X3032607Y2338400D02*
G01*
X3210407Y2160600D01*
X3223107Y2160600D01*
X2689707Y1563700D02*
G01*
X2919907Y1333500D01*
X3009900Y1333500D01*
X3439007Y1258900D02*
G01*
X3630599Y1258900D01*
X3632200Y1257300D01*
X3502507Y1563700D02*
G01*
X3616810Y1678000D01*
X3642207Y1678000D01*
X4048633Y1487573D02*
G01*
X4050913Y1545231D01*
X3998589Y1601873D01*
X3693033Y1601873D01*
X3553333Y1462173D01*
X3223133Y1462173D01*
X3021606Y1663700D01*
X2743200Y1663700D01*
X3947033Y1525673D02*
G01*
X3947033Y1462173D01*
X3896233Y1411373D01*
X3456073Y1411373D01*
X3429000Y1384300D01*
X3870833Y1347873D02*
G01*
X3870833Y1297073D01*
X3756533Y1182773D01*
X2258926Y1182773D01*
X2120900Y1320800D01*
X3794633Y1119273D02*
G01*
X3794633Y1093873D01*
X3731133Y1030373D01*
X2309726Y1030373D01*
X2120900Y1219200D01*
X2082800Y2197100D02*
G01*
X2082800Y2252190D01*
X2194407Y2363800D01*
X2461107Y2363800D01*
X2829407Y3989392D02*
G01*
X2829407Y4179892D01*
X2765907Y4243392D01*
X2765907Y4395792D01*
X2829407Y4459292D01*
X4670905Y4459292D01*
X2590800Y3441700D02*
G01*
X2592473Y3443373D01*
X4607433Y3443373D01*
X4696333Y3532273D01*
X4696333Y3951373D01*
X-3444366Y1855876D02*
G01*
X-3076066Y1855876D01*
X-2783966Y1563776D01*
X-2783966Y-658723D01*
X-3330066Y-1204823D01*
X-3330066Y-1382623D01*
X-3215766Y-1496923D01*
X-3215766Y-1535023D01*
X-3444366Y1601876D02*
G01*
X-3126866Y1601876D01*
X-2936366Y1411376D01*
X-2936366Y-353923D01*
X-3444366Y2363876D02*
G01*
X-3177666Y2363876D01*
X-1907666Y1093876D01*
X-1448434Y1093876D01*
D12*
X1711833Y3392576D02*
G01*
X1521333Y3392576D01*
X1432433Y3481476D01*
X1432433Y4129176D01*
X1508633Y4205376D01*
X1572133Y4205376D01*
D10*
X5102705Y3951295D02*
G01*
X5102705Y4129095D01*
X5648799Y4675190D01*
X6296497Y4675190D01*
X2537310Y-621908D02*
G01*
X2537310Y-760323D01*
X-2961766Y-1535023D02*
G01*
X-2733166Y-1763623D01*
X-218566Y-1763623D01*
X-53466Y-1928723D01*
X-536066Y-3236823D02*
G01*
X-536066Y-2850489D01*
X-536066Y-2766923D01*
X-1996592Y-3719499D02*
G01*
X-3012566Y-3719499D01*
X-3177679Y-3554389D01*
X-3177679Y-2805099D01*
D14*
X9923609Y-8159422D02*
G01*
X9923609Y-7732707D01*
X9895992Y-7705089D01*
X9596120Y-7705089D01*
X9913620Y-8186419D02*
G01*
X9913620Y-8547889D01*
X9865207Y-8596299D01*
X8925407Y-8596299D01*
D10*
X3210407Y1855800D02*
G01*
X3223102Y1868495D01*
X3985097Y1868495D01*
X6474307Y-1662099D02*
G01*
X6017107Y-1662099D01*
X5712294Y-1966907D01*
X4886802Y-2792399D01*
X4632807Y-2792399D01*
D12*
X7325194Y1881192D02*
G01*
X7096594Y1881192D01*
X7095002Y1879600D01*
X6642100Y1879600D01*
D14*
X10055733Y-6805523D02*
G01*
X9966833Y-6805523D01*
X9746869Y-7025487D01*
X9746869Y-7313523D01*
X10055697Y-5789604D02*
G01*
X9890597Y-5789604D01*
X9789033Y-5891169D01*
X9789033Y-6297523D01*
D10*
X7312533Y115976D02*
G01*
X7503033Y306476D01*
X7503033Y433730D01*
X7503033Y471576D01*
X7363333Y611276D01*
X7325233Y611276D01*
X6360002Y-2055794D02*
G01*
X6652099Y-2347892D01*
X6652099Y-2576492D01*
X6042533Y-1992223D02*
G01*
X6082157Y-2032101D01*
X6106033Y-2055723D01*
X6360033Y-2055723D01*
X6715607Y-2627299D02*
G01*
X6703006Y-2627299D01*
X6652133Y-2576426D01*
X6474307Y-1662099D02*
G01*
X6626633Y-1814426D01*
X6779133Y-1814426D01*
X6969594Y-1623956D01*
X6969594Y1587D01*
X7325207Y357200D01*
X3134233Y-2258923D02*
G01*
X3134233Y-2258923D01*
X3134233Y-2832127D01*
X-1475892Y-1357299D02*
G01*
X-1475892Y-1357299D01*
X-1475892Y-963599D01*
X6258407Y-1738294D02*
G01*
X6118707Y-1738294D01*
X5928207Y-1928794D01*
X5928207Y-2271699D01*
X7452233Y-1560423D02*
G01*
X7452233Y-1954123D01*
X6779133Y-2627223D01*
X6715633Y-2627223D01*
X746633Y-2855823D02*
G01*
X746633Y-3986123D01*
X975233Y-4214723D01*
X975233Y-4417923D01*
X1064133Y-4506823D01*
X1788033Y-4506823D01*
X1851533Y-4570323D01*
X1851533Y-4621123D01*
X-2936366Y-353923D02*
G01*
X-2936366Y-544423D01*
X-3215766Y-823823D01*
X4429633Y-1039723D02*
G01*
X4429633Y-1078331D01*
X4328033Y-1179169D01*
X4328033Y-2881223D01*
D12*
X4823333Y-3427323D02*
G01*
X4823333Y-3287623D01*
X4493133Y-2957423D01*
X4493133Y-2779623D01*
X6690233Y-582523D01*
X6690233Y14376D01*
X7287133Y611276D01*
X7325233Y611276D01*
D10*
X-1272666Y-1115923D02*
G01*
X-1272666Y-1535023D01*
X-1158366Y-1649323D01*
X-256666Y-1649323D01*
X276733Y-1115923D01*
X1280033Y-1115923D01*
X1610233Y-1446123D01*
X1610233Y-2133701D01*
D12*
X596900Y-787400D02*
G01*
X2484859Y-787400D01*
X2511933Y-760326D01*
X3197733Y-760326D01*
X3197694Y-760407D02*
G01*
X3997794Y-760407D01*
X4289894Y-468307D01*
X4315294Y-442907D01*
X6448899Y-442907D01*
X6537807Y-353999D01*
X3629533Y-4595723D02*
G01*
X3629533Y-4519523D01*
X3515233Y-4405223D01*
X2664333Y-4405223D01*
X2613533Y-4456023D01*
X2613533Y-4595723D01*
X4645533Y-4595723D02*
G01*
X4645533Y-4532223D01*
X4493133Y-4379823D01*
X3756533Y-4379823D01*
X3629533Y-4506823D01*
X3629533Y-4595723D01*
X5397500Y-7378700D02*
G01*
X5483733Y-7464933D01*
X5483733Y-7831683D01*
X5483733Y-8761326D01*
X5750433Y-9028026D01*
X6969633Y-9028026D01*
X7249033Y-9307426D01*
X7249033Y-9345526D01*
X5359400Y-7645400D02*
G01*
X5344033Y-7660767D01*
X5344033Y-8875626D01*
X5623433Y-9155026D01*
X6906133Y-9155026D01*
X6995033Y-9243926D01*
X6995033Y-9345526D01*
X5890133Y-8913723D02*
G01*
X7033133Y-8913723D01*
X7325233Y-9205823D01*
X7401433Y-9205823D01*
X7503033Y-9307423D01*
X7503033Y-9345523D01*
D14*
X8925407Y-8596299D02*
G01*
X8925407Y-9243900D01*
X9027033Y-9345526D01*
X6029833Y-8050123D02*
G01*
X6029833Y-8469223D01*
X7312533Y-8469223D01*
X7680833Y-8837523D01*
X8241665Y-8837523D01*
X8519033Y-9114891D01*
X8519033Y-9345523D01*
D10*
X10055733Y-7313523D02*
G01*
X9746869Y-7313523D01*
D14*
X9746863Y-7313526D02*
G01*
X9721390Y-7339007D01*
X9039694Y-7339007D01*
X8823794Y-7554907D01*
X6283794Y-7554907D01*
X6097592Y-7554907D01*
X6096000Y-7556500D01*
D10*
X5232400Y-6248400D02*
G01*
X5080967Y-6399832D01*
X5080967Y-7046826D01*
D14*
X9596120Y-7705089D02*
G01*
X9054569Y-7705089D01*
X8582533Y-8177126D01*
X8000613Y-8177126D01*
X7802499Y-8375749D01*
D10*
X7302500Y4673600D02*
G01*
X7502994Y4874094D01*
X7502994Y5094292D01*
X7439494Y5157792D01*
X7223594Y5157792D01*
X7071194Y5005392D01*
X7071194Y4840292D01*
X6906107Y4675200D01*
X6804507Y4675200D01*
X-701166Y3710076D02*
G01*
X-637666Y3710076D01*
X-472566Y3875176D01*
X-472566Y4548276D01*
D12*
X-53492Y2922600D02*
G01*
X-53492Y3074979D01*
X-204312Y3225800D01*
X-2501900Y3225800D01*
D10*
X-2006600Y-927100D02*
G01*
X-2006600Y-1321892D01*
X-1907692Y-1420799D01*
X-1272666Y-1115923D02*
G01*
X-1272666Y-1382623D01*
X-1539366Y-1649323D01*
X-2517266Y-1649323D01*
X-2758566Y-1408023D01*
X-3088766Y-1408023D01*
X-3215766Y-1281023D01*
X-2250592Y-150799D02*
G01*
X-2339492Y-61899D01*
X-2339492Y1106500D01*
X-624966Y-5753199D02*
G01*
X-561466Y-5689160D01*
X-561466Y-5600707D01*
X-624867Y-5537299D01*
X-2301491Y-5537299D01*
X-2707766Y-5943574D01*
X9789007Y-4257850D02*
G01*
X9809459Y-4278299D01*
X10690707Y-4278299D01*
X9801694Y-1082352D02*
G01*
X9738194Y-1018852D01*
X9738194Y-383852D01*
X9687394Y-333052D01*
X9687394Y-282252D01*
D12*
X9331807Y-1552244D02*
G01*
X9471507Y-1691939D01*
X10766894Y-1691939D01*
D10*
X10385821Y-4587516D02*
G01*
X9204759Y-4587516D01*
X9052394Y-4435152D01*
X9052394Y-3342952D01*
X9280994Y-3114352D01*
X10118712Y-3114352D01*
X10335107Y-3330747D01*
X10335107Y-3414699D01*
D15*
X9535033Y-3469363D02*
G01*
X9535033Y-3635082D01*
X9712794Y-3812844D01*
X11516207Y-3812844D01*
X9535007Y-4257847D02*
G01*
X9535007Y-4130339D01*
X9661994Y-4003352D01*
X11160594Y-4003352D01*
X11470083Y-4312846D01*
X11516207Y-4312846D01*
D12*
X11440007Y-40939D02*
G01*
X11440033Y213128D01*
X11440007Y213055D02*
G01*
X11427294Y225765D01*
X11427294Y606747D01*
X10030294Y606747D01*
X9623894Y200347D01*
X9496894Y200347D01*
D13*
X11516194Y-3312850D02*
G01*
X11516207Y-3173163D01*
X11516207Y-2812844D01*
D10*
X11084394Y467047D02*
G01*
X10893894Y263847D01*
X10893894Y-2441252D01*
X10995494Y-2542852D01*
X11579694Y-2542852D01*
X11732094Y-2695252D01*
X11732094Y-3457244D01*
X11617794Y-3571544D01*
X10131907Y-3571544D01*
X11097133Y213128D02*
G01*
X11236794Y73464D01*
X11236794Y-2225344D01*
X11389121Y-2377671D01*
X11655821Y-2377671D01*
X11795607Y-2517457D01*
X11795607Y-2568244D01*
D12*
X9344507Y-1806244D02*
G01*
X9484207Y-1945939D01*
X10779594Y-1945939D01*
X7325233Y611276D02*
G01*
X6982333Y611276D01*
X6067933Y-303123D01*
X2829433Y-303123D01*
X2423033Y103276D01*
X1470533Y103276D01*
D10*
X2689733Y-3770002D02*
G01*
X2689733Y-1090620D01*
X2538912Y-939800D01*
X165100Y-939800D01*
D12*
X-1613026Y-800201D02*
G01*
X-2298826Y-800201D01*
X-2578226Y-520801D01*
D10*
X3375533Y-4214723D02*
G01*
X3375533Y-2322423D01*
X2916809Y-1863699D01*
X2916809Y-1190599D01*
X2602611Y-876401D01*
X-1536826Y-876401D01*
X-1625726Y-965301D01*
X-1841626Y-965301D01*
D12*
X-3037966Y77876D02*
G01*
X-3037966Y-455523D01*
X-3619626Y-1037183D01*
X-3619626Y-1677517D01*
X-3584066Y-1712823D01*
X-3020948Y-1712823D01*
X-2961766Y-1653641D01*
X-2961766Y-1535023D01*
D10*
X-254000Y-457200D02*
G01*
X-254000Y-355600D01*
X814473Y712873D01*
X4378833Y712873D01*
X4607433Y941473D01*
X4789573Y941473D01*
X4889500Y1041400D01*
X3756533Y-430123D02*
G01*
X2537333Y-430123D01*
X2346833Y-620623D01*
X-674750Y-620623D01*
X-1473326Y177698D01*
X-1473326Y715416D01*
X-1437766Y750976D01*
X-1399666Y750976D01*
X-330200Y-457200D02*
G01*
X-330200Y-317500D01*
X801700Y814400D01*
X4302607Y814400D01*
X4762500Y1274290D01*
X4762500Y1320800D01*
X-1448434Y1093876D02*
G01*
X-917066Y560476D01*
X112649Y560476D01*
X152273Y520598D01*
X152273Y482498D01*
D12*
X-1069466Y3671976D02*
G01*
X-1069466Y3914292D01*
X-1224660Y4069486D01*
X-2100452Y4069486D01*
D10*
X6985000Y4318000D02*
G01*
X7325207Y3977792D01*
X7325207Y3436310D01*
D14*
X6309202Y3405195D02*
G01*
X6156802Y3405195D01*
X6055202Y3303595D01*
X6055202Y3201995D01*
X6004402Y3151195D01*
X5801202Y3151195D01*
D12*
X-1259992Y3392500D02*
G01*
X-1298092Y3430600D01*
X-1298092Y3697300D01*
X-1259992Y3392500D02*
G01*
X1065199Y3392500D01*
X1066800Y3390900D01*
X7325207Y865200D02*
G01*
X6829859Y865200D01*
X6601333Y636673D01*
X4493133Y636673D01*
X2882900Y2095500D02*
G01*
X3098822Y2095500D01*
X3147949Y2046373D01*
X4201033Y2046373D01*
X4493133Y636676D02*
G01*
X2689733Y636676D01*
X2410333Y357276D01*
X1470533Y357276D01*
D13*
X8214233Y-1560423D02*
G01*
X8214233Y-519023D01*
X7845933Y-150723D01*
X7325233Y-150723D01*
D12*
X327482Y-4621225D02*
G01*
X454446Y-4748189D01*
X2461117Y-4748189D01*
X2613507Y-4595799D01*
D10*
X327492Y-4367215D02*
G01*
X175077Y-4214799D01*
X-802792Y-4214799D01*
D12*
X1562100Y-3035300D02*
G01*
X1765300Y-3238500D01*
X1765300Y-3340100D01*
X2095500Y-3670300D01*
X2095500Y-4191000D01*
X2309726Y-4405226D01*
X2664333Y-4405226D01*
D10*
X835533Y-4367123D02*
G01*
X835533Y-4214723D01*
X304673Y-3684117D01*
X304673Y-1242923D01*
X276733Y-1242923D01*
D12*
X1562100Y-3035300D02*
G01*
X1551073Y-3046326D01*
X1178433Y-3046326D01*
X1114933Y-2982826D01*
X1114933Y-2805026D01*
X759312Y-1928794D02*
G01*
X759312Y-2385992D01*
X860912Y-2487592D01*
X1026012Y-2487592D01*
X1114912Y-2576492D01*
X1114912Y-2805092D01*
X1470533Y103276D02*
G01*
X1343533Y103276D01*
X1089533Y357276D01*
X949833Y357276D01*
D10*
X187833Y-240131D02*
G01*
X204597Y-240131D01*
X622173Y177698D01*
X622173Y393598D01*
X850773Y622198D01*
X952373Y622198D01*
D12*
X949833Y357276D02*
G01*
X812673Y355498D01*
X711073Y253898D01*
X711073Y37998D01*
X634873Y-38201D01*
X558673Y-38201D01*
D10*
X-3444366Y2871876D02*
G01*
X-3354450Y2871876D01*
X-3238626Y2756052D01*
X-3238626Y2565298D01*
X-1893950Y1220876D01*
X-1386966Y1220876D01*
X-967866Y801776D01*
X-78866Y801776D01*
D12*
X12319000Y3683000D02*
G01*
X12090400Y3683000D01*
X12052300Y3721100D01*
X12052300Y4381500D01*
X12115800Y4445000D01*
X12319000Y4445000D01*
D10*
X12318873Y1904898D02*
G01*
X11836273Y1904898D01*
X11353673Y2387498D01*
X11353673Y4025798D01*
X10223500Y2476500D02*
G01*
X10350500Y2603500D01*
X10464800Y2603500D01*
D12*
X9599488Y2108100D02*
G01*
X9525000Y2182588D01*
X9525000Y2260600D01*
D10*
X11440033Y1703730D02*
G01*
X11315065Y1828698D01*
X10312273Y1828698D01*
X10223373Y1917598D01*
X10223373Y2476398D01*
D12*
X9438386Y1953895D02*
G01*
X9563481Y1828800D01*
X9944100Y1828800D01*
X10109200Y1993900D01*
X10337800Y1993900D02*
G01*
X10377805Y1953895D01*
X11140186Y1953895D01*
D10*
X10223373Y2476398D02*
G01*
X10223373Y1917598D01*
X10009505Y1703730D01*
X9738233Y1703730D01*
D12*
X12319000Y2159000D02*
G01*
X11899900Y2159000D01*
X12319000Y2921000D02*
G01*
X11899900Y2921000D01*
X12318873Y3682898D02*
G01*
X11937873Y3682898D01*
X11899773Y3644798D01*
X11899773Y3568598D01*
X9842500Y4635500D02*
G01*
X9835286Y4628286D01*
X9537496Y4628286D01*
X9537496Y4998313D02*
G01*
X9682683Y5143500D01*
X9842500Y5143500D01*
X8877503Y4998313D02*
G01*
X9537496Y4998313D01*
X8877503Y4628286D02*
G01*
X9537496Y4628286D01*
D10*
X9842500Y4889500D02*
G01*
X10033000Y4889500D01*
X10337800Y5194300D01*
X10528300Y5194300D01*
X10528300Y5194300D01*
X10528173Y5194198D02*
G01*
X10528173Y5168798D01*
X10553573Y5143398D01*
X11861673Y5143398D01*
X11950573Y5054498D01*
X11950573Y4051198D01*
X12318873Y3428898D02*
G01*
X11823827Y3428898D01*
X11620373Y3632098D01*
X11620373Y4013098D01*
X11620375Y4013100D02*
G01*
X11620375Y4902321D01*
X11582397Y4940300D01*
X11557000Y4940300D01*
X12318873Y2666898D02*
G01*
X11658473Y2666898D01*
X11493373Y2831998D01*
X11493373Y4000398D01*
X11493373Y4000398D02*
G01*
X11493373Y5016398D01*
X11442573Y5067198D01*
X11137900Y4686300D02*
G01*
X11087100Y4635500D01*
X9842500Y4635500D01*
X10934700Y4178300D02*
G01*
X10922000Y4165600D01*
X10922000Y2692400D01*
X10833100Y3162300D02*
G01*
X10617200Y3378197D01*
X10617200Y4330700D01*
D12*
X9838309Y1953920D02*
G01*
X9842373Y1957984D01*
X9842373Y2031898D01*
X9766173Y2108098D01*
X9397873Y2108098D01*
X9067673Y1777898D01*
X8813673Y1777898D01*
X8813673Y1993798D01*
D10*
X8813800Y2755900D02*
G01*
X9055100Y2514600D01*
X9055100Y1905000D01*
X10642600Y3124200D02*
G01*
X10337800Y3124200D01*
X10210800Y3251200D01*
X10210800Y3352800D01*
X10845800Y3378200D02*
G01*
X10693400Y3530600D01*
X10693400Y3708400D01*
X10985500Y3098800D02*
G01*
X11023600Y3136900D01*
X11023600Y4229100D01*
X10985500Y4267200D01*
X10985500Y4267200D02*
G01*
X10718800Y4267200D01*
X11353673Y4025798D02*
G01*
X11353673Y4153052D01*
X11023473Y4482998D01*
X11023473Y4495698D01*
X11150473Y3911498D02*
G01*
X11150473Y4228998D01*
X10972673Y4406798D01*
X9893173Y4406798D01*
X9423273Y3936898D01*
X9270873Y3936898D01*
X9270873Y3174898D02*
G01*
X9550273Y2895498D01*
X10731373Y2895498D01*
X10794873Y2831998D01*
X10794873Y2654198D01*
X10845673Y2603398D01*
X10985373Y2603398D01*
X11036173Y2654198D01*
X11036173Y2984398D01*
D12*
X10331041Y3987800D02*
G01*
X10096500Y3753264D01*
X10096500Y3098800D01*
X10198097Y2997200D01*
X10198100Y2997200D01*
X3667633Y-3084423D02*
G01*
X3667633Y-2601823D01*
X4099433Y-2170023D01*
X4099433Y-976223D01*
X4416933Y-658723D01*
X5064633Y-658723D01*
D10*
X5168900Y2819400D02*
G01*
X5308600Y2679700D01*
X5588000Y2679700D01*
X5092700Y2717800D02*
G01*
X5384800Y2425700D01*
X5588000Y2425700D01*
X5029073Y1765198D02*
G01*
X6006973Y1765198D01*
X6032373Y1790598D01*
X6032373Y2069973D01*
X6146800Y2184400D01*
X6451600Y2184400D01*
X6616700Y2349500D01*
X6946900Y2349500D01*
X7112000Y2514600D01*
X7112000Y3035300D01*
X7581900Y3505200D01*
X7632700Y3505200D01*
X4505807Y2351100D02*
G01*
X4669307Y2514600D01*
X5156200Y2514600D01*
X5606694Y2064105D01*
X5823305Y2064105D01*
X6070600Y2311400D01*
X6362700Y2311400D01*
X6400800Y2349500D01*
X6565900Y2514600D01*
X6896100Y2514600D01*
X6934200Y2514600D01*
X7035800Y2616200D01*
X7035800Y3149600D01*
X7035800Y3162300D01*
X7162800Y3289300D01*
X7289800Y3289300D01*
X7543800Y3543300D01*
X7607300Y3606800D01*
X7975600Y3606800D01*
X8013700Y3568700D01*
X8013700Y3505200D01*
X7823200Y-2108200D02*
G01*
X7823200Y-2290444D01*
X7948295Y-2415539D01*
X7960207Y-1560499D02*
G01*
X7960207Y-2219807D01*
X8077200Y-2336800D01*
X8077200Y-2527300D01*
X8036433Y-2527300D01*
X7948295Y-2615437D01*
X8214207Y-1560499D02*
G01*
X8214207Y-1635607D01*
X8369300Y-1790700D01*
X8369300Y-2667000D01*
X8102600Y-2933700D01*
X7772400Y-2933700D01*
X7721600Y-2882900D01*
X7721600Y-2739009D01*
X7698105Y-2715513D01*
X7698105Y-2315463D02*
G01*
X7698105Y-1568602D01*
X7706207Y-1560499D01*
X7467600Y3060700D02*
G01*
X7467600Y2882900D01*
X7213600Y2628900D01*
X7213600Y2489200D01*
X7112000Y2387600D01*
X6972300Y2247900D01*
X6654800Y2247900D01*
X6413500Y2641600D02*
G01*
X6335501Y2641600D01*
X6286373Y2690728D01*
X6804533Y4675276D02*
G01*
X6803771Y4554372D01*
X6540373Y4291228D01*
X6540373Y3238398D01*
X6453251Y3151276D01*
X6309233Y3151276D01*
X5257673Y2857398D02*
G01*
X6184773Y2857398D01*
X6286373Y2755798D01*
X6286373Y2690774D01*
X5016500Y2921000D02*
G01*
X5029200Y2933700D01*
X5448300Y2933700D01*
X6845173Y3238398D02*
G01*
X6514973Y2908198D01*
X5460111Y2908198D01*
X5448173Y2933598D01*
X5664200Y2984500D02*
G01*
X6489700Y2984500D01*
X6540500Y3035300D01*
X6540500Y3060700D01*
X6692900Y3213100D01*
X6692900Y4216400D01*
X6692900Y4343400D01*
X7137400Y4787900D01*
X7137400Y5003800D01*
X7226300Y5092700D01*
X7277100Y5092700D01*
X7302500Y5092700D01*
X7366000Y5029200D01*
X7366000Y4826000D01*
X7340600Y4826000D01*
X7112000Y4597400D01*
X7112000Y4318000D01*
X7518400Y3911600D01*
X7518400Y3759200D01*
X8013700Y1041400D02*
G01*
X8013700Y266700D01*
X7924800Y177800D01*
D16*
G01*
X9537499Y4998316D03*
G01*
X8877500Y4998321D03*
G01*
X9537499Y4628278D03*
G01*
X8877500Y4628281D03*
D17*
G01*
X4775327Y1841398D03*
G01*
X4622927Y1841398D03*
G01*
X4470527Y1841398D03*
D18*
G01*
X-1473200Y2388184D03*
G01*
X-1473200Y1828190D03*
G01*
X-1219200Y2388184D03*
G01*
X-1219200Y1828190D03*
G01*
X-965200Y2388184D03*
G01*
X-965200Y1828190D03*
G01*
X-711200Y2388184D03*
G01*
X-711200Y1828190D03*
G01*
X-457200Y2388184D03*
G01*
X-457200Y1828190D03*
D19*
G01*
X1216512Y-5168887D03*
D20*
G01*
X1470507Y-5168900D03*
G01*
X1724507Y-5168900D03*
G01*
X1978507Y-5168900D03*
G01*
X2232507Y-5168900D03*
G01*
X-1323492Y-5167299D03*
G01*
X-1577492Y-5167299D03*
G01*
X-1831492Y-5167299D03*
G01*
X-2085492Y-5167299D03*
G01*
X-2339492Y-5167299D03*
G01*
X-2593492Y-5167299D03*
G01*
X-2847492Y-5167299D03*
G01*
X-3101492Y-5167299D03*
G01*
X-3355492Y-5167299D03*
D21*
G01*
X-3609502Y-5167304D03*
D22*
G01*
X8798397Y467050D03*
D20*
G01*
X8798407Y213055D03*
G01*
X8798407Y-40944D03*
G01*
X8798407Y-294944D03*
D23*
G01*
X9280997Y-9345604D03*
D24*
G01*
X9027007Y-9345599D03*
G01*
X8773007Y-9345599D03*
G01*
X8519007Y-9345599D03*
G01*
X8265007Y-9345599D03*
G01*
X8011007Y-9345599D03*
G01*
X7757007Y-9345599D03*
G01*
X7503007Y-9345599D03*
G01*
X7249007Y-9345599D03*
G01*
X6995007Y-9345599D03*
G01*
X6741007Y-9345599D03*
D25*
G01*
X11084407Y467055D03*
G01*
X11084407Y213055D03*
G01*
X11084407Y-40944D03*
G01*
X11084407Y-294944D03*
G01*
X11084407Y-548944D03*
G01*
X11084407Y-802944D03*
G01*
X11084407Y-1056944D03*
G01*
X11084407Y-1310944D03*
G01*
X11084407Y-1564944D03*
G01*
X11084407Y-1818944D03*
G01*
X11084407Y-2072944D03*
D26*
G01*
X11084397Y-2326949D03*
D27*
G01*
X5588000Y2425700D03*
D13*
G01*
X5588000Y2679700D03*
D28*
G01*
X7948295Y-2815335D03*
G01*
X7698105Y-2715513D03*
G01*
X7948295Y-2415539D03*
G01*
X7698105Y-2515361D03*
G01*
X7948295Y-2615437D03*
G01*
X7698105Y-2315463D03*
D27*
G01*
X9017000Y3175000D03*
D13*
G01*
X9271000Y3175000D03*
D29*
G01*
X12319000Y2159000D03*
G01*
X12319000Y1905000D03*
D30*
G01*
X12319000Y1651000D03*
D29*
G01*
X12319000Y2921000D03*
G01*
X12319000Y2667000D03*
D30*
G01*
X12319000Y2413000D03*
D27*
G01*
X9017000Y3429000D03*
D13*
G01*
X9271000Y3429000D03*
D29*
G01*
X12319000Y3683000D03*
G01*
X12319000Y3429000D03*
D30*
G01*
X12319000Y3175000D03*
D27*
G01*
X9017000Y3683000D03*
D13*
G01*
X9271000Y3683000D03*
D29*
G01*
X12319000Y4445000D03*
G01*
X12319000Y4191000D03*
D30*
G01*
X12319000Y3937000D03*
D27*
G01*
X9017000Y3937000D03*
D13*
G01*
X9271000Y3937000D03*
D31*
G01*
X8813800Y1993900D03*
D20*
G01*
X8813800Y2247900D03*
G01*
X8813800Y2501900D03*
G01*
X8813800Y2755900D03*
D27*
G01*
X9969500Y2476500D03*
D13*
G01*
X10223500Y2476500D03*
D29*
G01*
X9842500Y4635500D03*
G01*
X9842500Y4889500D03*
D30*
G01*
X9842500Y5143500D03*
D28*
G01*
X9338564Y1703705D03*
G01*
X9438386Y1953895D03*
G01*
X9738360Y1703705D03*
G01*
X9638538Y1953895D03*
G01*
X9538462Y1703705D03*
G01*
X9838436Y1953895D03*
G01*
X11040364Y1703705D03*
G01*
X11140186Y1953895D03*
G01*
X11440160Y1703705D03*
G01*
X11340338Y1953895D03*
G01*
X11240262Y1703705D03*
G01*
X11540236Y1953895D03*
D29*
G01*
X6296533Y4675276D03*
G01*
X6296533Y4929276D03*
G01*
X6550533Y4675276D03*
G01*
X6550533Y4929276D03*
G01*
X6804533Y4675276D03*
D32*
G01*
X6804533Y4929276D03*
D33*
G01*
X-53517Y2922600D03*
D20*
G01*
X-307492Y2922600D03*
G01*
X-561492Y2922600D03*
G01*
X-815492Y2922600D03*
G01*
X-1069492Y2922600D03*
G01*
X-1323492Y2922600D03*
G01*
X-1577492Y2922600D03*
G01*
X-1831492Y2922600D03*
G01*
X-2085492Y2922600D03*
G01*
X-2339492Y2922600D03*
D32*
G01*
X-3457092Y-2131999D03*
D29*
G01*
X-3203092Y-2131999D03*
G01*
X-2949092Y-2131999D03*
G01*
X-2695092Y-2131999D03*
G01*
X-2441092Y-2131999D03*
G01*
X-2187092Y-2131999D03*
G01*
X-1933092Y-2131999D03*
G01*
X-1679092Y-2131999D03*
G01*
X-1425092Y-2131999D03*
G01*
X-1171092Y-2131999D03*
D20*
G01*
X-1323492Y-5421299D03*
G01*
X-1577492Y-5421299D03*
G01*
X-1831492Y-5421299D03*
G01*
X-2085492Y-5421299D03*
G01*
X-2339492Y-5421299D03*
G01*
X-2593492Y-5421299D03*
G01*
X-2847492Y-5421299D03*
G01*
X-3101492Y-5421299D03*
G01*
X-3355492Y-5421299D03*
D33*
G01*
X-3609492Y-5421299D03*
D15*
G01*
X-472592Y4548200D03*
D31*
G01*
X8214207Y-1560499D03*
D20*
G01*
X7960207Y-1560499D03*
G01*
X7706207Y-1560499D03*
G01*
X7452207Y-1560499D03*
D29*
G01*
X5420207Y-3846499D03*
G01*
X5674207Y-3846499D03*
G01*
X5928207Y-3846499D03*
G01*
X6182207Y-3846499D03*
G01*
X6436207Y-3846499D03*
G01*
X6690207Y-3846499D03*
G01*
X6944207Y-3846499D03*
G01*
X7198207Y-3846499D03*
G01*
X7452207Y-3846499D03*
G01*
X7706207Y-3846499D03*
G01*
X7960207Y-3846499D03*
G01*
X8214207Y-3846499D03*
G01*
X11694007Y-2072944D03*
G01*
X11440007Y-2072944D03*
G01*
X11694007Y-1818944D03*
G01*
X11440007Y-1818944D03*
G01*
X11694007Y-1564944D03*
G01*
X11440007Y-1564944D03*
G01*
X11694007Y-1310944D03*
G01*
X11440007Y-1310944D03*
G01*
X11694007Y-1056944D03*
G01*
X11440007Y-1056944D03*
G01*
X11694007Y-802944D03*
G01*
X11440007Y-802944D03*
G01*
X11694007Y-548944D03*
G01*
X11440007Y-548944D03*
G01*
X11694007Y-294944D03*
G01*
X11440007Y-294944D03*
G01*
X11694007Y-40944D03*
G01*
X11440007Y-40944D03*
G01*
X11694007Y213055D03*
D32*
G01*
X11440007Y213055D03*
D34*
G01*
X11493500Y-4322698D03*
D35*
G01*
X11493500Y-3822700D03*
G01*
X11493500Y-3322701D03*
G01*
X11493500Y-2822701D03*
D29*
G01*
X9496907Y-53644D03*
G01*
X9496907Y200355D03*
D30*
G01*
X9496907Y454355D03*
D32*
G01*
X10055707Y-7313599D03*
D29*
G01*
X10055707Y-7059599D03*
G01*
X10055707Y-6805599D03*
G01*
X10055707Y-6551599D03*
G01*
X10055707Y-6297599D03*
G01*
X10055707Y-6043599D03*
G01*
X10055707Y-5789599D03*
G01*
X10055707Y-5535599D03*
D32*
G01*
X7325207Y-150799D03*
D29*
G01*
X7325207Y103200D03*
G01*
X7325207Y357200D03*
G01*
X7325207Y611200D03*
G01*
X7325207Y865200D03*
G01*
X7325207Y1119200D03*
G01*
X7325207Y1373200D03*
G01*
X7325207Y1627200D03*
G01*
X7325207Y1881200D03*
G01*
X7325207Y2135200D03*
G01*
X7325207Y2389200D03*
D24*
G01*
X8671407Y-8596299D03*
G01*
X8925407Y-8596299D03*
D20*
G01*
X-3444366Y2871876D03*
G01*
X-3444366Y2617876D03*
G01*
X-3444366Y2363876D03*
G01*
X-3444366Y2109876D03*
G01*
X-3444366Y1855876D03*
G01*
X-3444366Y1601876D03*
G01*
X-3444366Y1347876D03*
D36*
G01*
X-3444366Y1093876D03*
D37*
G01*
X-675766Y-4406874D03*
D24*
G01*
X-675766Y-4660900D03*
G01*
X-929766Y-4406900D03*
G01*
X-929766Y-4660900D03*
G01*
X-1183766Y-4406900D03*
G01*
X-1183766Y-4660900D03*
G01*
X-1437766Y-4406900D03*
G01*
X-1437766Y-4660900D03*
G01*
X-1691766Y-4406900D03*
G01*
X-1691766Y-4660900D03*
G01*
X-1945766Y-4406900D03*
G01*
X-1945766Y-4660900D03*
G01*
X-2199766Y-4406900D03*
G01*
X-2199766Y-4660900D03*
G01*
X-2453766Y-4406900D03*
G01*
X-2453766Y-4660900D03*
G01*
X-2707766Y-4406900D03*
G01*
X-2707766Y-4660900D03*
G01*
X-2961766Y-4406900D03*
G01*
X-2961766Y-4660900D03*
G01*
X-3215766Y-4406900D03*
G01*
X-3215766Y-4660900D03*
G01*
X-3469766Y-4406900D03*
G01*
X-3469766Y-4660900D03*
D38*
G01*
X-93497Y5027599D03*
G01*
X621512Y5027599D03*
D39*
G01*
X506501Y4754600D03*
G01*
X21513Y4754600D03*
D24*
G01*
X8661501Y-5954699D03*
G01*
X9011513Y-5954699D03*
G01*
X7087336Y-7000875D03*
G01*
X6587337Y-7000875D03*
D40*
G01*
X9321012Y-6830999D03*
G01*
X7971002Y-6830999D03*
D31*
G01*
X2232507Y3138500D03*
D20*
G01*
X2232507Y3392500D03*
G01*
X2232507Y3646500D03*
G01*
X2232507Y3900500D03*
D31*
G01*
X1711807Y3138500D03*
D20*
G01*
X1711807Y3392500D03*
G01*
X1711807Y3646500D03*
G01*
X1711807Y3900500D03*
D31*
G01*
X5801207Y3151200D03*
D20*
G01*
X5801207Y3405200D03*
G01*
X5801207Y3659200D03*
G01*
X5801207Y3913200D03*
D31*
G01*
X6309207Y3151200D03*
D20*
G01*
X6309207Y3405200D03*
G01*
X6309207Y3659200D03*
G01*
X6309207Y3913200D03*
D31*
G01*
X-2961766Y-1281099D03*
D20*
G01*
X-2961792Y-1535099D03*
G01*
X-3215792Y-1281099D03*
G01*
X-3215792Y-1535099D03*
G01*
X-3469792Y-1281099D03*
G01*
X-3469792Y-1535099D03*
D31*
G01*
X5013807Y2351100D03*
D20*
G01*
X5013807Y2097100D03*
G01*
X4759807Y2351100D03*
G01*
X4759807Y2097100D03*
G01*
X4505807Y2351100D03*
G01*
X4505807Y2097100D03*
D31*
G01*
X949807Y357200D03*
D20*
G01*
X949807Y103200D03*
G01*
X949807Y-150799D03*
G01*
X949807Y-404799D03*
D31*
G01*
X1470507Y357200D03*
D20*
G01*
X1470507Y103200D03*
G01*
X1470507Y-150799D03*
G01*
X1470507Y-404799D03*
D41*
G01*
X73507Y-4621199D03*
D15*
G01*
X327482Y-4621225D03*
G01*
X581482Y-4621225D03*
G01*
X835482Y-4621225D03*
G01*
X1089482Y-4621225D03*
G01*
X1343482Y-4621225D03*
G01*
X1597482Y-4621225D03*
G01*
X1851482Y-4621225D03*
D41*
G01*
X73507Y-4367199D03*
D15*
G01*
X327482Y-4367225D03*
G01*
X581482Y-4367225D03*
G01*
X835482Y-4367225D03*
G01*
X1089482Y-4367225D03*
G01*
X1343482Y-4367225D03*
G01*
X1597482Y-4367225D03*
G01*
X1851482Y-4367225D03*
D27*
G01*
X3883507Y-4595799D03*
D13*
G01*
X4137507Y-4595799D03*
D29*
G01*
X3629507Y-4595799D03*
G01*
X3375507Y-4595799D03*
D42*
G01*
X3121507Y-4595799D03*
D29*
G01*
X2359507Y-4595799D03*
G01*
X2613507Y-4595799D03*
D42*
G01*
X2867507Y-4595799D03*
D31*
G01*
X3756507Y-430199D03*
D20*
G01*
X3756507Y-176199D03*
G01*
X3756507Y77800D03*
G01*
X3756507Y331800D03*
D27*
G01*
X4645507Y-4595799D03*
D13*
G01*
X4391507Y-4595799D03*
D27*
G01*
X5153507Y-4595799D03*
D13*
G01*
X4899507Y-4595799D03*
D31*
G01*
X-3444366Y-6705574D03*
D20*
G01*
X-3698366Y-6705574D03*
G01*
X-3444366Y-6451574D03*
G01*
X-3698366Y-6451574D03*
G01*
X-3444366Y-6197574D03*
G01*
X-3698366Y-6197574D03*
G01*
X-3444366Y-5943574D03*
G01*
X-3698366Y-5943574D03*
D43*
G01*
X9535007Y-3469462D03*
G01*
X9789033Y-3470452D03*
D44*
G01*
X9281007Y-3469462D03*
D43*
G01*
X9535007Y-4257852D03*
G01*
X9280982Y-4256862D03*
D44*
G01*
X9789007Y-4257852D03*
D25*
G01*
X-3121964Y4941874D03*
G01*
X-3461969Y4941874D03*
D45*
G01*
X9913620Y-8186419D03*
G01*
X9271000Y-8186419D03*
D46*
G01*
X9596120Y-7705089D03*
D24*
G01*
X-2593492Y-7454874D03*
G01*
X-2593492Y-7708874D03*
G01*
X-2847492Y-7454874D03*
G01*
X-2847492Y-7708874D03*
G01*
X-3101492Y-7454874D03*
G01*
X-3101492Y-7708874D03*
G01*
X-3355492Y-7454874D03*
G01*
X-3355492Y-7708874D03*
G01*
X-3609492Y-7454874D03*
D37*
G01*
X-3609492Y-7708874D03*
D24*
G01*
X-2339492Y-7708874D03*
G01*
X-2339492Y-7454874D03*
G01*
X-2085492Y-7708874D03*
G01*
X-2085492Y-7454874D03*
G01*
X-1831492Y-7708874D03*
G01*
X-1831492Y-7454874D03*
G01*
X-1577492Y-7708874D03*
G01*
X-1577492Y-7454874D03*
G01*
X-1323492Y-7708874D03*
G01*
X-1323492Y-7454874D03*
G01*
X-1069492Y-7708874D03*
G01*
X-1069492Y-7454874D03*
G01*
X-815492Y-7708874D03*
G01*
X-815492Y-7454874D03*
G01*
X-561492Y-7708874D03*
G01*
X-561492Y-7454874D03*
G01*
X-307492Y-7708874D03*
G01*
X-307492Y-7454874D03*
G01*
X-53492Y-7708874D03*
G01*
X-53492Y-7454874D03*
G01*
X200507Y-7708874D03*
G01*
X200507Y-7454874D03*
G01*
X454507Y-7708874D03*
G01*
X454507Y-7454874D03*
G01*
X708507Y-7708874D03*
G01*
X708507Y-7454874D03*
G01*
X962507Y-7708874D03*
G01*
X962507Y-7454874D03*
G01*
X1216507Y-7708874D03*
G01*
X1216507Y-7454874D03*
G01*
X1470507Y-7708874D03*
G01*
X1470507Y-7454874D03*
G01*
X1724507Y-7708874D03*
G01*
X1724507Y-7454874D03*
G01*
X1978507Y-7708874D03*
G01*
X1978507Y-7454874D03*
G01*
X2232507Y-7708874D03*
G01*
X2232507Y-7454874D03*
D47*
G01*
X2372207Y-2133600D03*
G01*
X2118207Y-2133600D03*
G01*
X1864207Y-2133600D03*
G01*
X1610207Y-2133600D03*
D48*
G01*
X1356207Y-2133600D03*
D47*
G01*
X2232533Y-5435701D03*
G01*
X1978533Y-5435701D03*
G01*
X1724533Y-5435701D03*
G01*
X1470533Y-5435701D03*
D48*
G01*
X1216533Y-5435701D03*
D49*
G01*
X3847795Y3872077D03*
G01*
X3847795Y3732072D03*
G01*
X3777792Y3942080D03*
G01*
X3707790Y3872077D03*
G01*
X3707790Y3732072D03*
G01*
X3987800Y3732072D03*
G01*
X3987800Y3872077D03*
G01*
X3917797Y3942080D03*
G01*
X3917797Y3802075D03*
G01*
X3777792Y3802075D03*
G01*
X3777792Y3662070D03*
G01*
X3917797Y3662070D03*
D50*
G01*
X1927707Y-6234074D03*
G01*
X-586892Y-5956274D03*
G01*
X-650392Y-6019774D03*
G01*
X-624992Y-5753074D03*
G01*
X-2707766Y-5943574D03*
G01*
X-1602892Y-5687999D03*
G01*
X-1615592Y-5802299D03*
G01*
X-1577492Y-5967399D03*
G01*
X-2707766Y-6197574D03*
G01*
X-2707766Y-6451574D03*
G01*
X-2733166Y-6705574D03*
G01*
X22707Y-5954699D03*
G01*
X-1425092Y-7162774D03*
G01*
X-53492Y-5207000D03*
G01*
X-370992Y-5816574D03*
G01*
X-368300Y-5524500D03*
G01*
X-828192Y-6246774D03*
G01*
X-396392Y-5103799D03*
G01*
X86207Y-5624499D03*
G01*
X911707Y-5395899D03*
G01*
X568807Y-5408599D03*
G01*
X7802626Y-8375700D03*
G01*
X7802626Y-8375700D03*
G01*
X7802626Y-8375700D03*
G01*
X7802626Y-8375700D03*
G01*
X7802626Y-8375700D03*
G01*
X7802626Y-8375700D03*
G01*
X7802626Y-8375700D03*
G01*
X7802626Y-8375700D03*
G01*
X7802626Y-8375700D03*
G01*
X8208797Y-8670747D03*
G01*
X8208797Y-8073847D03*
G01*
X7357922Y-8683447D03*
G01*
X7370622Y-8048447D03*
G01*
X7796072Y-8200847D03*
G01*
X8005622Y-8200847D03*
G01*
X7586522Y-8200847D03*
G01*
X7586522Y-8556447D03*
G01*
X7796072Y-8556447D03*
G01*
X8005622Y-8556447D03*
D14*
G01*
X3898900Y-7175500D03*
G01*
X5397500Y-7378700D03*
D50*
G01*
X3210407Y1741500D03*
G01*
X4025900Y1968500D03*
G01*
X4762500Y-6121400D03*
G01*
X4216400Y-6121400D03*
G01*
X4584700Y-9309100D03*
G01*
X-802792Y-4214799D03*
G01*
X-1996592Y-3719499D03*
G01*
X-3177666Y-2805099D03*
G01*
X-2047392Y-3401999D03*
G01*
X-3050666Y-2970199D03*
G01*
X165100Y-939800D03*
G01*
X-1841500Y-965200D03*
G01*
X3134207Y-3922699D03*
G01*
X-536092Y-3236899D03*
G01*
X-536092Y-2766999D03*
G01*
X-675792Y-3782999D03*
G01*
X-647700Y-762000D03*
G01*
X3134233Y-2258923D03*
G01*
X1013307Y-2855899D03*
G01*
X949807Y-2957499D03*
G01*
X873607Y-2855899D03*
G01*
X810107Y-2957499D03*
G01*
X276707Y-1242999D03*
G01*
X200507Y-1535099D03*
G01*
X505307Y-3694099D03*
G01*
X619607Y-3694099D03*
G01*
X683107Y-3808399D03*
G01*
X619607Y-2855899D03*
G01*
X683107Y-2957499D03*
G01*
X746607Y-2855899D03*
G01*
X594207Y-1928799D03*
G01*
X-986916Y-2690723D03*
G01*
X-1082166Y-3224123D03*
G01*
X-866292Y-2402027D03*
G01*
X-3567963Y-1839823D03*
G01*
X1216507Y-2830499D03*
G01*
X1216507Y-1230299D03*
G01*
X520700Y-1435100D03*
G01*
X886307Y-1941499D03*
G01*
X-1272692Y-1115999D03*
G01*
X-1475892Y-963599D03*
G01*
X-1475892Y-1357299D03*
G01*
X-762000Y-723900D03*
G01*
X-53492Y-1928799D03*
G01*
X6258407Y-1738299D03*
G01*
X5928207Y-2271699D03*
G01*
X2461107Y-1928799D03*
G01*
X2384907Y-2385999D03*
G01*
X1368907Y-2449499D03*
G01*
X2562707Y-1344599D03*
G01*
X6550507Y-1255699D03*
G01*
X6652107Y-1700199D03*
G01*
X6360007Y-2055799D03*
G01*
X6042507Y-1992299D03*
G01*
X6474307Y-1662099D03*
G01*
X-330200Y-457200D03*
G01*
X-254000Y-457200D03*
G01*
X4889500Y1041400D03*
G01*
X4762500Y1320800D03*
G01*
X2461107Y4205300D03*
G01*
X5191607Y4091000D03*
G01*
X4162907Y3341700D03*
G01*
X4683607Y-3414699D03*
G01*
X3134233Y-2832125D03*
G01*
X3197707Y-760399D03*
G01*
X4429607Y-1039799D03*
G01*
X4328007Y-2881299D03*
G01*
X-840892Y928700D03*
G01*
X2260600Y2082800D03*
G01*
X1663700Y2565400D03*
G01*
X4648200Y2590800D03*
G01*
X1778000Y2667000D03*
G01*
X4813300Y2755900D03*
G01*
X-2199792Y3595700D03*
G01*
X-2326792Y3849700D03*
G01*
X4493107Y636600D03*
G01*
X683107Y-150799D03*
G01*
X-1399692Y750900D03*
G01*
X759307Y-1928799D03*
G01*
X1114907Y-2805099D03*
G01*
X1562100Y-3035300D03*
G01*
X-3037966Y77800D03*
G01*
X5016500Y2921000D03*
G01*
X5511800Y3962400D03*
G01*
X5013807Y3824300D03*
G01*
X-2222500Y-723900D03*
G01*
X137007Y319100D03*
G01*
X152400Y482600D03*
G01*
X-2517292Y458800D03*
G01*
X-1348892Y-442899D03*
G01*
X-78892Y801700D03*
G01*
X-3215792Y-823899D03*
G01*
X7239000Y5003800D03*
G01*
X5013807Y4167200D03*
G01*
X5102707Y3951300D03*
G01*
X2854807Y4332300D03*
G01*
X1572107Y4205300D03*
G01*
X2882900Y2095500D03*
G01*
X4201007Y2046300D03*
G01*
X2590800Y3441700D03*
G01*
X4696307Y3951300D03*
G01*
X4048607Y1487500D03*
G01*
X2743200Y1663700D03*
G01*
X3223107Y2160600D03*
G01*
X3032607Y2338400D03*
G01*
X3009900Y1333500D03*
G01*
X3210407Y1855800D03*
G01*
X2689707Y1563700D03*
G01*
X2082800Y2197100D03*
G01*
X3947007Y1525600D03*
G01*
X3429000Y1384300D03*
G01*
X3870807Y1347800D03*
G01*
X2120900Y1320800D03*
G01*
X3794607Y1119200D03*
G01*
X2120900Y1219200D03*
G01*
X3439007Y1258900D03*
G01*
X3632200Y1257300D03*
G01*
X3502507Y1563700D03*
G01*
X3642207Y1678000D03*
G01*
X4457700Y3022600D03*
G01*
X2006600Y2120900D03*
G01*
X2461107Y2363800D03*
G01*
X736600Y-698500D03*
G01*
X2829407Y3989400D03*
G01*
X4670907Y4459300D03*
G01*
X4569307Y3532200D03*
G01*
X-1259992Y3392500D03*
G01*
X1066800Y3390900D03*
G01*
X3566007Y2998800D03*
G01*
X3312007Y3075000D03*
G01*
X1902307Y2935300D03*
G01*
X1447800Y3022600D03*
G01*
X899007Y3290900D03*
G01*
X-2501900Y3225800D03*
G01*
X-2095372Y4899888D03*
G01*
X-2100452Y4069486D03*
G01*
X-2006600Y-927100D03*
G01*
X-2250592Y-150799D03*
G01*
X-2339492Y1106500D03*
G01*
X-825500Y1206500D03*
G01*
X-88900Y1206500D03*
G01*
X187807Y-240004D03*
G01*
X952500Y622300D03*
G01*
X-1183792Y3227400D03*
D14*
G01*
X6029807Y-8050199D03*
G01*
X6029807Y-8469299D03*
G01*
X5003800Y-8801100D03*
G01*
X5016500Y-9436100D03*
G01*
X3949700Y-7480300D03*
G01*
X6324600Y-5956300D03*
D51*
G01*
X4622800Y-7467600D03*
D14*
G01*
X5359400Y-7645400D03*
G01*
X7302500Y4673600D03*
D51*
G01*
X5232400Y-6248400D03*
G01*
X6985000Y4318000D03*
G01*
X6591300Y2641600D03*
G01*
X6985000Y1549400D03*
G01*
X4632807Y-2792399D03*
G01*
X4823307Y-3427399D03*
G01*
X4823307Y-3427399D03*
G01*
X3667607Y-3084499D03*
G01*
X3667607Y-3084499D03*
G01*
X5064607Y-658799D03*
G01*
X2537307Y-621918D03*
G01*
X6537807Y-353999D03*
G01*
X5651500Y1460500D03*
G01*
X6642100Y1879600D03*
G01*
X7325207Y3436315D03*
G01*
X5283200Y-5207000D03*
D14*
G01*
X5194300Y-6515100D03*
D51*
G01*
X6715607Y-2627299D03*
G01*
X3375507Y-4214799D03*
G01*
X2689733Y-3769994D03*
G01*
X10335107Y-3414699D03*
G01*
X10385907Y-4587544D03*
G01*
X10690707Y-4278299D03*
G01*
X11795607Y-2568244D03*
G01*
X10131907Y-3571544D03*
G01*
X9801707Y-1082344D03*
G01*
X9687407Y-282244D03*
D14*
G01*
X9344507Y-1806244D03*
G01*
X9331807Y-1552244D03*
G01*
X10766907Y-1691944D03*
G01*
X10779607Y-1945944D03*
G01*
X6096000Y-7556500D03*
G01*
X4241800Y-8458200D03*
G01*
X4114800Y-8394700D03*
G01*
X4127500Y-8178800D03*
G01*
X4191000Y-8280400D03*
G01*
X4013200Y-8102600D03*
G01*
X4000500Y-8470900D03*
G01*
X4051300Y-8280400D03*
D51*
G01*
X4343400Y-6680200D03*
G01*
X4889500Y-6680200D03*
G01*
X3990619Y4586782D03*
G01*
X3987800Y4372787D03*
G01*
X-701192Y3710000D03*
G01*
X-1298092Y3697300D03*
G01*
X-1069492Y3671900D03*
G01*
X-1907692Y-1420799D03*
G01*
X-2644292Y230200D03*
G01*
X-2148992Y-1535099D03*
G01*
X-2480767Y-1839823D03*
G01*
X9344507Y-417499D03*
G01*
X596900Y-787400D03*
G01*
X-2578100Y-520700D03*
G01*
X-3035300Y-215900D03*
G01*
X-774700Y152400D03*
G01*
X-431800Y152400D03*
G01*
X-431800Y-152400D03*
G01*
X-774700Y-152400D03*
G01*
X-584200Y-12700D03*
G01*
X558800Y-38100D03*
D52*
G01*
X2260600Y2755900D03*
G01*
X4622800Y1854200D03*
G01*
X4635500Y2209800D03*
G01*
X6908800Y2641600D03*
G01*
X1270000Y3467100D03*
G01*
X1409700Y2654300D03*
G01*
X292100Y2540000D03*
G01*
X-1183766Y3697376D03*
G01*
X3429000Y2489200D03*
G01*
X1752600Y2489200D03*
G01*
X1455699Y2056892D03*
G01*
X1455699Y1594027D03*
G01*
X190500Y1854200D03*
G01*
X1028700Y2451100D03*
G01*
X1549400Y2578100D03*
G01*
X1600200Y1587500D03*
G01*
X2603500Y1955800D03*
G01*
X4699000Y1727200D03*
G01*
X4597400Y2984500D03*
G01*
X5664200Y2984500D03*
G01*
X6286500Y1968500D03*
G01*
X4711700Y2959100D03*
G01*
X5257800Y2857500D03*
G01*
X5168900Y2819400D03*
G01*
X5092700Y2717800D03*
G01*
X6845300Y3238500D03*
D14*
G01*
X4241800Y-8102600D03*
D52*
G01*
X4889500Y-6794500D03*
G01*
X4343400Y-6794500D03*
G01*
X11531600Y698500D03*
G01*
X11899900Y2159000D03*
G01*
X11899900Y2921000D03*
G01*
X11899900Y3568700D03*
G01*
X10464800Y2603500D03*
G01*
X9525000Y2260600D03*
G01*
X10109200Y1993900D03*
G01*
X10337800Y1993900D03*
G01*
X10528300Y5194300D03*
G01*
X11950700Y4051300D03*
G01*
X11557000Y4940300D03*
G01*
X11442700Y5067300D03*
G01*
X11137900Y4686300D03*
G01*
X11023600Y4495800D03*
G01*
X10934700Y4178300D03*
G01*
X10922000Y2692400D03*
G01*
X10985500Y3098800D03*
G01*
X10833100Y3162300D03*
G01*
X10617200Y4330700D03*
G01*
X9055100Y1905000D03*
G01*
X11036300Y2984500D03*
G01*
X10642600Y3124200D03*
G01*
X10210800Y3352800D03*
G01*
X10845800Y3378200D03*
G01*
X10693400Y3708400D03*
G01*
X10718800Y4267200D03*
G01*
X11150600Y3911600D03*
G01*
X10331043Y3987800D03*
G01*
X10198100Y2997200D03*
G01*
X7632700Y3505200D03*
G01*
X8013700Y3505200D03*
G01*
X7823200Y-2108200D03*
G01*
X7467600Y3060700D03*
G01*
X6654800Y2247900D03*
G01*
X6413500Y2641600D03*
G01*
X7518400Y3759200D03*
G01*
X8013700Y1041400D03*
G01*
X7924800Y177800D03*
M02*
