G04 Layer: BoardOutlineLayer*
G04 EasyEDA v6.5.42, 2024-02-23 22:21:14*
G04 3aace9d48a714ce2aeec92cc817ea311,70a670f4ca684169977cf979d80dc4ec,10*
G04 Gerber Generator version 0.2*
G04 Scale: 100 percent, Rotated: No, Reflected: No *
G04 Dimensions in millimeters *
G04 leading zeros omitted , absolute positions ,4 integer and 5 decimal *
%FSLAX45Y45*%
%MOMM*%

%ADD10C,0.2540*%
D10*
X8404733Y-2614523D02*
G01*
X8404697Y3548773D01*
X12471273Y5321198D02*
G01*
X12471273Y1244498D01*
X12471400Y5321300D02*
G01*
X8636000Y5321300D01*
X8636000Y4572000D01*
X8635875Y1244500D02*
G01*
X12471275Y1244500D01*
X8407400Y4572000D02*
G01*
X8407400Y5321300D01*
X-3825366Y5346598D02*
G01*
X2374011Y5346598D01*
X2996311Y4724298D01*
X5012309Y4724298D01*
X5610733Y5322976D01*
X8407400Y5321300D01*
X8407400Y4572000D02*
G01*
X8636000Y4572000D01*
X8636000Y3556000D02*
G01*
X8635873Y1244498D01*
X8636000Y3548773D02*
G01*
X8404697Y3548773D01*
X11846433Y-4786223D02*
G01*
X11846433Y789076D01*
X8658733Y789076D01*
X8658733Y-2614523D01*
X3505200Y-9563100D02*
G01*
X3505200Y-4978400D01*
X3505200Y-4978400D02*
G01*
X6118697Y-4976799D01*
X10220797Y-4976809D02*
G01*
X10220797Y-9561509D01*
X3505200Y-9563100D01*
X8658697Y-2614604D02*
G01*
X8404697Y-2614604D01*
X-3822700Y-4800600D02*
G01*
X-3825379Y5346692D01*
X-3822700Y-4800600D02*
G01*
X-215922Y-4799017D01*
X-3825366Y-4989423D02*
G01*
X-215900Y-4978400D01*
X-215922Y-4799017D01*
X-3825402Y-8062904D02*
G01*
X-3825366Y-4989423D01*
X2489200Y-8064500D02*
G01*
X-3825402Y-8062904D01*
X2501900Y-4991100D02*
G01*
X2489200Y-8064500D01*
X1533507Y-4989504D02*
G01*
X2501900Y-4991100D01*
X1533999Y-4786304D02*
G01*
X1533507Y-4989504D01*
X1533999Y-4786304D02*
G01*
X6118697Y-4773604D01*
X6118697Y-4773604D02*
G01*
X6118697Y-4976799D01*
X7642697Y-4976804D02*
G01*
X10220797Y-4976809D01*
X7642697Y-4786304D02*
G01*
X7642697Y-4976804D01*
X8658697Y-3630604D02*
G01*
X8417433Y-3630523D01*
X8417433Y-4786223D01*
X7642733Y-4786223D01*
X8658697Y-3630604D02*
G01*
X8658697Y-4786304D01*
X11846397Y-4786304D01*

%LPD*%
M02*
